<svg xmlns="http://www.w3.org/2000/svg" width="800" height="160.24" viewBox="0 0 800 160.24"><path d="M93.45,252.51v-1.18h-1.4v-1.18H90.64V249H89.23v-1.18h-1.4v-1.18H86.42v-1.18H85v-1.18h-1.4v-1.18H82.19v-1.18h-1.4v-1.18H79.38v-1.18H78v-1.18H76.57v-1.18H75.16V236H73.75V223.86l.66-.42V223h-.66v-.87H71.18V211.5h.72v-.43h-.72v-2.53h.72v-.8l.66-.41v-.41H70.08v-2h-.62v-6.74h.62v-.28h-.62v-1.25h.62v-.8l.67-.41V195H69.38V183.72h-.62v1H66a8.38,8.38,0,0,0-15.21,0H48v-1h-.62v7.76H38.61v-3.59h-1v-1.52H36.8V167.05h.46v-3.79H36.8V157.4h.31V157H36.8v-2.31a.12.12,0,0,0,.1.05,1,1,0,0,0,1-1,.15.15,0,0,0-.09-.14h.32v-.23H37v-.62h.33v-.46h.34V152h-.34v-.28H37V151H36.8v-2.21a.67.67,0,0,0,.6-.66V148h1v-3.14h.3v-.45H37.26v-1H37V143h-.3v-9h-.24v-.76L32,113.5l-4.43,19.77V134H27.3v9H27v.38h-.3v1H25.26v.45h.3V148h1s0,0,0,.08a.67.67,0,0,0,.6.66V151H27v.74h-.32V152h-.34v.34h.34v.46H27v.62H25.83v.23h.31a.16.16,0,0,0-.08.14,1,1,0,0,0,1,1,.1.1,0,0,0,.1-.05V157h-.3v.37h.3v5.86H26.7v3.79h.45v19.32H26.4v1.52H25.34v3.63h-1V195h-1.6v.41l.65.41v.8H24v1.25h-.63v.28H24v6.74h-.63v2H20.89v.41l.66.41v.8h.73v2.53h-.73v.43h.73v10.66H19.7V223H19v.41l.66.42V236H18.29v1.18H16.88v1.18H15.47v1.18h-1.4v1.18H12.66v1.18h-1.4v1.18H9.85v1.18H8.44v1.18H7v1.18H5.63v1.18H4.22V249H2.81v1.18H1.41v1.18H0v1.18ZM39.64,193a.82.82,0,0,1,.11.38.33.33,0,0,1-.11.28Zm28.54-7.49a.23.23,0,0,1,.22-.24v-.11h.17v.11a.25.25,0,0,1,.19.1v.31a.49.49,0,0,0-.11.3.66.66,0,0,0,.11.4v.41a.23.23,0,0,1-.19.14V187H68.4v-.09s-.22,0-.22-.33.14-.26.14-.62S68.18,185.7,68.18,185.47Zm-1,0a.24.24,0,0,1,.23-.24v-.11h.17v.11a.23.23,0,0,1,.22.24c0,.23-.14.24-.14.47s.14.3.14.62-.22.33-.22.33V187h-.17v-.09s-.23,0-.23-.33.14-.26.14-.62S67.16,185.7,67.16,185.47Zm-.79-.24v-.11h.17v.11a.23.23,0,0,1,.22.24c0,.23-.14.24-.14.47s.14.3.14.62-.05.26-.12.29a8.61,8.61,0,0,0-.41-1.53A.61.61,0,0,1,66.37,185.23ZM50,185.47a.23.23,0,0,1,.22-.24v-.11h.17v.11a.38.38,0,0,1,.15.1,8.61,8.61,0,0,0-.41,1.53c-.06,0-.13-.1-.13-.3s.14-.26.14-.62S50,185.7,50,185.47Zm-1,0a.22.22,0,0,1,.21-.24v-.11h.18v.11a.24.24,0,0,1,.23.24c0,.23-.14.24-.14.47s.14.3.14.62-.23.33-.23.33V187h-.18v-.09s-.21,0-.21-.33.13-.26.13-.62S49,185.7,49,185.47Zm-1,.87a.66.66,0,0,0,.11-.4.51.51,0,0,0-.11-.3v-.31a.28.28,0,0,1,.18-.1v-.11h.18v.11a.23.23,0,0,1,.22.24c0,.23-.14.24-.14.47s.14.3.14.62-.22.33-.22.33V187h-.18v-.09a.22.22,0,0,1-.18-.14Zm-.62,5.7v.65c0-.18-.12-.22-.12-.44A.21.21,0,0,1,47.35,192Zm0,.78v.82c-.06,0-.12-.11-.12-.3S47.32,193.06,47.35,192.82Zm-1.14-.57a.23.23,0,0,1,.22-.24v-.1h.18v.1a.23.23,0,0,1,.22.24c0,.24-.14.24-.14.48s.14.3.14.61-.22.33-.22.33v.1h-.18v-.1s-.22,0-.22-.33.14-.25.14-.61S46.21,192.49,46.21,192.25Zm-1,0a.23.23,0,0,1,.22-.24v-.1h.17v.1a.23.23,0,0,1,.22.24c0,.24-.14.24-.14.48s.14.3.14.61-.22.33-.22.33v.1h-.17v-.1s-.22,0-.22-.33.14-.25.14-.61S45.2,192.49,45.2,192.25Zm-1,0a.24.24,0,0,1,.23-.24v-.1h.17v.1a.23.23,0,0,1,.22.24c0,.24-.14.24-.14.48s.14.3.14.61-.22.33-.22.33v.1h-.17v-.1s-.23,0-.23-.33.15-.25.15-.61S44.18,192.49,44.18,192.25Zm-1,0a.22.22,0,0,1,.21-.24v-.1h.18v.1a.23.23,0,0,1,.22.24c0,.24-.14.24-.14.48s.14.3.14.61-.22.33-.22.33v.1h-.18v-.1s-.21,0-.21-.33.13-.25.13-.61S43.18,192.49,43.18,192.25Zm-1,0a.23.23,0,0,1,.22-.24v-.1h.18v.1a.23.23,0,0,1,.22.24c0,.24-.14.24-.14.48s.14.3.14.61-.22.33-.22.33v.1h-.18v-.1s-.22,0-.22-.33.14-.25.14-.61S42.16,192.49,42.16,192.25Zm-1,0a.23.23,0,0,1,.22-.24v-.1h.18v.1a.22.22,0,0,1,.21.24c0,.24-.13.24-.13.48s.13.3.13.61-.21.33-.21.33v.1h-.18v-.1s-.22,0-.22-.33.14-.25.14-.61S41.15,192.49,41.15,192.25Zm-1,0a.23.23,0,0,1,.22-.24v-.1h.18v.1a.23.23,0,0,1,.22.24c0,.24-.14.24-.14.48s.14.3.14.61-.22.33-.22.33v.1h-.18v-.1s-.22,0-.22-.33.14-.25.14-.61S40.14,192.49,40.14,192.25Zm-.5.36v-.55a.2.2,0,0,1,.11.19A.81.81,0,0,1,39.64,192.61Zm-6.27-57.48h1.72V143H33.37Zm-4.34,0h1.71V143H29Z" transform="translate(0 -99.26)" fill="#373a36"/><polygon points="484.5 82.13 486.58 82.13 486.69 82.13 488.77 82.13 488.88 82.13 490.9 82.13 490.9 77.8 487.56 77.8 487.56 77.06 490.9 77.06 490.9 75.15 487.56 75.15 487.56 74.41 490.9 74.41 490.9 71.69 514.5 71.69 514.5 82.13 515.08 82.13 515.2 82.13 517.27 82.13 517.39 82.13 519.47 82.13 519.58 82.13 521.66 82.13 521.77 82.13 523.85 82.13 523.97 82.13 526.04 82.13 526.16 82.13 528.24 82.13 528.35 82.13 529.45 82.13 529.45 82.99 529.45 83.11 529.45 86.32 529.45 86.45 529.45 89.66 529.45 89.78 529.45 92.99 529.45 93.12 529.45 93.86 529.45 96.27 529.45 96.45 529.45 96.45 529.45 99.6 529.45 99.66 529.45 99.79 529.45 102.26 529.45 102.94 529.45 103.12 529.45 105.41 529.45 106.27 529.45 106.45 529.45 108 529.45 109.6 529.45 109.79 529.45 111.21 529.45 112.94 529.45 113.12 529.45 113.8 529.45 116.27 529.45 116.46 529.45 117.01 529.45 119.61 529.45 119.61 529.45 119.79 529.45 122.76 529.45 122.94 529.45 123.13 529.45 125.41 529.45 126.28 529.45 126.46 529.45 128.56 529.45 129.61 529.45 129.79 529.45 131.15 529.45 132.94 529.45 133.13 529.45 134.37 529.45 136.28 529.45 136.46 529.45 136.96 529.45 139.61 529.45 139.8 529.45 140.11 529.45 142.76 529.45 142.95 529.45 143.13 529.45 145.91 529.45 146.28 529.45 146.41 529.45 148.5 529.45 149.62 529.45 149.74 529.45 150.97 528.35 150.97 528.24 150.97 526.16 150.97 526.04 150.97 523.97 150.97 523.85 150.97 521.77 150.97 521.66 150.97 519.58 150.97 519.47 150.97 517.39 150.97 517.27 150.97 515.2 150.97 515.08 150.97 513 150.97 512.89 150.97 510.81 150.97 510.7 150.97 508.62 150.97 508.5 150.97 506.43 150.97 506.31 150.97 504.23 150.97 504.12 150.97 502.04 150.97 501.93 150.97 499.85 150.97 499.73 150.97 497.65 150.97 497.54 150.97 495.46 150.97 495.35 150.97 493.27 150.97 493.15 150.97 491.08 150.97 490.96 150.97 488.88 150.97 488.77 150.97 486.69 150.97 486.58 150.97 484.5 150.97 484.38 150.97 483.4 150.97 483.4 149.74 483.4 149.62 483.4 146.41 483.4 146.28 483.4 143.13 483.4 142.95 483.4 139.8 483.4 139.61 483.4 136.46 483.4 136.28 483.4 133.13 483.4 132.94 483.4 129.79 483.4 129.61 483.4 126.46 483.4 126.28 483.4 123.13 483.4 122.94 483.4 119.79 483.4 119.61 483.4 116.46 483.4 116.27 483.4 113.12 483.4 112.94 483.4 109.79 483.4 109.6 483.4 106.45 483.4 106.27 483.4 103.12 483.4 102.94 483.4 99.79 483.4 99.6 483.4 96.45 483.4 96.27 483.4 93.12 483.4 92.99 483.4 89.78 483.4 89.66 483.4 86.45 483.4 86.32 483.4 83.11 483.4 82.99 483.4 82.13 484.38 82.13 484.5 82.13" fill="#d0d1d1"/><path d="M499.39,251.53l-4.16-44.81a2.9,2.9,0,0,0,.64-.87,3.69,3.69,0,0,0,.46-1.79c0-.86.39-.69.52-1.33a8.77,8.77,0,0,0,.1-1.15h.36v-2.49h.17v-.33h-.17v-.59h-.11v-.93H497v-.34h-.35v.34h-.27v-.7h0v-.66h-.29v.66h-.23V197h-.31v-.81h-.06v-.81h-.29v.81h-.23v.58h-.63v-1.5h-.21l-1.73-23.84a2.19,2.19,0,0,0,.59-.8c.23-.48.52-.54.52-1.35s.51-1.29.62-1.89a2.76,2.76,0,0,0,0-.76h.21v-.77a.41.41,0,0,0,.28-.39.39.39,0,0,0-.28-.39v-.31h.17v-.32h-.17v-.53h-.11V163H494v-.33h-.31V163h-.26v-.66h-.05v-.62h-.27v.62h-.22v.39h-.29V162h-.05v-.75h-.27V162h-.12v-1.83h.24V160h-.58v-.66h.58v-.19h-.35v-.62h-.72l-1.06-14.7a4.09,4.09,0,0,0,.94-.62c.41-.38.14-1,.38-1.39s.69-.53.69-.84-.42-.46-.42-.46.57-.08.57-.58a.79.79,0,0,0-.33-.69l-.05-.34a.41.41,0,0,0,.11-.54c-.15-.39-.34-.43-.34-.43l.19-.35-.19-.65h-.2l-.19.57H491v-1.18h-.46l-.3.19h-.36v-1.12h-.26l-1-10.35c.65-.17,1.07-.44,1.07-.74s-.14-.34-.38-.47v-1h-.12v-.39h-.53v-.57h-.13v-.5h-.27V121h-.35v-.89h-.46V118c.21-.08.35-.19.35-.31s-.14-.23-.35-.31v-1c.21-.08.35-.19.35-.31s-.23-.3-.58-.39v-.94h-.32V113H487v-.52l.63-.83V111a.24.24,0,0,0,.13-.18c0-.13-.14-.23-.35-.32v-.32h-.07v-1.85h-7.72v1.85h-.06v.32c-.21.09-.35.19-.35.32a.24.24,0,0,0,.11.18v.72l.64.83V113h.13v1.69h-.3v.94c-.35.09-.58.24-.58.39s.14.23.35.31v1c-.21.08-.35.19-.35.31s.14.23.35.31v2.13h-.47V121h-.35v.35h-.26v.5h-.13v.57h-.54v.39h-.12v1c-.24.13-.38.29-.38.47s.42.57,1.07.74l-1,10.35h-.27v1.12h-.33l-.32-.19H476v1.18h-.46l-.19-.57h-.2l-.19.65.19.35s-.19,0-.35.43a.41.41,0,0,0,.13.54l0,.34a.78.78,0,0,0-.34.69c0,.5.57.58.57.58s-.41.15-.41.46.45.46.68.84,0,1,.39,1.39a3.92,3.92,0,0,0,.93.62l-1.06,14.7h-.71v.62h-.36v.19h.58V160h-.58v.19h.23V162h-.1v-.75h-.28V162h-.05v.76h-.29v-.39h-.21v-.62h-.27v.62h-.06V163h-.25v-.33h-.32V163h-.17v.87h-.11v.53h-.16v.32h.16V165a.39.39,0,0,0-.27.39.41.41,0,0,0,.27.39v.77h.23a2.42,2.42,0,0,0,0,.76c.11.6.61,1.08.61,1.89s.3.87.51,1.35a2.42,2.42,0,0,0,.6.8l-1.72,23.84h-.21v1.5h-.63v-2.62c0-9.74-6.19-20.37-14.06-24.8v-.06a2,2,0,0,0-2-2,1.77,1.77,0,0,0-.41,0,1.21,1.21,0,0,0-1.16-.92H453c-4.39-3.75-3.35-7.17-6.45-7.58v-.92a1.06,1.06,0,0,0,0-1.94v-.46a.58.58,0,0,0,.16-.41.63.63,0,0,0-.18-.44l-.11-1.63v-5.65a1.8,1.8,0,0,0-.38-3.56,1.61,1.61,0,0,1-.36,3.18,1.59,1.59,0,0,1-1.4-.83,1.81,1.81,0,0,0,1.5,1.25v6.26l-.06,1a.6.6,0,0,0-.19.44.58.58,0,0,0,.16.41v.46a1.06,1.06,0,0,0,0,1.94v.91h-.09c-3.14,0-2.31,3.85-6.68,7.59h-1.11a1.17,1.17,0,0,0-1.14.92,1.86,1.86,0,0,0-.42,0,2,2,0,0,0-2,2s0,0,0,.06c-7.89,4.43-14.07,15.06-14.07,24.8v6.63h-1.94l1,1v5.49h-.35v6.94h-3.08l1,1h.09v10.26h-.51v18.84h-1v7.2h84ZM487.16,108.38h0v1.76h0Zm-.14,0h.05v1.76H487Zm-7.2,1.76h0v-1.76h0Zm.14,0h0v-1.76h0Zm6.9-1.76h.07v1.76h-.07Zm-.21,0h.12v1.76h-.12Zm-.22,0h.14v1.76h-.14Zm-.26,0h.16v1.76h-.16Zm-.28,0h.19v1.76h-.19Zm-.32,0h.23v1.76h-.23Zm-.35,0h.26v1.76h-.26Zm-.37,0h.28v1.76h-.28Zm-.41,0h.31v1.76h-.31Zm-.44,0h.35v1.76H484Zm-.45,0h.36v1.76h-.36Zm-.48,0h.38v1.76h-.38Zm-.43,0H483v1.76h-.34Zm-.41,0h.31v1.76h-.31Zm-.37,0h.28v1.76h-.28Zm-.35,0h.25v1.76h-.25Zm-.32,0h.22v1.76h-.22Zm-.29,0h.2v1.76h-.2Zm-.25,0h.16v1.76h-.16Zm-.23,0h.13v1.76h-.13Zm-.19,0h.1v1.76h-.1Zm-.17,1.76v-1.76h.07v1.76Z" transform="translate(0 -99.26)" fill="#e1dcca"/><rect x="278.29" y="84.41" width="15.47" height="66.56" fill="#434642"/><rect x="248.93" y="84.41" width="23.71" height="66.56" fill="#ededed"/><rect x="214.6" y="76.01" width="23.71" height="74.96" fill="#ededed"/><rect x="66.83" y="74.72" width="22.23" height="76.26" fill="#555854"/><rect x="613.89" y="88.73" width="28.96" height="62.24" fill="#ededed"/><path d="M622.78,194.17h-7.1l2.53-5.62H607.16l3.09,6.92h-2.84V189.6h-3.58l5.12-6.92H590.67l5.07,6.92h-3v9.88h-6.3l3,6.85h-.31v44h32V199h-.62Zm-7.65,1.3.18-.44.19.44Z" transform="translate(0 -99.26)" fill="#e1dcca"/><rect x="346.55" y="53.23" width="20.19" height="97.81" fill="#535652"/><rect x="373.66" y="53.23" width="20.19" height="97.81" fill="#dadada"/><rect x="402.99" y="40.88" width="20.19" height="110.1" fill="#3d403c"/><rect x="545.23" y="72.74" width="20.19" height="78.24" fill="#e1dcca"/><rect x="315.18" y="80.83" width="24.7" height="70.15" fill="#676966"/><rect x="587.16" y="59.59" width="18.96" height="91.45" fill="#575a56"/><rect x="619.51" y="38.96" width="18.96" height="112.01" fill="#555854"/><rect x="214.84" y="59.59" width="24.7" height="91.45" fill="#dadada"/><rect x="133.95" y="59.59" width="24.7" height="91.45" fill="#555854"/><polygon points="274.55 146.1 274.55 78.98 274.24 78.36 273.94 77.8 272.76 75.46 272.51 74.84 271.34 72.55 271.03 71.94 269.86 69.65 269.55 69.03 268.44 66.75 268.13 66.13 266.96 63.79 266.65 63.23 265.48 60.88 265.23 60.33 264.06 57.98 263.75 57.36 262.57 55.08 262.26 54.46 261.09 52.18 260.85 51.56 259.67 49.27 259.36 48.66 258.19 46.31 257.94 45.76 256.77 43.41 256.46 42.85 255.29 40.51 254.98 39.95 253.87 37.6 253.56 36.99 252.38 34.7 252.08 34.09 250.9 31.74 250.59 31.18 249.48 28.84 249.18 28.28 248.87 27.66 248.87 146.1 246.83 146.1 246.83 148.13 246.83 148.94 246.83 150.97 276.16 150.97 276.16 148.94 276.16 148.13 276.16 146.1 274.55 146.1" fill="#1d1d1b"/><path d="M579.75,228.56l8.58-4.32s-3.34,1.17-8.58-1.67-5.56-6-5.56-6H553.5s-.24,3.15-5.56,6-8.58,1.67-8.58,1.67l8.58,4.32h2.78l2.78,2.17h-.62V232h.68v11.61H553v4.14h-2V249h-1.48v1.24h28.65V249h-1.48v-1.23h-2v-4.14h-.62V232h.68v-1.23h-.61l2.77-2.16Zm-10.93,15.13h-.62v4.14h-8.71v-4.14h-.62V232.08h10Zm-13.9-11.61h2.6v11.61h-.62v4.14h-1.36v-4.14h-.62Zm17.85,11.61h-.62v4.14h-1.36v-4.14h-.62V232.08h2.6Z" transform="translate(0 -99.26)" fill="#1d1d1b"/><polygon points="627.6 77 627.6 75.83 627.6 72.68 627.6 71.94 626.49 71.94 626.49 69.34 626.3 69.34 626.3 68.6 624.14 68.6 624.14 66.01 621.86 66.01 621.86 62.8 622.91 62.8 622.91 61.75 621.86 61.75 621.86 56.25 621.86 47.05 622.91 47.05 622.91 46 621.86 46 621.86 39.7 621.86 33.22 622.41 33.22 622.41 32.29 620.93 32.29 620.93 26.49 620.93 22.29 621.61 22.29 621.61 21.67 621.61 20.99 620.93 20.99 620.93 15.31 620.93 7.78 620.56 7.78 620.56 0 619.94 0 619.94 7.78 619.57 7.78 619.57 15.31 619.57 20.99 618.89 20.99 618.89 21.67 618.89 22.29 619.57 22.29 619.57 26.49 619.57 32.29 618.09 32.29 618.09 33.22 618.59 33.22 618.59 39.7 618.59 46 617.6 46 617.6 47.05 618.59 47.05 618.59 56.25 618.59 61.75 617.6 61.75 617.6 62.8 618.59 62.8 618.59 66.01 616.36 66.01 616.36 68.6 614.2 68.6 614.2 69.34 614.02 69.34 614.02 71.94 612.9 71.94 612.9 72.68 612.9 75.83 612.9 77 612.9 79.41 611.11 79.41 611.11 79.72 611.11 80.7 611.11 81.51 611.11 83.79 611.11 84.59 611.11 86.88 611.11 87.68 611.11 88.49 611.11 88.79 611.11 90.03 616.3 91.57 616.3 128.13 614.14 128.13 614.14 129.3 616.3 129.3 616.3 136.16 614.14 136.16 614.14 137.33 616.3 137.33 616.3 150.97 624.14 150.97 624.14 137.33 626.37 137.33 626.37 136.16 624.14 136.16 624.14 129.3 626.37 129.3 626.37 128.13 624.14 128.13 624.14 91.57 629.39 90.03 629.39 88.79 629.39 88.49 629.39 87.68 629.39 86.88 629.39 84.59 629.39 83.79 629.39 81.51 629.39 80.7 629.39 79.72 629.39 79.41 627.6 79.41 627.6 77"/><polygon points="429.57 71.5 416.79 71.5 416.79 77 413.95 77 413.95 150.97 418.58 150.97 423.21 150.97 427.78 150.97 432.41 150.97 432.41 77 429.57 77 429.57 71.5" fill="#1d1d1b"/><polygon points="536.21 104.91 535.66 96.02 535.66 96.02 535.6 95.28 533.99 95.28 533.87 92 530.16 92 530.1 95.28 524.79 95.28 524.67 92 520.96 92 520.84 95.28 519.23 95.28 519.17 96.02 519.17 96.02 519.11 97.5 519.11 97.5 519.05 98.24 519.05 98.24 518.92 99.72 518.92 99.72 518.92 100.09 518.8 102.01 518.8 102.01 518.8 102.63 518.68 104.23 518.68 104.23 518.61 104.91 517.56 104.91 517.56 109.85 517.56 110.53 517.56 119.05 517.56 119.79 517.56 128.31 517.56 129.05 517.56 137.58 517.56 138.25 517.56 146.78 517.56 147.52 517.56 150.97 519.42 150.97 519.97 150.97 520.9 150.97 521.46 150.97 522.38 150.97 522.94 150.97 523.99 150.97 530.84 150.97 531.89 150.97 532.38 150.97 533.37 150.97 533.93 150.97 534.85 150.97 535.41 150.97 537.26 150.97 537.26 104.91 536.21 104.91" fill="#56b7cc"/><polygon points="395.95 37.23 394.16 37.23 394.04 37.23 392.74 37.23 392.74 35.32 392.43 35.32 392.43 33.34 392.31 33.34 392.31 31.37 392.18 31.37 392.18 29.39 392 29.39 392 27.48 391.26 27.48 391.26 29.39 391.07 29.39 391.07 31.37 390.95 31.37 390.95 33.34 390.83 33.34 390.83 35.32 390.52 35.32 390.52 37.23 390.33 37.23 390.21 37.23 388.42 37.23 388.29 37.23 386.5 37.23 386.38 37.23 384.59 37.23 384.47 37.23 382.68 37.23 382.55 37.23 380.76 37.23 380.64 37.23 378.85 37.23 378.72 37.23 376.93 37.23 376.81 37.23 375.02 37.23 374.89 37.23 373.1 37.23 373.1 150.97 397.74 150.97 397.74 37.23 396.07 37.23 395.95 37.23" fill="#1d1d1b"/><polygon points="310 62.92 310 63.6 310 64.71 310 65.39 310 66.5 310 67.18 310 68.29 310 68.97 310 70.08 310 70.76 310 71.5 312.04 71.5 312.04 73.11 310 73.11 310 73.79 310 74.47 310 75.58 310 76.26 310 77.37 310 78.05 310 79.16 310 79.84 310 80.95 310 81.63 310 82.81 310 83.48 310 84.59 310 85.28 310 86.39 310 87.06 310 88.18 310 88.86 310 89.97 310 90.65 310 91.39 312.04 91.39 312.04 92.99 310 92.99 310 93.67 310 94.35 310 95.46 310 96.14 310 97.25 310 97.93 310 99.05 310 99.72 310 100.83 310 101.52 310 102.63 310 103.31 310 104.42 310 105.1 310 106.27 310 106.89 310 108.06 310 108.74 310 109.85 310 110.53 310 111.27 312.04 111.27 312.04 112.88 310 112.88 310 113.56 310 114.23 310 115.35 310 116.03 310 117.14 310 117.82 310 118.93 310 119.61 310 120.72 310 121.4 310 122.51 310 123.19 310 124.3 310 124.98 310 126.09 310 126.77 310 127.88 310 128.56 310 129.67 310 130.35 310 131.15 312.04 131.15 312.04 132.7 310 132.7 310 133.38 310 134.06 310 135.17 310 135.85 310 137.02 310 137.64 310 138.81 310 139.49 310 140.6 310 141.28 310 142.39 310 143.07 310 144.18 310 144.86 310 145.97 310 146.65 310 147.76 310 148.44 310 149.56 310 150.23 310 150.97 321.61 150.97 323.27 150.97 334.88 150.97 334.88 150.23 334.88 149.56 334.88 148.44 334.88 147.76 334.88 146.65 334.88 145.97 334.88 144.86 334.88 144.18 334.88 143.07 334.88 142.39 334.88 141.28 334.88 140.6 334.88 139.49 334.88 138.81 334.88 137.64 334.88 137.02 334.88 135.85 334.88 135.17 334.88 134.06 334.88 133.38 334.88 132.7 332.84 132.7 332.84 131.15 334.88 131.15 334.88 130.35 334.88 129.67 334.88 128.56 334.88 127.88 334.88 126.77 334.88 126.09 334.88 124.98 334.88 124.3 334.88 123.19 334.88 122.51 334.88 121.4 334.88 120.72 334.88 119.61 334.88 118.93 334.88 117.82 334.88 117.14 334.88 116.03 334.88 115.35 334.88 114.23 334.88 113.56 334.88 112.88 332.84 112.88 332.84 111.27 334.88 111.27 334.88 110.53 334.88 109.85 334.88 108.74 334.88 108.06 334.88 106.89 334.88 106.27 334.88 105.1 334.88 104.42 334.88 103.31 334.88 102.63 334.88 101.52 334.88 100.83 334.88 99.72 334.88 99.05 334.88 97.93 334.88 97.25 334.88 96.14 334.88 95.46 334.88 94.35 334.88 93.67 334.88 92.99 332.84 92.99 332.84 91.39 334.88 91.39 334.88 90.65 334.88 89.97 334.88 88.86 334.88 88.18 334.88 87.06 334.88 86.39 334.88 85.28 334.88 84.59 334.88 83.48 334.88 82.81 334.88 81.63 334.88 80.95 334.88 79.84 334.88 79.16 334.88 78.05 334.88 77.37 334.88 76.26 334.88 75.58 334.88 74.47 334.88 73.79 334.88 73.11 332.84 73.11 332.84 71.5 334.88 71.5 334.88 70.76 334.88 70.08 334.88 68.97 334.88 68.29 334.88 67.18 334.88 66.5 334.88 65.39 334.88 64.71 334.88 63.6 334.88 62.92 334.88 62.06 310 62.06 310 62.92" fill="#1d1d1b"/><path d="M352.54,242h-.43V226.59h-4.82v-.31h-.24v.31h-4.26v-.31h-.25v.31h-4.26v-.31h-.37v.31h-4.26v-.31h-.25v.31h-4.82V242h-.43v.3h.25V243h.74v6.92h-.5v.31H352v-.31h-.37V243h.67v-.68h.25Zm-7.66,5.55h0v-2.41h0Zm-9.07,0h0v-2.41h0Zm0-4.57v1.18h0Zm0,6.92v-1.3h0Zm9.07,0v-1.3h0Zm0-5.74h0V243h0Z" transform="translate(0 -99.26)"/><polygon points="233.92 46.25 215.77 46.25 215.77 48.72 209.22 48.72 209.22 54.71 209.22 55.45 209.22 58.54 209.22 59.28 209.22 62.3 209.22 63.11 209.22 66.13 209.22 66.87 209.22 69.9 209.22 70.7 209.22 73.73 209.22 74.47 209.22 77.56 209.22 78.3 209.22 81.32 209.22 82.06 209.22 85.15 209.22 85.89 209.22 88.92 209.22 89.66 209.22 92.75 209.22 93.49 209.22 96.51 209.22 97.25 209.22 100.34 209.22 101.08 209.22 104.11 209.22 104.85 209.22 107.94 209.22 108.68 209.22 111.7 209.22 112.44 209.22 115.53 209.22 116.27 209.22 119.3 209.22 120.04 209.22 123.13 209.22 123.87 209.22 126.89 209.22 127.7 209.22 130.72 209.22 131.46 209.22 134.55 209.22 135.29 209.22 138.32 209.22 139.06 209.22 142.15 209.22 142.89 209.22 145.91 209.22 146.65 209.22 149.74 209.22 150.48 209.22 150.97 240.41 150.97 240.41 150.48 240.41 149.74 240.41 146.65 240.41 145.91 240.41 142.89 240.41 142.15 240.41 139.06 240.41 138.32 240.41 135.29 240.41 134.55 240.41 131.46 240.41 130.72 240.41 127.7 240.41 126.89 240.41 123.87 240.41 123.13 240.41 120.04 240.41 119.3 240.41 116.27 240.41 115.53 240.41 112.44 240.41 111.7 240.41 108.68 240.41 107.94 240.41 104.85 240.41 104.11 240.41 101.08 240.41 100.34 240.41 97.25 240.41 96.51 240.41 93.49 240.41 92.75 240.41 89.66 240.41 88.92 240.41 85.89 240.41 85.15 240.41 82.06 240.41 81.32 240.41 78.3 240.41 77.56 240.41 74.47 240.41 73.73 240.41 70.7 240.41 69.9 240.41 66.87 240.41 66.13 240.41 63.11 240.41 62.3 240.41 59.28 240.41 58.54 240.41 55.45 240.41 54.71 240.41 48.72 233.92 48.72 233.92 46.25" fill="#e1dcca"/><polygon points="700.6 56.47 672.71 56.47 672.71 58.77 662.65 58.77 662.65 64.36 662.65 65.05 662.65 67.93 662.65 68.62 662.65 71.44 662.65 72.19 662.65 75.02 662.65 75.71 662.65 78.53 662.65 79.28 662.65 82.1 662.65 82.79 662.65 85.67 662.65 86.36 662.65 89.19 662.65 89.88 662.65 92.76 662.65 93.45 662.65 96.27 662.65 96.96 662.65 99.84 662.65 100.53 662.65 103.35 662.65 104.05 662.65 106.92 662.65 107.62 662.65 110.44 662.65 111.13 662.65 114.01 662.65 114.7 662.65 117.52 662.65 118.21 662.65 121.09 662.65 121.78 662.65 124.61 662.65 125.3 662.65 128.18 662.65 128.87 662.65 131.69 662.65 132.44 662.65 135.26 662.65 135.95 662.65 138.83 662.65 139.53 662.65 142.35 662.65 143.04 662.65 145.92 662.65 146.61 662.65 149.43 662.65 150.12 662.65 153 662.65 153.69 662.65 154.16 710.57 154.16 710.57 153.69 710.57 153 710.57 150.12 710.57 149.43 710.57 146.61 710.57 145.92 710.57 143.04 710.57 142.35 710.57 139.53 710.57 138.83 710.57 135.95 710.57 135.26 710.57 132.44 710.57 131.69 710.57 128.87 710.57 128.18 710.57 125.3 710.57 124.61 710.57 121.78 710.57 121.09 710.57 118.21 710.57 117.52 710.57 114.7 710.57 114.01 710.57 111.13 710.57 110.44 710.57 107.62 710.57 106.92 710.57 104.05 710.57 103.35 710.57 100.53 710.57 99.84 710.57 96.96 710.57 96.27 710.57 93.45 710.57 92.76 710.57 89.88 710.57 89.19 710.57 86.36 710.57 85.67 710.57 82.79 710.57 82.1 710.57 79.28 710.57 78.53 710.57 75.71 710.57 75.02 710.57 72.19 710.57 71.44 710.57 68.62 710.57 67.93 710.57 65.05 710.57 64.36 710.57 58.77 700.6 58.77 700.6 56.47" fill="#e1dcca"/><polygon points="791.81 46.25 773.65 46.25 773.65 48.72 767.11 48.72 767.11 54.71 767.11 55.45 767.11 58.54 767.11 59.28 767.11 62.3 767.11 63.11 767.11 66.13 767.11 66.87 767.11 69.9 767.11 70.7 767.11 73.73 767.11 74.47 767.11 77.56 767.11 78.3 767.11 81.32 767.11 82.06 767.11 85.15 767.11 85.89 767.11 88.92 767.11 89.66 767.11 92.75 767.11 93.49 767.11 96.51 767.11 97.25 767.11 100.34 767.11 101.08 767.11 104.11 767.11 104.85 767.11 107.94 767.11 108.68 767.11 111.7 767.11 112.44 767.11 115.53 767.11 116.27 767.11 119.3 767.11 120.04 767.11 123.13 767.11 123.87 767.11 126.89 767.11 127.7 767.11 130.72 767.11 131.46 767.11 134.55 767.11 135.29 767.11 138.32 767.11 139.06 767.11 142.15 767.11 142.89 767.11 145.91 767.11 146.65 767.11 149.74 767.11 150.48 767.11 150.97 798.29 150.97 798.29 150.48 798.29 149.74 798.29 146.65 798.29 145.91 798.29 142.89 798.29 142.15 798.29 139.06 798.29 138.32 798.29 135.29 798.29 134.55 798.29 131.46 798.29 130.72 798.29 127.7 798.29 126.89 798.29 123.87 798.29 123.13 798.29 120.04 798.29 119.3 798.29 116.27 798.29 115.53 798.29 112.44 798.29 111.7 798.29 108.68 798.29 107.94 798.29 104.85 798.29 104.11 798.29 101.08 798.29 100.34 798.29 97.25 798.29 96.51 798.29 93.49 798.29 92.75 798.29 89.66 798.29 88.92 798.29 85.89 798.29 85.15 798.29 82.06 798.29 81.32 798.29 78.3 798.29 77.56 798.29 74.47 798.29 73.73 798.29 70.7 798.29 69.9 798.29 66.87 798.29 66.13 798.29 63.11 798.29 62.3 798.29 59.28 798.29 58.54 798.29 55.45 798.29 54.71 798.29 48.72 791.81 48.72 791.81 46.25" fill="#d0d1d1"/><polygon points="179.83 84.53 182.55 84.53 182.55 91.88 179.83 91.88 179.83 92.5 179.83 96.02 179.83 98.06 179.83 101.39 179.83 103.49 179.83 106.83 179.83 108.86 179.83 112.2 179.83 114.23 179.83 117.57 179.83 119.67 179.83 123 179.83 125.04 179.83 128.38 179.83 130.41 179.83 133.75 179.83 135.78 179.83 139.18 179.83 141.22 179.83 145.54 179.83 146.16 179.83 151.35 202.43 151.35 202.43 146.16 202.43 145.54 202.43 141.22 202.43 139.18 202.43 135.78 202.43 133.75 202.43 130.41 202.43 128.38 202.43 125.04 202.43 123 202.43 119.67 202.43 117.57 202.43 114.23 202.43 112.2 202.43 108.86 202.43 106.83 202.43 103.49 202.43 101.39 202.43 98.06 202.43 96.02 202.43 92.5 202.43 91.88 199.16 91.88 199.16 84.53 202.43 84.53 202.43 74.04 179.83 74.04 179.83 84.53" fill="#56b7cc"/><path d="M159.45,211.52h2.29v.87h-2.29v37.85h15.44V212.39h-2.22v-.87h2.22v-3.33H159.45Zm11.61.87h-7.72v-.87h7.72Z" transform="translate(0 -99.26)"/><polygon points="154.7 82.13 152.48 82.13 152.35 82.13 150.13 82.13 150.01 82.13 147.84 82.13 147.84 77.8 151.43 77.8 151.43 77.06 147.84 77.06 147.84 75.15 151.43 75.15 151.43 74.41 147.84 74.41 147.84 71.69 122.59 71.69 122.59 82.13 121.97 82.13 121.85 82.13 119.63 82.13 119.5 82.13 117.28 82.13 117.16 82.13 114.93 82.13 114.81 82.13 112.59 82.13 112.46 82.13 110.24 82.13 110.12 82.13 107.89 82.13 107.77 82.13 106.6 82.13 106.6 82.99 106.6 83.11 106.6 86.32 106.6 86.45 106.6 89.66 106.6 89.78 106.6 92.99 106.6 93.12 106.6 93.86 106.6 96.27 106.6 96.45 106.6 96.45 106.6 99.6 106.6 99.66 106.6 99.79 106.6 102.26 106.6 102.94 106.6 103.12 106.6 105.41 106.6 106.27 106.6 106.45 106.6 108 106.6 109.6 106.6 109.79 106.6 111.21 106.6 112.94 106.6 113.12 106.6 113.8 106.6 116.27 106.6 116.46 106.6 117.01 106.6 119.61 106.6 119.61 106.6 119.79 106.6 122.76 106.6 122.94 106.6 123.13 106.6 125.41 106.6 126.28 106.6 126.46 106.6 128.56 106.6 129.61 106.6 129.79 106.6 131.15 106.6 132.94 106.6 133.13 106.6 134.37 106.6 136.28 106.6 136.46 106.6 136.96 106.6 139.61 106.6 139.8 106.6 140.11 106.6 142.76 106.6 142.95 106.6 143.13 106.6 145.91 106.6 146.28 106.6 146.41 106.6 148.5 106.6 149.62 106.6 149.74 106.6 150.97 107.77 150.97 107.89 150.97 110.12 150.97 110.24 150.97 112.46 150.97 112.59 150.97 114.81 150.97 114.93 150.97 117.16 150.97 117.28 150.97 119.5 150.97 119.63 150.97 121.85 150.97 121.97 150.97 124.2 150.97 124.32 150.97 126.54 150.97 126.67 150.97 128.89 150.97 129.01 150.97 131.24 150.97 131.36 150.97 133.58 150.97 133.71 150.97 135.93 150.97 136.05 150.97 138.27 150.97 138.4 150.97 140.62 150.97 140.74 150.97 142.97 150.97 143.09 150.97 145.31 150.97 145.44 150.97 147.66 150.97 147.78 150.97 150.01 150.97 150.13 150.97 152.35 150.97 152.48 150.97 154.7 150.97 154.82 150.97 155.87 150.97 155.87 149.74 155.87 149.62 155.87 146.41 155.87 146.28 155.87 143.13 155.87 142.95 155.87 139.8 155.87 139.61 155.87 136.46 155.87 136.28 155.87 133.13 155.87 132.94 155.87 129.79 155.87 129.61 155.87 126.46 155.87 126.28 155.87 123.13 155.87 122.94 155.87 119.79 155.87 119.61 155.87 116.46 155.87 116.27 155.87 113.12 155.87 112.94 155.87 109.79 155.87 109.6 155.87 106.45 155.87 106.27 155.87 103.12 155.87 102.94 155.87 99.79 155.87 99.6 155.87 96.45 155.87 96.27 155.87 93.12 155.87 92.99 155.87 89.78 155.87 89.66 155.87 86.45 155.87 86.32 155.87 83.11 155.87 82.99 155.87 82.13 154.82 82.13 154.7 82.13" fill="#56b7cc"/><polygon points="304.56 55.7 305.43 55.7 304.63 53.29 304.56 53.29 284.87 53.29 284.74 53.29 284.06 55.39 283.94 55.7 283.94 55.7 283.94 57.12 283.94 57.86 283.94 60.08 283.94 60.82 283.94 63.05 283.94 63.72 283.94 65.95 283.94 66.69 283.94 68.91 283.94 69.65 283.94 71.88 283.94 72.62 283.94 74.84 283.94 75.58 283.94 77.8 283.94 78.54 283.94 80.77 283.94 81.51 283.94 83.73 283.94 84.47 283.94 86.69 283.94 87.44 283.94 89.6 283.94 90.34 283.94 92.75 283.94 93.49 283.94 95.71 283.94 96.45 283.94 98.67 283.94 99.42 283.94 101.64 283.94 102.38 283.94 104.54 283.94 105.28 283.94 107.5 283.94 108.25 283.94 110.47 283.94 111.21 283.94 113.43 283.94 114.17 283.94 116.33 283.94 117.08 283.94 119.3 283.94 120.04 283.94 122.26 283.94 123 283.94 125.23 283.94 125.91 283.94 128.13 283.94 128.87 283.94 129.24 276.1 129.24 276.1 132.7 256.95 132.7 256.95 136.71 256.95 138.25 256.95 146.47 256.95 147.95 256.95 150.97 276.1 150.97 277.64 150.97 280.42 150.97 281.16 150.97 283.94 150.97 283.94 150.97 285.24 150.97 285.54 150.97 285.85 150.97 285.85 150.97 288.38 150.97 289.13 150.97 291.78 150.97 293.32 150.97 298.88 150.97 298.88 150.97 303.51 150.97 303.51 150.97 303.88 150.97 304.19 150.97 305.43 150.97 305.43 55.7 304.56 55.7" fill="#56b7cc"/><path d="M98.08,158.36v-1.79h-2v-.68h2v-5.44H79.61v5.44h1.92v.74H79.61v3.58h-.68v90H98.69v-90H98Zm-15.56-2.47H95.24v.74H82.52Z" transform="translate(0 -99.26)" fill="#1d1d1b"/><polygon points="653.57 79.9 652.83 81.01 652.58 81.32 651.65 82.81 651.4 83.11 650.48 84.59 650.23 84.9 649.3 86.39 649.06 86.76 648.13 88.18 647.88 88.55 646.9 89.97 646.71 90.34 645.72 91.76 645.48 92.13 644.55 93.55 644.3 93.92 643.38 95.34 643.13 95.71 642.2 97.13 641.96 97.5 641.03 98.92 640.78 99.29 639.8 100.71 639.61 101.08 638.62 102.5 638.38 102.87 637.45 104.29 637.2 104.66 636.28 106.08 636.03 106.45 635.1 107.88 634.86 108.25 633.93 109.67 633.68 110.04 633.44 110.41 633.44 151.72 632.14 151.72 632.14 153.01 632.14 153.44 632.14 154.74 653.57 154.74 653.57 79.9" fill="#56b7cc"/><rect x="365.76" y="150.85" width="1.98" height="0.06" fill="#1d1d1b"/><rect x="365.94" y="150.79" width="1.61" height="0.06" fill="#1d1d1b"/><rect x="366.06" y="150.73" width="1.36" height="0.06" fill="#1d1d1b"/><rect x="365.76" y="148.2" width="1.98" height="0.06" fill="#1d1d1b"/><rect x="365.94" y="148.13" width="1.61" height="0.06" fill="#1d1d1b"/><rect x="366.06" y="148.01" width="1.36" height="0.06" fill="#1d1d1b"/><path d="M366.74,247.09c1.12.43.68,2.84.68,2.84l-.61.06h-.07l-.61-.06C366.06,250,365.63,247.52,366.74,247.09Z" transform="translate(0 -99.26)" fill="#1d1d1b"/><rect x="366.43" y="138.87" width="0.56" height="9.57" fill="#1d1d1b"/><rect x="366.06" y="138.75" width="1.3" height="0.12" fill="#1d1d1b"/><path d="M366.13,234.55l-.93,1,.93,2.47h1.17l.93-2.41-1-1a.67.67,0,0,0-.5-.19v-.37c0-.12,0-.06.07-.12-.13,0-.13-.19-.13-.19s-.06.19-.12.19.06.06.06.12v.37A.55.55,0,0,0,366.13,234.55Zm1.05,3.4.3-2.53.68.18-.92,2.35Zm-1.24-2.53.31,2.53h-.12l-.87-2.35Zm.12,0h1.36l-.31,2.59h-.8Z" transform="translate(0 -99.26)" fill="#1d1d1b"/><rect x="513.27" y="150.85" width="1.98" height="0.06" fill="#1d1d1b"/><rect x="513.46" y="150.79" width="1.61" height="0.06" fill="#1d1d1b"/><rect x="513.58" y="150.73" width="1.36" height="0.06" fill="#1d1d1b"/><rect x="602.47" y="148.2" width="1.98" height="0.06" fill="#1d1d1b"/><rect x="602.65" y="148.13" width="1.61" height="0.06" fill="#1d1d1b"/><rect x="602.78" y="148.01" width="1.36" height="0.06" fill="#1d1d1b"/><path d="M603.46,247.09c1.11.43.68,2.84.68,2.84l-.62.06h-.06l-.62-.06C602.84,250,602.35,247.52,603.46,247.09Z" transform="translate(0 -99.26)" fill="#1d1d1b"/><rect x="603.21" y="138.87" width="0.56" height="9.57" fill="#1d1d1b"/><rect x="602.84" y="138.75" width="1.3" height="0.12" fill="#1d1d1b"/><path d="M602.9,234.55l-.93,1,.93,2.47h1.17l.93-2.41-1-1a.65.65,0,0,0-.49-.19v-.37c0-.12,0-.06.06-.12-.12,0-.12-.19-.12-.19s-.07.19-.13.19.06.06.06.12v.37A1.18,1.18,0,0,0,602.9,234.55ZM604,238l.31-2.53.68.18Zm-1.23-2.53L603,238h-.12L602,235.6Zm.06,0h1.36l-.31,2.59h-.74Z" transform="translate(0 -99.26)" fill="#1d1d1b"/><path d="M351.74,243l-.06.06s0,0,.05-.06Z" transform="translate(0 -99.26)" fill="#00a499"/><path d="M353.41,245.67a2,2,0,0,1,1.54.55,14.52,14.52,0,0,0-.12-2.28,1.61,1.61,0,0,0-1.24-1.24,2.66,2.66,0,0,0-1.91.31,2.91,2.91,0,0,1,1.36-.37c-1.55-.18-1.8-.74-1.67-1.42.06.5,0,1.11,1.48,1.3a3.81,3.81,0,0,1,1.85.62,4.65,4.65,0,0,0-.68-1.86,3.09,3.09,0,0,0-3.33-1.35,3.27,3.27,0,0,1,3.58,1.42,7.48,7.48,0,0,1,.8,2,2.4,2.4,0,0,1,.5-1.17,3.27,3.27,0,0,1,1.85-1.3,2.86,2.86,0,0,0-2.1,3v.8a6.17,6.17,0,0,1,.06,1v.06a4.94,4.94,0,0,1,1.73-2l.19-.12a1.7,1.7,0,0,0,.3-.62,1.74,1.74,0,0,0-.12-1.36,2.09,2.09,0,0,1,0,1.92,5.28,5.28,0,0,1,2.22-.62,4.58,4.58,0,0,0-3.95,2.9c-.55,1.3.13,4.39.13,4.39H354.7a20.81,20.81,0,0,0,.25-2.84,1.46,1.46,0,0,0-1.67-1.55c-1.91-.06-2.47-.92-3.08-1.11A6.29,6.29,0,0,0,353.41,245.67Z" transform="translate(0 -99.26)" fill="#00a499"/><path d="M349,241.53a2,2,0,0,1,1.05-1.67,2.13,2.13,0,0,1-.12-.61,1.79,1.79,0,0,1,1.79-1.79h0a1.84,1.84,0,0,1,.8.18A1.8,1.8,0,0,1,355,237h0l.06.07a1.61,1.61,0,0,1,.93-.25,10.38,10.38,0,0,1,3.21,3.15v.06a1.79,1.79,0,0,1,1.24,2.22,1.82,1.82,0,0,1-1.05,1.18v.3a1.8,1.8,0,0,1-1.8,1.79h0a.92.92,0,0,1-.43-.06,1.85,1.85,0,0,1-1.36.62,2.13,2.13,0,0,1-.61-.12,2,2,0,0,1-1.36.61,1.91,1.91,0,0,1-1.55-.86,1.62,1.62,0,0,1-1.17.43,1.89,1.89,0,0,1-1.85-1.79,1.82,1.82,0,0,1,.55-1.3A1.86,1.86,0,0,1,349,241.53Z" transform="translate(0 -99.26)" fill="#00a499"/><path d="M349,240.67a1.87,1.87,0,0,1,1.24-1.55,1.74,1.74,0,0,1,1.9-2.22h0a2.4,2.4,0,0,1,.74.25,1.79,1.79,0,0,1,2.5-.4h0a.06.06,0,0,1,.06.05h0a2.43,2.43,0,0,1,.92-.18,1.77,1.77,0,0,1,1.61,1.54,1.82,1.82,0,0,1,1.3,1.92v.06a1.79,1.79,0,0,1,1,2.33h0a1.86,1.86,0,0,1-1.11,1v.31a1.89,1.89,0,0,1-2,1.66h0a1.16,1.16,0,0,1-.44-.12,1.79,1.79,0,0,1-2,.31,4.93,4.93,0,0,0-4.08-.25,1.85,1.85,0,0,1-1.64-2,1.89,1.89,0,0,1,.59-1.17A1.85,1.85,0,0,1,349,240.67Z" transform="translate(0 -99.26)" fill="#00a499"/><path d="M669.88,240.67a1.87,1.87,0,0,1,1.24-1.55,2.11,2.11,0,0,1-.06-.61,1.8,1.8,0,0,1,2-1.61h0a2.59,2.59,0,0,1,.74.25,1.79,1.79,0,0,1,2.5-.4h0a.06.06,0,0,1,.06.05h0a2.44,2.44,0,0,1,.93-.18,1.76,1.76,0,0,1,1.6,1.54,1.81,1.81,0,0,1,1.3,1.92v.06a1.79,1.79,0,0,1,1,2.33h0a1.9,1.9,0,0,1-1.12,1v.31a1.88,1.88,0,0,1-2,1.66h0a1.06,1.06,0,0,1-.43-.12,1.81,1.81,0,0,1-2,.31,4.91,4.91,0,0,0-4.07-.25,1.85,1.85,0,0,1-1.05-3.21A1.86,1.86,0,0,1,669.88,240.67Z" transform="translate(0 -99.26)" fill="#00a499"/><path d="M295,247.83a1.17,1.17,0,0,1,.87.31,8.1,8.1,0,0,0-.07-1.3.85.85,0,0,0-.67-.68,1.62,1.62,0,0,0-1.12.19c.13-.25.62-.25.81-.25-.87-.12-1-.43-.93-.8,0,.24,0,.62.86.74a1.64,1.64,0,0,1,1.05.37,2.81,2.81,0,0,0-.37-1,1.73,1.73,0,0,0-1.85-.74,1.85,1.85,0,0,1,2,.8,4.06,4.06,0,0,1,.43,1.11,2.31,2.31,0,0,1,.25-.68,1.89,1.89,0,0,1,1-.74,1.6,1.6,0,0,0-1.17,1.67v.49a2.15,2.15,0,0,1,0,.62h0a2.45,2.45,0,0,1,1-1.11l.13-.06.18-.37a1,1,0,0,0-.06-.74c.19.12.19.86,0,1.11a2.81,2.81,0,0,1,1.24-.31,2.57,2.57,0,0,0-2.23,1.6,6,6,0,0,0,.06,2.47h-.61a14.18,14.18,0,0,0,.12-1.6c0-.25-.06-.87-.93-.87a3,3,0,0,1-1.73-.61A3.77,3.77,0,0,0,295,247.83Z" transform="translate(0 -99.26)"/><path d="M292.58,245.54a1,1,0,0,1,.62-.92.8.8,0,0,1-.06-.37,1,1,0,0,1,1-1.05h0a1.11,1.11,0,0,1,.43.12A1.09,1.09,0,0,1,296,243h.06a1.41,1.41,0,0,1,.5-.12,5.85,5.85,0,0,1,1.85,1.79v.06a1,1,0,0,1,.67,1.27,1,1,0,0,1-.61.64v.19a1,1,0,0,1-1,1.05h0a.37.37,0,0,1-.25-.06,1.67,1.67,0,0,1-.74.37.8.8,0,0,1-.37-.06,1,1,0,0,1-1.4.14h0c-.06-.06-.18-.19-.18-.25a1,1,0,0,1-.68.25,1,1,0,0,1-1-1,1.13,1.13,0,0,1,.31-.74A1.17,1.17,0,0,1,292.58,245.54Z" transform="translate(0 -99.26)"/><path d="M558.26,243l-.07.06a.06.06,0,0,1,0-.06Z" transform="translate(0 -99.26)" fill="#00a499"/><path d="M559.92,245.67a2.07,2.07,0,0,1,1.55.55c0-.74-.06-1.54-.13-2.28a1.58,1.58,0,0,0-1.23-1.24,2.68,2.68,0,0,0-1.92.31,3,3,0,0,1,1.43-.37c-1.55-.18-1.8-.74-1.67-1.42.06.5,0,1.11,1.48,1.3a3.81,3.81,0,0,1,1.85.62,4.65,4.65,0,0,0-.68-1.86,3.09,3.09,0,0,0-3.33-1.35,3.27,3.27,0,0,1,3.58,1.42,7.48,7.48,0,0,1,.8,2,2.71,2.71,0,0,1,.5-1.17,3.27,3.27,0,0,1,1.85-1.3,2.86,2.86,0,0,0-2.1,3v.8a6.17,6.17,0,0,1,.06,1v.06a4.94,4.94,0,0,1,1.73-2l.19-.12a1.88,1.88,0,0,0,.3-.62,1.74,1.74,0,0,0-.12-1.36,2.09,2.09,0,0,1,0,1.92,5.65,5.65,0,0,1,2.16-.62,4.65,4.65,0,0,0-4,2.9c-.56,1.3.12,4.39.12,4.39h-1.17a22.52,22.52,0,0,0,.25-2.84,1.46,1.46,0,0,0-1.67-1.55c-1.91-.06-2.47-.92-3.09-1.11A6.37,6.37,0,0,0,559.92,245.67Z" transform="translate(0 -99.26)"/><path d="M555.54,240.67a1.87,1.87,0,0,1,1.23-1.55,2.11,2.11,0,0,1-.06-.61,1.8,1.8,0,0,1,2-1.61h0a1.49,1.49,0,0,1,.74.25,1.79,1.79,0,0,1,2.5-.4h0a.07.07,0,0,1,.07.05h0a1.78,1.78,0,0,1,2.38.81h0v.06l.19.55a1.86,1.86,0,0,1,1.29,1.92v.06a1.85,1.85,0,0,1,1,2.35,1.69,1.69,0,0,1-1.17,1.05v.3a1.8,1.8,0,0,1-2,1.61h0a1.25,1.25,0,0,1-.43-.12,1.71,1.71,0,0,1-1.42.49,1.32,1.32,0,0,1-.62-.18,4.93,4.93,0,0,0-4.08-.25,1.85,1.85,0,0,1-1.05-3.21A1.93,1.93,0,0,1,555.54,240.67Z" transform="translate(0 -99.26)"/><path d="M401.51,243l-.06.06Z" transform="translate(0 -99.26)" fill="#00a499"/><path d="M403.24,245.67a2,2,0,0,1,1.54.55,14.52,14.52,0,0,0-.12-2.28,1.61,1.61,0,0,0-1.24-1.24,2.66,2.66,0,0,0-1.91.31,2.92,2.92,0,0,1,1.42-.37c-1.55-.18-1.79-.74-1.73-1.42.06.5,0,1.11,1.48,1.3a3.81,3.81,0,0,1,1.85.62,4.65,4.65,0,0,0-.68-1.86,3.09,3.09,0,0,0-3.33-1.35,3.26,3.26,0,0,1,3.58,1.42,7.48,7.48,0,0,1,.8,2,2.4,2.4,0,0,1,.5-1.17,3.27,3.27,0,0,1,1.85-1.3,2.87,2.87,0,0,0-2.1,3v.8a6.17,6.17,0,0,1,.06,1v.06a5,5,0,0,1,1.73-2l.19-.12a1.9,1.9,0,0,0,.31-.62,1.79,1.79,0,0,0-.13-1.36,2.09,2.09,0,0,1,0,1.92,5.65,5.65,0,0,1,2.16-.62,4.65,4.65,0,0,0-4,2.9c-.55,1.3.13,4.39.13,4.39h-1.18a20.81,20.81,0,0,0,.25-2.84,1.46,1.46,0,0,0-1.67-1.55c-1.91-.06-2.47-.92-3.09-1.11A6.9,6.9,0,0,0,403.24,245.67Z" transform="translate(0 -99.26)" fill="#00a499"/><path d="M398.91,241.53a2,2,0,0,1,1-1.67,2.54,2.54,0,0,1-.12-.61,3.7,3.7,0,0,1,4.67-2.38l.09,0c.12.06.3.12.43.19a1.68,1.68,0,0,1,.92-.25,10.27,10.27,0,0,1,3.21,3.15v.06a1.72,1.72,0,0,1,1.28,2.07h0a.83.83,0,0,1,0,.15,1.7,1.7,0,0,1-1,1.18v.3a1.79,1.79,0,0,1-1.79,1.79h0a.9.9,0,0,1-.43-.06,10.86,10.86,0,0,0-3.34,1.11,1.81,1.81,0,0,0-2.46-.68h0a.69.69,0,0,0-.24.18,1.9,1.9,0,0,1-1.86-1.79,1.79,1.79,0,0,1,.56-1.3A1.56,1.56,0,0,1,398.91,241.53Z" transform="translate(0 -99.26)" fill="#00a499"/><path d="M538.74,245.67a2.05,2.05,0,0,1,1.55.55,13.42,13.42,0,0,0-.13-2.28,1.58,1.58,0,0,0-1.23-1.24A2.66,2.66,0,0,0,537,243a2.91,2.91,0,0,1,1.35-.37c-1.54-.18-1.79-.74-1.66-1.42.06.5,0,1.11,1.48,1.3a3.81,3.81,0,0,1,1.85.62,4.65,4.65,0,0,0-.68-1.86,3.09,3.09,0,0,0-3.33-1.35,3.32,3.32,0,0,1,3.58,1.42,8.23,8.23,0,0,1,.8,2,2.4,2.4,0,0,1,.5-1.17,3.27,3.27,0,0,1,1.85-1.3,2.94,2.94,0,0,0-2.1,3v.8a6.17,6.17,0,0,1,.06,1v.06a4.87,4.87,0,0,1,1.73-2l.18-.12a1.72,1.72,0,0,0,.31-.62,1.74,1.74,0,0,0-.12-1.36,2.09,2.09,0,0,1,0,1.92A5.65,5.65,0,0,1,545,243a4.56,4.56,0,0,0-4,2.9c-.56,1.3.12,4.39.12,4.39H540a22.52,22.52,0,0,0,.25-2.84,1.46,1.46,0,0,0-1.67-1.55c-1.92-.06-2.47-.92-3.09-1.11A6.89,6.89,0,0,0,538.74,245.67Z" transform="translate(0 -99.26)" fill="#00a499"/><path d="M537.08,243l-.06.06s0,0,0-.06Z" transform="translate(0 -99.26)" fill="#00a499"/><path d="M534.42,241.53a2,2,0,0,1,1.05-1.67,2.13,2.13,0,0,1-.12-.61,1.79,1.79,0,0,1,1.79-1.79h0a1.84,1.84,0,0,1,.8.18,1.8,1.8,0,0,1,2.47-.62h0l.06.07a1.61,1.61,0,0,1,.93-.25,10.38,10.38,0,0,1,3.21,3.15v.06a1.72,1.72,0,0,1,1.28,2.07h0s0,.1,0,.15a1.73,1.73,0,0,1-1.05,1.18v.3a1.8,1.8,0,0,1-1.8,1.79h0a.92.92,0,0,1-.43-.06,10.89,10.89,0,0,0-3.33,1.11,1.82,1.82,0,0,0-2.47-.68h0a.64.64,0,0,0-.25.18,1.89,1.89,0,0,1-1.85-1.79,1.82,1.82,0,0,1,.55-1.3A1.59,1.59,0,0,1,534.42,241.53Z" transform="translate(0 -99.26)" fill="#00a499"/><path d="M534.36,240.67a1.8,1.8,0,0,1,1.24-1.55,1.74,1.74,0,0,1,1.9-2.22h0a2.4,2.4,0,0,1,.74.25,1.79,1.79,0,0,1,2.47-.4h0a.07.07,0,0,1,.07.05h0a2.39,2.39,0,0,1,.92-.18,1.78,1.78,0,0,1,1.61,1.54,1.8,1.8,0,0,1,1.29,1.92v.06a1.79,1.79,0,0,1,1.06,2.3l0,.07h0a1.86,1.86,0,0,1-1.11,1v.31a1.89,1.89,0,0,1-2,1.66h0a1.11,1.11,0,0,1-.43-.12,1.79,1.79,0,0,1-2,.31,4.91,4.91,0,0,0-4.07-.25,1.8,1.8,0,0,1-1.61-2h0a1.86,1.86,0,0,1,.62-1.23A1.69,1.69,0,0,1,534.36,240.67Z" transform="translate(0 -99.26)" fill="#00a499"/><path d="M220.52,244.62l-.06.06Z" transform="translate(0 -99.26)" fill="#00a499"/><path d="M229.45,247a1.81,1.81,0,0,1,1.35.49,10.13,10.13,0,0,0-.12-2,1.39,1.39,0,0,0-1.11-1,2.49,2.49,0,0,0-1.61.25,2.22,2.22,0,0,1,1.18-.31c-1.3-.12-1.55-.62-1.48-1.23.06.43,0,.92,1.29,1.11a2.68,2.68,0,0,1,1.61.55,4.85,4.85,0,0,0-.56-1.6,2.73,2.73,0,0,0-2.84-1.17,2.81,2.81,0,0,1,3.09,1.23,6.3,6.3,0,0,1,.68,1.73,2.81,2.81,0,0,1,.37-1.05,2.71,2.71,0,0,1,1.6-1.11,2.48,2.48,0,0,0-1.79,2.53V246c0,.31.06.62.06.93V247a3.88,3.88,0,0,1,1.49-1.67l.12-.12a1,1,0,0,0,.25-.56,1.59,1.59,0,0,0-.13-1.17c.25.18.25,1.29,0,1.66a4.27,4.27,0,0,1,1.92-.49,3.91,3.91,0,0,0-3.4,2.47c-.49,1.11.13,3.77.13,3.77H230.5c.12-.81.18-1.61.24-2.41a1.32,1.32,0,0,0-1.23-1.37h-.18a4.89,4.89,0,0,1-2.66-1A5.72,5.72,0,0,0,229.45,247Z" transform="translate(0 -99.26)" fill="#00a499"/><path d="M225.68,243.38a1.55,1.55,0,0,1,.93-1.42,1.48,1.48,0,0,1-.13-.55,1.55,1.55,0,0,1,1.52-1.55h0a2.28,2.28,0,0,1,.68.13,1.6,1.6,0,0,1,2.16-.56l.06.06a4.77,4.77,0,0,1,3.58,2.54v.06a1.55,1.55,0,0,1,1.05,1.91,1.58,1.58,0,0,1-.92,1v.25a1.54,1.54,0,0,1-1.52,1.54h0a.76.76,0,0,1-.37-.06,1.58,1.58,0,0,1-1.67.43,1.55,1.55,0,0,1-2.16.19,2.17,2.17,0,0,1-.31-.37,1.58,1.58,0,0,1-2.16-2.29A1.5,1.5,0,0,1,225.68,243.38Z" transform="translate(0 -99.26)" fill="#00a499"/><rect x="204.9" y="150.85" width="1.98" height="0.06" fill="#3c3c3b"/><rect x="205.09" y="150.79" width="1.61" height="0.06" fill="#3c3c3b"/><rect x="205.21" y="150.73" width="1.36" height="0.06" fill="#3c3c3b"/><rect x="204.9" y="148.2" width="1.98" height="0.06" fill="#3c3c3b"/><rect x="205.09" y="148.13" width="1.61" height="0.06" fill="#3c3c3b"/><rect x="205.21" y="148.01" width="1.36" height="0.06" fill="#3c3c3b"/><path d="M205.83,247.09c1.11.43.68,2.84.68,2.84l-.62.06h-.06l-.62-.06C205.21,250,204.72,247.52,205.83,247.09Z" transform="translate(0 -99.26)" fill="#3c3c3b"/><rect x="205.58" y="138.87" width="0.56" height="9.57" fill="#3c3c3b"/><rect x="205.21" y="138.75" width="1.3" height="0.12" fill="#3c3c3b"/><path d="M205.27,234.55l-1,1,1,2.47h1.17l1-2.41-1-1a.65.65,0,0,0-.49-.19v-.37c0-.12.06-.06.06-.12s-.12-.19-.12-.19-.06.19-.12.19.06.06.06.12v.37A.57.57,0,0,0,205.27,234.55Zm1,3.4.31-2.53.68.18-.93,2.35Zm-1.23-2.53.3,2.53h-.12l-.86-2.35Zm.06,0h1.36L206.2,238h-.74Z" transform="translate(0 -99.26)" fill="#3c3c3b"/><path d="M178.41,243a.06.06,0,0,0-.06.05h0a.06.06,0,0,1,.05-.06Z" transform="translate(0 -99.26)" fill="#00a499"/><path d="M180.08,245.67a2.27,2.27,0,0,1,1.6.55,14.52,14.52,0,0,0-.12-2.28,1.6,1.6,0,0,0-1.24-1.24,2.66,2.66,0,0,0-1.91.31,3,3,0,0,1,1.36-.37c-1.54-.18-1.79-.74-1.67-1.42.06.5,0,1.11,1.48,1.3a3.89,3.89,0,0,1,1.86.62,5,5,0,0,0-.68-1.86,3.1,3.1,0,0,0-3.34-1.35,3.26,3.26,0,0,1,3.58,1.42,7.87,7.87,0,0,1,.81,2,3.51,3.51,0,0,1,.43-1.17,3.64,3.64,0,0,1,1.85-1.3,2.87,2.87,0,0,0-2.1,3v.8a6.17,6.17,0,0,1,.06,1v.06a5,5,0,0,1,1.73-2l.19-.12a1.9,1.9,0,0,0,.31-.62,1.79,1.79,0,0,0-.13-1.36,2.31,2.31,0,0,1,.07,1.92,5.2,5.2,0,0,1,2.22-.62,4.56,4.56,0,0,0-3.95,2.9c-.56,1.3.12,4.39.12,4.39h-1.17a22.51,22.51,0,0,0,.24-2.84,1.45,1.45,0,0,0-1.66-1.55c-1.92-.06-2.47-.92-3.09-1.11A5.81,5.81,0,0,0,180.08,245.67Z" transform="translate(0 -99.26)"/><path d="M175.76,241.53a1.93,1.93,0,0,1,1.05-1.67,2.15,2.15,0,0,1-.13-.61,1.79,1.79,0,0,1,1.79-1.79h0a1.91,1.91,0,0,1,.81.18,1.79,1.79,0,0,1,2.46-.62h0l.06.07a1.58,1.58,0,0,1,.92-.25,1.84,1.84,0,0,1,1.79,1.42,1.86,1.86,0,0,1,1.49,1.79v.06a1.8,1.8,0,0,1,.18,3.4.57.57,0,0,0,.06.31,1.79,1.79,0,0,1-1.79,1.79h0a.93.93,0,0,1-.43-.07,1.75,1.75,0,0,1-1.36.62,2.2,2.2,0,0,1-.62-.12,1.94,1.94,0,0,1-1.35.62,1.91,1.91,0,0,1-1.55-.87,1.59,1.59,0,0,1-1.17.43,1.88,1.88,0,0,1-1.85-1.79,1.78,1.78,0,0,1,.55-1.29A1.86,1.86,0,0,1,175.76,241.53Z" transform="translate(0 -99.26)"/><path d="M74.18,243l-.06.06Z" transform="translate(0 -99.26)" fill="#00a499"/><path d="M75.91,245.67a2,2,0,0,1,1.54.55c0-.74-.06-1.54-.12-2.28a1.6,1.6,0,0,0-1.24-1.24,2.66,2.66,0,0,0-1.91.31,2.92,2.92,0,0,1,1.42-.37c-1.54-.18-1.79-.74-1.73-1.42.06.5,0,1.11,1.48,1.3a3.81,3.81,0,0,1,1.85.62,4.79,4.79,0,0,0-.67-1.86,3.1,3.1,0,0,0-3.34-1.35,3.26,3.26,0,0,1,3.58,1.42,7.87,7.87,0,0,1,.81,2,2.81,2.81,0,0,1,.49-1.17,3.3,3.3,0,0,1,1.85-1.3,2.88,2.88,0,0,0-2.1,3v.8a6.17,6.17,0,0,1,.06,1v.06a5,5,0,0,1,1.73-2l.19-.12a1.9,1.9,0,0,0,.31-.62,1.75,1.75,0,0,0-.13-1.36,2.09,2.09,0,0,1,0,1.92,5.65,5.65,0,0,1,2.16-.62,4.65,4.65,0,0,0-4,2.9c-.55,1.3.13,4.39.13,4.39H77.2a20.81,20.81,0,0,0,.25-2.84,1.46,1.46,0,0,0-1.67-1.55c-1.91-.06-2.47-.92-3.08-1.11A6.08,6.08,0,0,0,75.91,245.67Z" transform="translate(0 -99.26)" fill="#00a499"/><path d="M71.52,241.53a2,2,0,0,1,1-1.67,2.13,2.13,0,0,1-.12-.61,1.79,1.79,0,0,1,1.79-1.79h0a1.84,1.84,0,0,1,.8.18,1.8,1.8,0,0,1,2.47-.62h0l.07.07a1.58,1.58,0,0,1,.92-.25,1.85,1.85,0,0,1,1.79,1.42,1.84,1.84,0,0,1,1.48,1.79v.06a1.8,1.8,0,0,1,.19,3.4v.31a1.85,1.85,0,0,1-1.79,1.85h0a1,1,0,0,1-.43-.06,1.82,1.82,0,0,1-2,.49,1.78,1.78,0,0,1-2.47.22l0,0a1,1,0,0,1-.37-.5,1.58,1.58,0,0,1-1.17.43,1.88,1.88,0,0,1-1.85-1.79,2,2,0,0,1,.49-1.29A2,2,0,0,1,71.52,241.53Z" transform="translate(0 -99.26)" fill="#00a499"/><path d="M71.46,240.67a1.87,1.87,0,0,1,1.24-1.55,2.11,2.11,0,0,1-.06-.61,1.8,1.8,0,0,1,2-1.61h0a1.52,1.52,0,0,1,.74.25,1.79,1.79,0,0,1,2.5-.4h0a.06.06,0,0,1,.06.05h0a1.86,1.86,0,0,1,2.41.87,1.18,1.18,0,0,1,.12.49,1.85,1.85,0,0,1,1.3,1.92v.06a1.8,1.8,0,0,1,1.05,2.3l0,.07h0a1.67,1.67,0,0,1-1.17,1v.31a1.8,1.8,0,0,1-2,1.6h0a1.06,1.06,0,0,1-.43-.12,1.67,1.67,0,0,1-1.42.49,1.24,1.24,0,0,1-.62-.18,1.77,1.77,0,0,1-2.5,0h0a1.57,1.57,0,0,1-.31-.49,1.85,1.85,0,0,1-2.53-.43,1.76,1.76,0,0,1,.31-2.41A1.92,1.92,0,0,1,71.46,240.67Z" transform="translate(0 -99.26)" fill="#00a499"/><path d="M163.47,248.14a1.44,1.44,0,0,1,.86.31,9.36,9.36,0,0,0-.06-1.3.88.88,0,0,0-.68-.68,1.55,1.55,0,0,0-1.11.19c.12-.19.62-.25.8-.25-.86-.12-1-.43-.92-.8,0,.24,0,.61.86.74a1.68,1.68,0,0,1,1.05.37,3,3,0,0,0-.37-1.05,1.65,1.65,0,0,0-1.85-.74,1.86,1.86,0,0,1,2,.8,4.41,4.41,0,0,1,.43,1.11,2,2,0,0,1,.24-.68,1.93,1.93,0,0,1,1.05-.74,1.6,1.6,0,0,0-1.17,1.67v.49c0,.19.06.43.06.62h0a2.48,2.48,0,0,1,1-1.11l.12-.06.19-.37a1,1,0,0,0-.06-.74c.18.12.18.86,0,1.11a3.8,3.8,0,0,1,1.23-.37,2.55,2.55,0,0,0-2.22,1.6,6,6,0,0,0,.06,2.47h-.68a14.37,14.37,0,0,0,.13-1.6.81.81,0,0,0-.93-.87,2.94,2.94,0,0,1-1.73-.62A3,3,0,0,0,163.47,248.14Z" transform="translate(0 -99.26)" fill="#00a499"/><path d="M161.06,245.85a1,1,0,0,1,.62-.92.69.69,0,0,1-.06-.37,1,1,0,0,1,1-1h.06a1.11,1.11,0,0,1,.44.12,1,1,0,0,1,.86-.49.87.87,0,0,1,.56.18,1.36,1.36,0,0,1,.49-.12,5.65,5.65,0,0,1,1.85,1.79h0a1,1,0,0,1,.67,1.27,1,1,0,0,1-.6.65v.18a1,1,0,0,1-1,1h0a.36.36,0,0,1-.25-.06,1,1,0,0,1-.74.37.78.78,0,0,1-.37-.06,1,1,0,0,1-.8.37,1,1,0,0,1-.87-.5.9.9,0,0,1-.68.25,1,1,0,0,1-1.05-1,1.15,1.15,0,0,1,.31-.74A2.3,2.3,0,0,1,161.06,245.85Z" transform="translate(0 -99.26)" fill="#00a499"/><path d="M235,240.6l-.12.13C235,240.67,235,240.6,235,240.6Z" transform="translate(0 -99.26)" fill="#00a499"/><path d="M237.32,244.19a2.91,2.91,0,0,1,2.1.74c0-1.05-.06-2-.13-3.09a2.2,2.2,0,0,0-1.66-1.61,3.86,3.86,0,0,0-2.53.37,2.82,2.82,0,0,1,1.85-.49c-2-.25-2.41-1-2.29-1.85.07.62,0,1.42,2,1.73a4.57,4.57,0,0,1,2.47.86,6.56,6.56,0,0,0-.93-2.53,4.07,4.07,0,0,0-4.44-1.79,4.33,4.33,0,0,1,4.75,1.91,10.68,10.68,0,0,1,1,2.66,4.06,4.06,0,0,1,.62-1.61,4.71,4.71,0,0,1,2.47-1.73,3.78,3.78,0,0,0-2.78,4v1.11a11.16,11.16,0,0,1,.06,1.42v.06a6.17,6.17,0,0,1,2.29-2.59.88.88,0,0,1,.24-.19,2.13,2.13,0,0,0,.37-.86c.19-.68.13-1.55-.18-1.79.43.3.43,2,.06,2.59a8.14,8.14,0,0,1,2.9-.8,6.32,6.32,0,0,0-5.31,3.83c-.74,1.66.13,5.86.13,5.86h-1.55c.13-.12.19-2.28.37-3.77a1.94,1.94,0,0,0-2.22-2c-2.53-.06-3.33-1.24-4.08-1.49C233.61,243.07,235.16,244.31,237.32,244.19Z" transform="translate(0 -99.26)"/><path d="M231.51,238.63a2.52,2.52,0,0,1,1.42-2.22,2.14,2.14,0,0,1-.12-.87,2.38,2.38,0,0,1,2.33-2.41h.08a2.14,2.14,0,0,1,1.05.25,2.4,2.4,0,0,1,2.1-1.17,2.09,2.09,0,0,1,1.36.43,2.4,2.4,0,0,1,3.27.8,3.47,3.47,0,0,1,.31.68,2.51,2.51,0,0,1,2,2.41v.06a2.41,2.41,0,0,1,1.67,3,2.34,2.34,0,0,1-1.42,1.54c0,.12.06.25.06.37a2.37,2.37,0,0,1-2.33,2.41h-.08a2.11,2.11,0,0,1-.61-.06,2.49,2.49,0,0,1-1.79.8,3.78,3.78,0,0,1-.81-.12,2.37,2.37,0,0,1-3.89-.38,2.36,2.36,0,0,1-4-1.79,2.35,2.35,0,0,1,.68-1.66A2.07,2.07,0,0,1,231.51,238.63Z" transform="translate(0 -99.26)"/><path d="M112.45,245.67a2.31,2.31,0,0,1,1.61.55c0-.74-.07-1.54-.13-2.28a1.58,1.58,0,0,0-1.23-1.24,2.68,2.68,0,0,0-1.92.31,3,3,0,0,1,1.42-.37c-1.54-.18-1.79-.74-1.72-1.42.06.5,0,1.11,1.48,1.3a3.85,3.85,0,0,1,1.85.62,4.8,4.8,0,0,0-.68-1.86,3.09,3.09,0,0,0-3.33-1.35,3.27,3.27,0,0,1,3.58,1.42,6,6,0,0,1,.74,2,2.81,2.81,0,0,1,.49-1.17,3.3,3.3,0,0,1,1.85-1.3,2.86,2.86,0,0,0-2.09,3v.8a6.17,6.17,0,0,1,.06,1v.06a4.87,4.87,0,0,1,1.73-2l.18-.12a2.12,2.12,0,0,0,.31-.62,1.79,1.79,0,0,0-.12-1.36,2.09,2.09,0,0,1,0,1.92,5.2,5.2,0,0,1,2.22-.62,4.76,4.76,0,0,0-4,2.9c-.56,1.3.12,4.39.12,4.39h-1.16a22.52,22.52,0,0,0,.25-2.84,1.46,1.46,0,0,0-1.67-1.55c-1.91-.06-2.47-.92-3.09-1.11A6.25,6.25,0,0,0,112.45,245.67Z" transform="translate(0 -99.26)"/><path d="M108.51,243l-.06.06a0,0,0,0,0,.06,0Z" transform="translate(0 -99.26)" fill="#00a499"/><path d="M109.63,241.53a1.82,1.82,0,0,1,1.11-1.67,2.13,2.13,0,0,1-.12-.61,1.79,1.79,0,0,1,1.79-1.79,1.84,1.84,0,0,1,.8.18,1.8,1.8,0,0,1,2.47-.62h0l.06.07a1.61,1.61,0,0,1,.93-.25,1.71,1.71,0,0,1,1.73,1.42,1.85,1.85,0,0,1,1.48,1.79v.06a1.8,1.8,0,0,1,.18,3.4v.31a1.84,1.84,0,0,1-1.79,1.85h-.06a1.07,1.07,0,0,1-.43-.06,1.81,1.81,0,0,1-2,.49,1.77,1.77,0,0,1-2.47.22l0,0a.92.92,0,0,1-.37-.5,1.6,1.6,0,0,1-1.18.43,1.88,1.88,0,0,1-1.85-1.79,2,2,0,0,1,.49-1.29A2.34,2.34,0,0,1,109.63,241.53Z" transform="translate(0 -99.26)"/><rect y="153.45" width="800" height="6.79" fill="#00a499"/><path d="M270.35,246.16c-.86,0-1.79.06-2.65.13a.46.46,0,0,0-.25.49,3,3,0,0,1-.06.74.41.41,0,0,0-.37.43c-.06.37-.31.87,1.17,1s2.1.19,2.1.19a1.72,1.72,0,0,1,1.73-1.67h0c1.67.06,1.36,2,1.36,2l7.72-.12.25-.25v-.12a1.55,1.55,0,0,1,1.54-1.54c1.54,0,1.3,1.73,1.3,1.73h1.23c.25,0,.56-.5.49-.74s-.12-.44-.43-.5a2.24,2.24,0,0,0-.24-.55c-.07-.13-.31-.31-1.36-.56s-3.09-.31-3.34-.37-.18-.06-.86-.49a4.59,4.59,0,0,0-2.53-1.12,25.53,25.53,0,0,0-3.71-.06A4.17,4.17,0,0,0,270.35,246.16Z" transform="translate(0 -99.26)"/><path d="M267.39,247.52h.8s0-.93-.24-1.05a.68.68,0,0,0-.5.43C267.45,247.09,267.39,247.27,267.39,247.52Z" transform="translate(0 -99.26)"/><path d="M276,245.05l.25,1.48-2.78-.06c-.49,0-.68,0-.68-.12s.31-1.3,1.05-1.3Z" transform="translate(0 -99.26)"/><path d="M276.41,245.05s.3,1.11.37,1.42c1.11,0,3.39.12,3.39.12a11.55,11.55,0,0,0-1.42-1A3.92,3.92,0,0,0,276.41,245.05Z" transform="translate(0 -99.26)"/><path d="M282.83,247.58a1.33,1.33,0,1,0,1.36,1.3h0A1.36,1.36,0,0,0,282.83,247.58Zm0,2.29a1,1,0,1,1,1-1,1,1,0,0,1-1,1h0Z" transform="translate(0 -99.26)"/><path d="M283.63,248.88a.81.81,0,1,1-.8-.8h0A.86.86,0,0,1,283.63,248.88Z" transform="translate(0 -99.26)"/><circle cx="282.83" cy="149.62" r="0.99"/><path d="M283.38,248.88a.56.56,0,0,1-.55.57.58.58,0,0,1-.56-.45v-.12a.61.61,0,0,1,.62-.49A.66.66,0,0,1,283.38,248.88Z" transform="translate(0 -99.26)"/><path d="M283.2,248.88a.35.35,0,0,1-.31.37h0a.38.38,0,1,1,.3-.44h0A.17.17,0,0,1,283.2,248.88Z" transform="translate(0 -99.26)"/><path d="M271.84,247.58a1.3,1.3,0,1,0,1.29,1.3h0a1.26,1.26,0,0,0-1.23-1.3h-.06Zm0,2.23a1,1,0,1,1,1-1h0a1,1,0,0,1-1,1h0Z" transform="translate(0 -99.26)"/><path d="M272.58,248.88a.74.74,0,1,1-.74-.74A.75.75,0,0,1,272.58,248.88Z" transform="translate(0 -99.26)"/><path d="M272.82,248.88a1,1,0,1,1-1-1h0a1,1,0,0,1,1,1h0Z" transform="translate(0 -99.26)"/><path d="M272.39,248.88a.56.56,0,1,1-.55-.56h0A.56.56,0,0,1,272.39,248.88Z" transform="translate(0 -99.26)"/><path d="M272.15,248.88a.35.35,0,0,1-.31.37.35.35,0,0,1-.37-.31.34.34,0,0,1,.3-.37h0a.29.29,0,0,1,.36.2A.2.2,0,0,1,272.15,248.88Z" transform="translate(0 -99.26)"/><path d="M125.31,246.16c-.87,0-1.79.06-2.66.13a.47.47,0,0,0-.25.49,2.62,2.62,0,0,1-.06.74.41.41,0,0,0-.37.43c-.06.37-.31.87,1.18,1s2.1.19,2.1.19a1.7,1.7,0,0,1,1.72-1.67h0c1.67.06,1.36,2,1.36,2l7.78-.06.25-.24V249a1.57,1.57,0,0,1,1.6-1.54h0c1.54,0,1.29,1.73,1.29,1.73h1.24c.24,0,.55-.5.49-.74s-.12-.44-.43-.5a2.27,2.27,0,0,0-.25-.55c-.06-.13-.31-.31-1.36-.56s-3.08-.31-3.33-.37-.19-.06-.87-.49a4.49,4.49,0,0,0-2.53-1.11,24.07,24.07,0,0,0-3.7-.07A4.37,4.37,0,0,0,125.31,246.16Z" transform="translate(0 -99.26)"/><path d="M122.34,247.52h.81s0-.93-.25-1.05a.7.7,0,0,0-.5.43A2.14,2.14,0,0,1,122.34,247.52Z" transform="translate(0 -99.26)"/><path d="M130.93,245.05l.24,1.48-2.78-.06c-.49,0-.74,0-.67-.12s.3-1.3,1-1.3Z" transform="translate(0 -99.26)"/><path d="M131.42,245.05s.31,1.11.37,1.42c1.11,0,3.4.12,3.4.12a12.37,12.37,0,0,0-1.42-1A4,4,0,0,0,131.42,245.05Z" transform="translate(0 -99.26)"/><path d="M137.84,247.58a1.33,1.33,0,1,0,1.36,1.3h0a1.33,1.33,0,0,0-1.35-1.3h0Zm0,2.29a1,1,0,0,1,0-2,1,1,0,0,1,1,1,1,1,0,0,1-1,1h0Z" transform="translate(0 -99.26)"/><path d="M138.58,248.88a.8.8,0,1,1-.8-.8h0A.86.86,0,0,1,138.58,248.88Z" transform="translate(0 -99.26)"/><path d="M138.83,248.88a1,1,0,1,1-1.05-1h0a1,1,0,0,1,1.05.94h0Z" transform="translate(0 -99.26)"/><path d="M138.34,248.88a.57.57,0,0,1-1.12.12v-.12a.61.61,0,0,1,.62-.49C138.15,248.45,138.34,248.63,138.34,248.88Z" transform="translate(0 -99.26)"/><path d="M138.15,248.88a.34.34,0,0,1-.31.37h0a.38.38,0,0,1-.37-.37.37.37,0,0,1,.37-.37.34.34,0,0,1,.31.37Z" transform="translate(0 -99.26)"/><path d="M126.79,247.58a1.3,1.3,0,1,0,1.3,1.3h0a1.28,1.28,0,0,0-1.24-1.3h-.06Zm0,2.23a1,1,0,1,1,1-1h0a1,1,0,0,1-1,1h0Z" transform="translate(0 -99.26)"/><path d="M127.59,248.88a.74.74,0,1,1-.74-.74h0A.74.74,0,0,1,127.59,248.88Z" transform="translate(0 -99.26)"/><path d="M127.84,248.88a1,1,0,1,1-1-1h0A1.07,1.07,0,0,1,127.84,248.88Z" transform="translate(0 -99.26)"/><path d="M127.34,248.88a.55.55,0,0,1-.55.56.56.56,0,0,1,0-1.12h0A.55.55,0,0,1,127.34,248.88Z" transform="translate(0 -99.26)"/><path d="M127.16,248.88a.34.34,0,1,1-.37-.31h0a.3.3,0,0,1,.36.24h0A.17.17,0,0,1,127.16,248.88Z" transform="translate(0 -99.26)"/><path d="M639.52,243a.06.06,0,0,0-.06.05h0s0,0,0-.06Z" transform="translate(0 -99.26)" fill="#00a499"/><path d="M641.18,245.67a2.05,2.05,0,0,1,1.55.55,14.52,14.52,0,0,0-.12-2.28,1.61,1.61,0,0,0-1.24-1.24,2.66,2.66,0,0,0-1.91.31,2.91,2.91,0,0,1,1.35-.37c-1.54-.18-1.79-.74-1.66-1.42.06.5,0,1.11,1.48,1.3a3.81,3.81,0,0,1,1.85.62,4.65,4.65,0,0,0-.68-1.86,3.09,3.09,0,0,0-3.33-1.35,3.27,3.27,0,0,1,3.58,1.42,7.48,7.48,0,0,1,.8,2,2.71,2.71,0,0,1,.5-1.17,3.64,3.64,0,0,1,1.85-1.3,2.86,2.86,0,0,0-2.1,3v.8a6.17,6.17,0,0,1,.06,1v.06a4.94,4.94,0,0,1,1.73-2l.19-.12a1.88,1.88,0,0,0,.3-.62,1.74,1.74,0,0,0-.12-1.36,2.09,2.09,0,0,1,0,1.92,5.28,5.28,0,0,1,2.22-.62,4.56,4.56,0,0,0-4,2.9c-.55,1.3.12,4.39.12,4.39h-1.17a20.81,20.81,0,0,0,.25-2.84,1.46,1.46,0,0,0-1.67-1.55c-1.91-.06-2.47-.92-3.09-1.11A6.37,6.37,0,0,0,641.18,245.67Z" transform="translate(0 -99.26)"/><path d="M636.74,240.67a1.87,1.87,0,0,1,1.23-1.55,2.11,2.11,0,0,1-.06-.61,1.9,1.9,0,0,1,2-1.67h0a2.4,2.4,0,0,1,.74.25,1.79,1.79,0,0,1,2.5-.4h0a.06.06,0,0,1,.06.05h0a1.78,1.78,0,0,1,2.38.81h0v.06l.18.55a1.82,1.82,0,0,1,1.3,1.92v.06a1.85,1.85,0,0,1,1.1,2.37,1.67,1.67,0,0,1-1.17,1v.31a1.8,1.8,0,0,1-2,1.6h0a1.06,1.06,0,0,1-.43-.12,1.67,1.67,0,0,1-1.42.49,1.24,1.24,0,0,1-.62-.18,4.93,4.93,0,0,0-4.08-.25,1.85,1.85,0,0,1-1.64-2,1.89,1.89,0,0,1,.59-1.17A1.93,1.93,0,0,1,636.74,240.67Z" transform="translate(0 -99.26)"/><path d="M313.58,243l-.06.06Z" transform="translate(0 -99.26)" fill="#00a499"/><path d="M315.25,245.67a2,2,0,0,1,1.54.55,14.52,14.52,0,0,0-.12-2.28,1.61,1.61,0,0,0-1.24-1.24,2.66,2.66,0,0,0-1.91.31,2.91,2.91,0,0,1,1.35-.37c-1.54-.18-1.79-.74-1.66-1.42.06.5,0,1.11,1.48,1.3a3.81,3.81,0,0,1,1.85.62,4.65,4.65,0,0,0-.68-1.86,3.09,3.09,0,0,0-3.33-1.35,3.27,3.27,0,0,1,3.58,1.42,7.48,7.48,0,0,1,.8,2,2.4,2.4,0,0,1,.5-1.17,3.27,3.27,0,0,1,1.85-1.3,2.94,2.94,0,0,0-2.1,3v.8a6.17,6.17,0,0,1,.06,1v.06a4.94,4.94,0,0,1,1.73-2l.19-.12a1.88,1.88,0,0,0,.3-.62,1.74,1.74,0,0,0-.12-1.36,2.09,2.09,0,0,1,0,1.92,5.65,5.65,0,0,1,2.16-.62,4.56,4.56,0,0,0-4,2.9c-.56,1.3.12,4.39.12,4.39h-1.17a22.52,22.52,0,0,0,.25-2.84,1.46,1.46,0,0,0-1.67-1.55c-1.91-.06-2.47-.92-3.09-1.11A6.9,6.9,0,0,0,315.25,245.67Z" transform="translate(0 -99.26)" fill="#00a499"/><path d="M310.92,241.53a2,2,0,0,1,1.05-1.67,2.13,2.13,0,0,1-.12-.61,1.79,1.79,0,0,1,1.79-1.79h0a1.81,1.81,0,0,0,2.35-.68,1.65,1.65,0,0,1,1,.31,1.61,1.61,0,0,1,.93-.25,10.38,10.38,0,0,1,3.21,3.15v.06a1.72,1.72,0,0,1,1.28,2.07h0s0,.1,0,.15a1.73,1.73,0,0,1-1.05,1.18v.3a1.87,1.87,0,0,1-1.79,1.86h-.07a.93.93,0,0,1-.43-.07,10.65,10.65,0,0,0-3.33,1.12,1.92,1.92,0,0,1-1.55-.87,1.76,1.76,0,0,1-2.5-.09h0v0a1.8,1.8,0,0,1,.06-2.47A2.27,2.27,0,0,1,310.92,241.53Z" transform="translate(0 -99.26)" fill="#00a499"/><path d="M310.86,240.67a1.87,1.87,0,0,1,1.24-1.55,1.74,1.74,0,0,1,1.9-2.22h0a1.56,1.56,0,0,1,.75.25,1.79,1.79,0,0,1,2.5-.4h0a.06.06,0,0,1,.06.05h0a2.43,2.43,0,0,1,.92-.18,1.76,1.76,0,0,1,1.61,1.54,1.82,1.82,0,0,1,1.3,1.92v.06a1.79,1.79,0,0,1,1,2.33h0a1.9,1.9,0,0,1-1.12,1v.31a1.89,1.89,0,0,1-2,1.66h0a1.06,1.06,0,0,1-.43-.12,1.81,1.81,0,0,1-2,.31,1.77,1.77,0,0,1-2.5,0h0a1.57,1.57,0,0,1-.31-.49,1.85,1.85,0,0,1-2.53-.43,1.81,1.81,0,0,1-.31-1.24,1.83,1.83,0,0,1,.62-1.23A1.7,1.7,0,0,1,310.86,240.67Z" transform="translate(0 -99.26)" fill="#00a499"/><rect y="150.91" width="800" height="2.72" fill="#3c3c3b"/><path d="M780.84,234h-.33v-.33h-.21v-5.86h.21v-.39h-.21v-1.14h.28l.19-.54h.36v-.28h-2.94v-1.8h.21v-.39h-.21v-1.62h.14l.18-.55h.1v-.27h-3V219.5H775v-.57l-.4-.8v-5.65h.24v-1h-.24V211l-.4-.8H774V172.23a.47.47,0,0,0,.32-.31.39.39,0,0,0,.28-.37h.17V171h-.2v-.11H774v-.28h.23l-.06-.15h-.06v-.39H774v-.78h.19V169l.14-.14h.35v-.21h.2l.35-.34h-.84V167l-.39-.3v-4.29l.93-.54v-.18l.21-.13s-.78-.18-1-.58h-1v-4.89h-.37v-3.48l-3.66-21.09v-5.28a1.88,1.88,0,0,0-.4-3.7,1.68,1.68,0,0,1-.36,3.31,1.66,1.66,0,0,1-1.46-.87,1.86,1.86,0,0,0,1.55,1.29v5.29l-3.65,21.05v3.48h-.36V161h-1c-.23.4-1,.58-1,.58l.21.13v.18l.93.54v4.29l-.4.3v1.31h-.84l.35.34h.2v.21h.35l.14.14v.34h.2v.78h-.12v.39h-.06l-.05.15h.23v.28h-.58V171h-.2v.53h.17a.39.39,0,0,0,.28.37.47.47,0,0,0,.33.31v37.93h-.2l-.41.8v.47h-.23v1h.23v5.65l-.39.8v.57h-.57v1.29h-16v-2.28h.79v-4.12h2.06v-1.46h-2.06V211h-5.47v-3.41l1.2-2.2h-2.6a25.65,25.65,0,0,0-15.28-22.9,2,2,0,0,0,0-.24,1.52,1.52,0,0,0-1.17-1.48V178.7H707.56v2.07a1.54,1.54,0,0,0-1.19,1.48,1.09,1.09,0,0,0,.07.24,25.69,25.69,0,0,0-15.32,22.9h-2.58l1.22,2.2V211h-5.48v1.93h-2v1.46h2v4.12h.79v2.28H669V219.5h-.57v-.57l-.4-.8v-5.65h.24v-1h-.24V211l-.4-.8h-.2V172.23a.45.45,0,0,0,.32-.31.39.39,0,0,0,.28-.37h.18V171H668v-.11h-.57v-.28h.23l-.06-.15h0v-.39h-.12v-.78h.19V169l.14-.14h.36v-.21h.19l.35-.34h-.84V167l-.39-.3v-4.29l.93-.54v-.18l.21-.13s-.78-.18-1-.58h-1v-4.89h-.36v-3.48l-3.66-21.09v-5.28a1.88,1.88,0,0,0-.4-3.7,1.68,1.68,0,0,1-.37,3.31,1.66,1.66,0,0,1-1.46-.87,1.86,1.86,0,0,0,1.55,1.29v5.29l-3.64,21.05v3.48h-.37V161h-1c-.23.4-1,.58-1,.58l.21.13v.18l.93.54v4.29l-.39.3v1.31h-.84l.34.34h.2v.21h.35l.15.14v.34h.19v.78h-.12v.39h-.06l0,.15h.23v.28h-.58V171h-.2v.53h.18a.38.38,0,0,0,.28.37.44.44,0,0,0,.32.31v37.93h-.21l-.39.8v.47h-.24v1h.24v5.65l-.4.8v.57h-.58v1.29h-3v.27h.11l.18.55h.13v1.62h-.21v.39h.21v1.8h-2.93v.28h.36l.18.54h.28v1.14h-.21v.39h.21v5.86h-.21V234h-.33v5.23h-1.86v12.49H782.7V239.19h-1.86Z" transform="translate(0 -99.26)" fill="#373a36"/><path d="M679.85,248.17a2,2,0,0,1,1.54.55,14.52,14.52,0,0,0-.12-2.28A1.61,1.61,0,0,0,680,245.2a2.66,2.66,0,0,0-1.91.31,2.92,2.92,0,0,1,1.42-.37c-1.55-.18-1.79-.74-1.73-1.42.06.5,0,1.11,1.48,1.3a3.81,3.81,0,0,1,1.85.62,4.65,4.65,0,0,0-.68-1.86,3.09,3.09,0,0,0-3.33-1.35,3.26,3.26,0,0,1,3.58,1.42,7.48,7.48,0,0,1,.8,2,2.4,2.4,0,0,1,.5-1.17,3.27,3.27,0,0,1,1.85-1.3,2.86,2.86,0,0,0-2.1,3v.8a6.17,6.17,0,0,1,.06,1v.06a4.94,4.94,0,0,1,1.73-2l.19-.12a1.9,1.9,0,0,0,.31-.62,1.79,1.79,0,0,0-.13-1.36,2.09,2.09,0,0,1,0,1.92,5.65,5.65,0,0,1,2.16-.62,4.65,4.65,0,0,0-4,2.9c-.55,1.3.12,4.39.12,4.39h-1.17a20.81,20.81,0,0,0,.25-2.84,1.46,1.46,0,0,0-1.67-1.55c-1.91-.06-2.47-.92-3.09-1.11A6.9,6.9,0,0,0,679.85,248.17Z" transform="translate(0 -99.26)" fill="#00a499"/><path d="M675.52,244a2,2,0,0,1,1.05-1.67,2.54,2.54,0,0,1-.12-.61,3.7,3.7,0,0,1,4.67-2.38l.09,0c.12.06.3.12.43.19a1.68,1.68,0,0,1,.92-.25,10.27,10.27,0,0,1,3.21,3.15v.06a1.72,1.72,0,0,1,1.28,2.07h0a.83.83,0,0,1,0,.15,1.7,1.7,0,0,1-1,1.18v.3a1.79,1.79,0,0,1-1.79,1.79h0a.88.88,0,0,1-.43-.06,10.86,10.86,0,0,0-3.34,1.11,1.81,1.81,0,0,0-2.46-.68h0a.69.69,0,0,0-.24.18,1.89,1.89,0,0,1-1.86-1.79,1.79,1.79,0,0,1,.56-1.3A1.56,1.56,0,0,1,675.52,244Z" transform="translate(0 -99.26)" fill="#00a499"/><path d="M497,248.17a2,2,0,0,1,1.54.55,14.52,14.52,0,0,0-.12-2.28,1.61,1.61,0,0,0-1.24-1.24,2.66,2.66,0,0,0-1.91.31,2.92,2.92,0,0,1,1.42-.37c-1.54-.18-1.79-.74-1.73-1.42.06.5,0,1.11,1.48,1.3a3.81,3.81,0,0,1,1.85.62,4.79,4.79,0,0,0-.67-1.86,3.1,3.1,0,0,0-3.34-1.35,3.26,3.26,0,0,1,3.58,1.42,7.87,7.87,0,0,1,.81,2,2.39,2.39,0,0,1,.49-1.17,3.3,3.3,0,0,1,1.85-1.3,2.88,2.88,0,0,0-2.1,3v.8a6.17,6.17,0,0,1,.06,1v.06a5,5,0,0,1,1.73-2l.19-.12a1.9,1.9,0,0,0,.31-.62,1.75,1.75,0,0,0-.13-1.36,2.09,2.09,0,0,1,0,1.92,5.65,5.65,0,0,1,2.16-.62,4.65,4.65,0,0,0-4,2.9c-.55,1.3.13,4.39.13,4.39h-1.18a20.81,20.81,0,0,0,.25-2.84,1.46,1.46,0,0,0-1.67-1.55c-1.91-.06-2.47-.92-3.08-1.11A6.81,6.81,0,0,0,497,248.17Z" transform="translate(0 -99.26)" fill="#00a499"/><path d="M492.67,244a1.93,1.93,0,0,1,1.05-1.67,2.55,2.55,0,0,1-.13-.61,3.7,3.7,0,0,1,4.67-2.38l.09,0c.12.06.31.12.43.19a1.69,1.69,0,0,1,.93-.25,10.48,10.48,0,0,1,3.21,3.15v.06a1.72,1.72,0,0,1,1.27,2.07h0a.83.83,0,0,1,0,.15,1.7,1.7,0,0,1-1,1.18v.3a1.79,1.79,0,0,1-1.79,1.79h0a.9.9,0,0,1-.43-.06,11,11,0,0,0-3.34,1.11,1.81,1.81,0,0,0-2.46-.68h0a.69.69,0,0,0-.24.18,1.9,1.9,0,0,1-1.86-1.79,1.79,1.79,0,0,1,.56-1.3A1.54,1.54,0,0,1,492.67,244Z" transform="translate(0 -99.26)" fill="#00a499"/><path d="M781.23,248.17a2.07,2.07,0,0,1,1.55.55,13.42,13.42,0,0,0-.13-2.28,1.58,1.58,0,0,0-1.23-1.24,2.68,2.68,0,0,0-1.92.31,3,3,0,0,1,1.43-.37c-1.55-.18-1.8-.74-1.73-1.42.06.5,0,1.11,1.48,1.3a3.81,3.81,0,0,1,1.85.62,4.65,4.65,0,0,0-.68-1.86,3.09,3.09,0,0,0-3.33-1.35,3.27,3.27,0,0,1,3.58,1.42,8.23,8.23,0,0,1,.8,2,2.4,2.4,0,0,1,.5-1.17,3.27,3.27,0,0,1,1.85-1.3,2.86,2.86,0,0,0-2.1,3v.8a6.17,6.17,0,0,1,.06,1v.06a4.87,4.87,0,0,1,1.73-2l.18-.12a1.72,1.72,0,0,0,.31-.62,1.74,1.74,0,0,0-.12-1.36,2.09,2.09,0,0,1,0,1.92,5.65,5.65,0,0,1,2.16-.62,4.64,4.64,0,0,0-4,2.9c-.56,1.3.12,4.39.12,4.39h-1.17a22.52,22.52,0,0,0,.25-2.84,1.46,1.46,0,0,0-1.67-1.55c-1.92-.06-2.47-.92-3.09-1.11A6.89,6.89,0,0,0,781.23,248.17Z" transform="translate(0 -99.26)" fill="#00a499"/><path d="M776.91,244a2,2,0,0,1,1.05-1.67,2.13,2.13,0,0,1-.12-.61,3.7,3.7,0,0,1,4.67-2.38l.08,0c.13.06.31.12.43.19a1.69,1.69,0,0,1,.93-.25,10.38,10.38,0,0,1,3.21,3.15v.06a1.72,1.72,0,0,1,1.28,2.07h0s0,.1,0,.15a1.73,1.73,0,0,1-1,1.18v.3a1.79,1.79,0,0,1-1.79,1.79h0a.94.94,0,0,1-.44-.06,10.89,10.89,0,0,0-3.33,1.11,1.82,1.82,0,0,0-2.47-.68h0a.72.72,0,0,0-.25.18,1.89,1.89,0,0,1-1.85-1.79,1.79,1.79,0,0,1,.56-1.3A1.53,1.53,0,0,1,776.91,244Z" transform="translate(0 -99.26)" fill="#00a499"/><path d="M447.14,246.53c-.86,0-1.79.06-2.65.12a.46.46,0,0,0-.25.5,3.08,3.08,0,0,1-.06.74.41.41,0,0,0-.37.43c-.06.37-.31.87,1.17,1l2.1.18a1.72,1.72,0,0,1,1.73-1.66h0c1.67.06,1.36,2,1.36,2l7.78-.06.25-.25v-.12a1.56,1.56,0,0,1,1.6-1.54h0c1.55,0,1.3,1.73,1.3,1.73h1.23a.82.82,0,0,0,.5-.75.47.47,0,0,0-.43-.49,2.53,2.53,0,0,0-.25-.56c0-.12-.31-.3-1.36-.55s-3.09-.31-3.33-.37-.19-.06-.87-.5a5,5,0,0,0-2.53-1.11,25.51,25.51,0,0,0-3.71-.06A4.38,4.38,0,0,0,447.14,246.53Z" transform="translate(0 -99.26)" fill="#1d1d1b"/><path d="M444.18,247.89h.8s0-.93-.24-1a.68.68,0,0,0-.5.43A2.14,2.14,0,0,1,444.18,247.89Z" transform="translate(0 -99.26)" fill="#1d1d1b"/><path d="M452.76,245.42l.25,1.48-2.78-.06c-.49,0-.74,0-.68-.12s.31-1.3,1.05-1.3Z" transform="translate(0 -99.26)" fill="#1d1d1b"/><path d="M453.2,245.42s.3,1.11.37,1.42c1.05,0,3.39.12,3.39.12a12.85,12.85,0,0,0-1.42-1A3.91,3.91,0,0,0,453.2,245.42Z" transform="translate(0 -99.26)" fill="#1d1d1b"/><path d="M459.62,248a1.33,1.33,0,1,0,1.36,1.3h0a1.33,1.33,0,0,0-1.35-1.3h0Zm0,2.28a1,1,0,1,1,1-1h0a1,1,0,0,1-1,1h0Z" transform="translate(0 -99.26)" fill="#1d1d1b"/><path d="M460.42,249.25a.81.81,0,1,1-.8-.81h0A.87.87,0,0,1,460.42,249.25Z" transform="translate(0 -99.26)" fill="#1d1d1b"/><circle cx="459.62" cy="149.98" r="0.99" fill="#1d1d1b"/><path d="M460.17,249.25a.56.56,0,1,1-.55-.56h0a.56.56,0,0,1,.55.56Z" transform="translate(0 -99.26)" fill="#1d1d1b"/><path d="M460,249.25a.38.38,0,0,1-.37.37.37.37,0,0,1-.37-.37.36.36,0,0,1,.37-.37h0A.4.4,0,0,1,460,249.25Z" transform="translate(0 -99.26)" fill="#1d1d1b"/><path d="M448.63,248a1.3,1.3,0,1,0,1.29,1.3h0a1.26,1.26,0,0,0-1.23-1.3h-.06Zm0,2.22a1,1,0,1,1,.92-1h0a.89.89,0,0,1-.78,1Z" transform="translate(0 -99.26)" fill="#1d1d1b"/><path d="M449.37,249.25a.74.74,0,0,1-.74.74.74.74,0,1,1,0-1.48h0a.71.71,0,0,1,.74.69h0Z" transform="translate(0 -99.26)" fill="#1d1d1b"/><path d="M449.61,249.25a1,1,0,1,1-1-1h0a1,1,0,0,1,1,1h0Z" transform="translate(0 -99.26)" fill="#1d1d1b"/><path d="M449.18,249.25a.56.56,0,1,1-.55-.56h0a.56.56,0,0,1,.55.56Z" transform="translate(0 -99.26)" fill="#1d1d1b"/><path d="M449,249.25a.36.36,0,0,1-.31.37.35.35,0,0,1-.37-.31.34.34,0,0,1,.31-.37h0a.3.3,0,0,1,.36.24h0A.15.15,0,0,1,449,249.25Z" transform="translate(0 -99.26)" fill="#1d1d1b"/></svg>