<svg xmlns="http://www.w3.org/2000/svg" width="275" height="275" viewBox="0 0 275 275"><path d="M137.5,275A137.5,137.5,0,1,1,275,137.5,137.5,137.5,0,0,1,137.5,275Zm0-258.5a121,121,0,1,0,121,121A121,121,0,0,0,137.5,16.5Z" fill="none"/><path d="M51.55,30.18c-1.33,1.07-2.65,2.16-3.94,3.27L33.45,47.61c-1.11,1.29-2.2,2.61-3.27,3.94Z"/><path d="M71,17.12,69.45,18,18,69.45c-.3.52-.59,1-.88,1.56Z"/><path d="M83.54,11l-1.22.53L11.53,82.32,11,83.54Z"/><path d="M93.85,7.08l-1,.34L7.42,92.84c-.11.34-.23.68-.34,1Z"/><path d="M36.55,70.78,38,68.7,4.63,102c-.08.31-.17.61-.25.92Z"/><path d="M68.7,38l2.08-1.41L103,4.38l-.92.25Z"/><path d="M28.21,85.52c.21-.44.42-.88.64-1.32L2.68,110.37c-.05.28-.1.56-.16.84Z"/><path d="M84.2,28.85l1.32-.64L111.21,2.52l-.84.16Z"/><path d="M23.63,96.5,24,95.43,1.37,118.08c0,.26-.07.52-.11.79Z"/><path d="M95.43,24l1.07-.39L118.87,1.26l-.79.11Z"/><path d="M20.7,105.83c.08-.31.16-.62.25-.93L.54,125.31l-.06.74Z"/><path d="M104.9,21l.93-.25L126.05.48l-.74.06Z"/><path d="M132.84.09l-.71,0L113.32,18.92l.85-.16Z"/><path d="M18.76,114.17c0-.28.1-.56.16-.84L.11,132.13c0,.24,0,.48,0,.71Z"/><path d="M121,17.62l.79-.11L139.31,0h-.67Z"/><path d="M17.51,121.82c0-.26.07-.53.11-.79L0,138.64c0,.22,0,.44,0,.67Z"/><path d="M16.81,128.92c0-.24,0-.48,0-.72L.2,144.85c0,.22,0,.43,0,.64Z"/><path d="M128.2,16.85l.72,0L145.49.24l-.64,0Z"/><path d="M16.52,135.6c0-.23,0-.46,0-.68L.64,150.81l.06.61Z"/><path d="M134.92,16.53h.68L151.42.7l-.61-.06Z"/><path d="M16.59,141.93l0-.65L1.32,156.52c0,.2.05.4.08.6Z"/><path d="M141.28,16.56l.65,0L157.12,1.4l-.6-.08Z"/><path d="M147.34,16.9,148,17,162.63,2.3l-.58-.11Z"/><path d="M17,148l-.06-.63L2.19,162.05c0,.2.07.39.11.58Z"/><path d="M17.59,153.73l-.09-.58L3.27,167.38c0,.19.07.37.12.55Z"/><path d="M153.15,17.5l.58.09,14.2-14.2c-.18-.05-.36-.08-.55-.12Z"/><path d="M158.69,18.35l.57.11L173.07,4.65l-.54-.14Z"/><path d="M18.46,159.26c0-.19-.07-.38-.11-.57L4.51,172.53c0,.18.1.36.14.54Z"/><path d="M164,19.42l.56.12L178,6.08l-.52-.16Z"/><path d="M19.54,164.58l-.12-.56-13.5,13.5c.06.17.1.35.16.52Z"/><path d="M20.83,169.68c0-.18-.09-.35-.14-.53l-13.2,13.2.18.5Z"/><path d="M169.15,20.69l.53.14L182.85,7.66l-.5-.17Z"/><path d="M174.1,22.14l.51.16L187.52,9.39,187,9.2Z"/><path d="M22.3,174.61c-.05-.17-.11-.34-.16-.51L9.2,187c.07.16.12.32.19.48Z"/><path d="M24,179.37c-.07-.16-.13-.33-.19-.5L11.05,191.58l.21.48Z"/><path d="M178.87,23.76l.5.19,12.69-12.69-.48-.21Z"/><path d="M183.49,25.55l.48.2,12.49-12.49L196,13Z"/><path d="M25.75,184l-.2-.48L13,196c.07.15.14.31.22.46Z"/><path d="M27.71,188.4l-.22-.45L15.15,200.29c.07.15.15.3.23.44Z"/><path d="M188,27.49l.45.22,12.33-12.33-.44-.23Z"/><path d="M192.26,29.58l.45.22,12.17-12.17-.43-.24Z"/><path d="M29.8,192.71c-.07-.15-.15-.3-.23-.45L17.38,204.45c.08.14.16.29.25.43Z"/><path d="M32.05,196.86l-.25-.43L19.73,208.5l.26.42Z"/><path d="M196.43,31.8l.43.25L208.92,20l-.42-.26Z"/><path d="M34.42,200.88c-.09-.13-.18-.27-.26-.41l-12,12,.27.4Z"/><path d="M200.47,34.16l.42.26,12-12-.41-.27Z"/><path d="M204.38,36.66l.41.26,11.86-11.86-.39-.28Z"/><path d="M36.92,204.79l-.26-.41L24.78,216.26l.28.39Z"/><path d="M208.16,39.27l.39.29,11.8-11.8-.39-.29Z"/><path d="M39.56,208.55l-.29-.39L27.47,220l.29.39Z"/><path d="M42.31,212.2l-.3-.38L30.27,223.56l.3.38Z"/><path d="M211.82,42l.38.3,11.74-11.74-.38-.3Z"/><path d="M215.35,44.88l.36.31,11.71-11.71-.36-.31Z"/><path d="M45.19,215.71l-.31-.36L33.17,227.06l.31.36Z"/><path d="M48.18,219.12l-.33-.35L36.18,230.44l.32.36Z"/><path d="M218.77,47.85l.35.33L230.8,36.5l-.36-.32Z"/><path d="M222.06,51c.11.12.23.23.35.34l11.66-11.67-.34-.34Z"/><path d="M51.3,222.4l-.34-.34L39.29,233.73l.34.34Z"/><path d="M54.53,225.57l-.35-.33L42.51,236.91l.35.33Z"/><path d="M225.24,54.18l.33.35,11.67-11.67-.33-.35Z"/><path d="M228.3,57.53l.31.36L240.3,46.2l-.31-.36Z"/><path d="M57.89,228.61l-.36-.31L45.84,240l.36.31Z"/><path d="M61.36,231.54l-.37-.31L49.27,243l.37.31Z"/><path d="M231.23,61c.11.12.21.25.31.37l11.72-11.72c-.1-.13-.21-.25-.31-.37Z"/><path d="M65,234.35l-.38-.3L52.8,245.82l.39.29Z"/><path d="M234.05,64.57l.3.38,11.76-11.76-.29-.39Z"/><path d="M236.74,68.28l.28.39,11.83-11.83-.28-.39Z"/><path d="M68.67,237l-.39-.28L56.45,248.57l.39.28Z"/><path d="M239.32,72.1l.26.41L251.5,60.59l-.28-.39Z"/><path d="M72.52,239.58l-.42-.26-11.9,11.9.4.28Z"/><path d="M241.75,76.06l.26.43,12-12c-.09-.14-.18-.28-.26-.42Z"/><path d="M76.49,242l-.43-.26-12,12,.42.26Z"/><path d="M244.07,80.15l.23.45,12.13-12.13c-.08-.15-.17-.29-.25-.43Z"/><path d="M80.6,244.3l-.45-.23L68,256.18l.43.25Z"/><path d="M84.83,246.46l-.45-.22L72.13,258.49l.44.23Z"/><path d="M246.24,84.38l.22.45,12.26-12.26c-.07-.15-.15-.3-.23-.44Z"/><path d="M89.22,248.47l-.48-.2-12.4,12.4.45.23Z"/><path d="M248.27,88.74l.2.48L260.9,76.79l-.23-.45Z"/><path d="M93.75,250.34l-.49-.19L80.67,262.74l.47.21Z"/><path d="M250.15,93.26c.07.16.13.32.19.49L263,81.14l-.21-.47Z"/><path d="M98.43,252.05l-.5-.17L85.14,264.67l.48.19Z"/><path d="M251.88,97.93c.05.17.11.34.17.5l12.82-12.81-.2-.48Z"/><path d="M253.43,102.77c.06.18.11.35.16.53l13.07-13.07c-.06-.17-.13-.33-.19-.49Z"/><path d="M103.3,253.59l-.52-.15-13,13,.49.19Z"/><path d="M254.82,107.79c.05.18.09.36.13.55L268.29,95l-.16-.52Z"/><path d="M108.34,255l-.55-.13L94.48,268.13l.52.16Z"/><path d="M113.55,256.13,113,256,99.37,269.64l.52.15Z"/><path d="M256,113c0,.19.07.38.11.57l13.66-13.67-.15-.52Z"/><path d="M119,257.09l-.58-.09-14,14,.54.13Z"/><path d="M257,118.41l.09.58,14-14c-.05-.18-.09-.36-.13-.54Z"/><path d="M257.75,124.05c0,.2.05.4.07.61l14.46-14.46c0-.19-.07-.38-.11-.57Z"/><path d="M124.66,257.82l-.61-.07-14.42,14.42.57.11Z"/><path d="M258.26,129.94c0,.22,0,.43,0,.65l15-15c0-.2-.06-.4-.1-.59Z"/><path d="M130.59,258.3l-.65,0L115,273.16l.59.1Z"/><path d="M136.79,258.49h-.66L120.64,274l.6.07Z"/><path d="M258.48,136.13c0,.22,0,.44,0,.66L274,121.24c0-.2-.05-.4-.07-.6Z"/><path d="M143.32,258.36l-.69,0-16.18,16.18.62.05Z"/><path d="M258.38,142.62c0,.23,0,.47,0,.7l16.25-16.25c0-.21,0-.41-.05-.62Z"/><path d="M150.25,257.83l-.76.08-17,17,.66,0Z"/><path d="M257.91,149.49c0,.25-.05.51-.08.76l17.09-17.09c0-.22,0-.44,0-.66Z"/><path d="M257,156.85c0,.27-.09.54-.13.81L275,139.51c0-.23,0-.46,0-.69Z"/><path d="M139.51,275l18.15-18.15-.81.13-18,18Z"/><path d="M255.41,164.79c-.07.3-.15.59-.22.89l19.53-19.53c0-.24,0-.48,0-.72Z"/><path d="M165.68,255.19l-.89.22-19.36,19.36.72,0Z"/><path d="M174.57,252.71l-1,.33L152.4,274.19l.77-.08Z"/><path d="M253,173.55c-.11.35-.23.68-.33,1l21.4-21.4c0-.26.06-.51.08-.77Z"/><path d="M249.4,183.6l-.48,1.16,24.13-24.13c.05-.27.09-.55.14-.82Z"/><path d="M184.76,248.92l-1.16.48-23.79,23.79.82-.14Z"/><path d="M271.47,168.6l.18-.85-28.17,28.17c-.28.51-.56,1-.85,1.52Z"/><path d="M197.44,242.63c-.5.29-1,.57-1.52.85l-28.17,28.17.85-.18Z"/><path d="M269.13,177.34c.1-.32.19-.65.29-1l-41.3,41.3a122.68,122.68,0,0,1-10.45,10.45l-41.3,41.3,1-.29Z"/><path d="M265.78,187.09c.14-.36.27-.73.41-1.09L186,266.19l1.09-.41Z"/><path d="M260.72,198.56c.23-.46.46-.91.68-1.37L197.19,261.4l1.37-.68Z"/><path d="M252,213.72c.44-.66.88-1.32,1.31-2l-41.53,41.52c.67-.43,1.33-.87,2-1.31Z"/></svg>