<svg xmlns="http://www.w3.org/2000/svg" width="114.81" height="123.96" viewBox="0 0 114.81 123.96"><path d="M110.28,88.18A58.08,58.08,0,0,0,84.35,59.83a40.57,40.57,0,0,1-53.89,0A58.08,58.08,0,0,0,4.53,88.18,56.67,56.67,0,0,0,0,110.48V124H114.81V110.48A56.67,56.67,0,0,0,110.28,88.18Z"/><circle cx="57.41" cy="29.47" r="29.46" transform="translate(18.16 80.7) rotate(-79.72)"/><path d="M57.41,59A29.48,29.48,0,0,1,45.93,2.32,29.48,29.48,0,0,1,68.88,56.63,29.21,29.21,0,0,1,57.41,59ZM57.41,0A29.44,29.44,0,1,0,86.85,29.47,29.48,29.48,0,0,0,57.41,0Z"/></svg>