<svg xmlns="http://www.w3.org/2000/svg" width="319.96" height="304.8" viewBox="0 0 319.96 304.8"><path d="M71.27,0c42.08,0,73.17,28.81,73.17,72,0,42.46-31.09,72.41-73.17,72.41C31.09,144.44,0,114.49,0,72,0,28.81,31.09,0,71.27,0ZM72,32.6c-20.47,0-35.64,16.68-35.64,39.05,0,22.75,15.17,39.81,35.64,39.81,20.09,0,36-17.06,36-39.81C108,49.28,92.12,32.6,72,32.6Zm14,261.21H55.73L235,9.48h30.33ZM246.8,160.36c42.08,0,73.16,28.81,73.16,72,0,42.46-31.08,72.41-73.16,72.41-40.19,0-71.27-29.95-71.27-72.41C175.53,189.17,206.61,160.36,246.8,160.36Zm.75,32.6c-20.47,0-35.63,16.68-35.63,39,0,22.75,15.16,39.81,35.63,39.81,20.1,0,36-17.06,36-39.81C283.57,209.64,267.65,193,247.55,193Z"/></svg>