<svg xmlns="http://www.w3.org/2000/svg" width="2412.94" height="800" viewBox="0 0 2412.94 800"><polygon points="800 0 0 800 0.64 800 800.64 0 800 0"/><polygon points="807.9 0 7.9 800 8.55 800 808.55 0 807.9 0"/><polygon points="815.81 0 15.81 800 16.45 800 816.45 0 815.81 0"/><polygon points="823.71 0 23.71 800 24.35 800 824.35 0 823.71 0"/><polygon points="831.61 0 31.61 800 32.26 800 832.26 0 831.61 0"/><polygon points="839.52 0 39.52 800 40.16 800 840.16 0 839.52 0"/><polygon points="847.42 0 47.42 800 48.06 800 848.06 0 847.42 0"/><polygon points="855.32 0 55.32 800 55.97 800 855.97 0 855.32 0"/><polygon points="863.23 0 63.23 800 63.87 800 863.87 0 863.23 0"/><polygon points="871.13 0 71.13 800 71.77 800 871.77 0 871.13 0"/><polygon points="879.03 0 79.03 800 79.68 800 879.68 0 879.03 0"/><polygon points="886.94 0 86.94 800 87.58 800 887.58 0 886.94 0"/><polygon points="894.84 0 94.84 800 95.48 800 895.48 0 894.84 0"/><polygon points="902.75 0 102.75 800 103.39 800 903.39 0 902.75 0"/><polygon points="910.65 0 110.65 800 111.29 800 911.29 0 910.65 0"/><polygon points="918.55 0 118.55 800 119.19 800 919.19 0 918.55 0"/><polygon points="926.46 0 126.45 800 127.1 800 927.1 0 926.46 0"/><polygon points="934.36 0 134.36 800 135 800 935 0 934.36 0"/><polygon points="942.26 0 142.26 800 142.9 800 942.9 0 942.26 0"/><polygon points="950.16 0 150.16 800 150.81 800 950.81 0 950.16 0"/><polygon points="958.07 0 158.07 800 158.71 800 958.71 0 958.07 0"/><polygon points="965.97 0 165.97 800 166.62 800 966.62 0 965.97 0"/><polygon points="973.88 0 173.88 800 174.52 800 974.52 0 973.88 0"/><polygon points="981.78 0 181.78 800 182.42 800 982.42 0 981.78 0"/><polygon points="989.68 0 189.68 800 190.32 800 990.33 0 989.68 0"/><polygon points="997.59 0 197.59 800 198.23 800 998.23 0 997.59 0"/><polygon points="1005.49 0 205.49 800 206.13 800 1006.13 0 1005.49 0"/><polygon points="1013.39 0 213.39 800 214.03 800 1014.03 0 1013.39 0"/><polygon points="1021.3 0 221.3 800 221.94 800 1021.94 0 1021.3 0"/><polygon points="1029.2 0 229.2 800 229.84 800 1029.84 0 1029.2 0"/><polygon points="1037.1 0 237.1 800 237.75 800 1037.75 0 1037.1 0"/><polygon points="1045.01 0 245.01 800 245.65 800 1045.65 0 1045.01 0"/><polygon points="1052.91 0 252.91 800 253.55 800 1053.55 0 1052.91 0"/><polygon points="1060.81 0 260.81 800 261.46 800 1061.46 0 1060.81 0"/><polygon points="1068.72 0 268.72 800 269.36 800 1069.36 0 1068.72 0"/><polygon points="1076.62 0 276.62 800 277.26 800 1077.26 0 1076.62 0"/><polygon points="1084.52 0 284.52 800 285.17 800 1085.17 0 1084.52 0"/><polygon points="1092.43 0 292.43 800 293.07 800 1093.07 0 1092.43 0"/><polygon points="1100.33 0 300.33 800 300.97 800 1100.97 0 1100.33 0"/><polygon points="1108.23 0 308.23 800 308.88 800 1108.88 0 1108.23 0"/><polygon points="1116.14 0 316.14 800 316.78 800 1116.78 0 1116.14 0"/><polygon points="1124.04 0 324.04 800 324.68 800 1124.68 0 1124.04 0"/><polygon points="1131.94 0 331.94 800 332.59 800 1132.59 0 1131.94 0"/><polygon points="1139.85 0 339.85 800 340.49 800 1140.49 0 1139.85 0"/><polygon points="1147.75 0 347.75 800 348.39 800 1148.39 0 1147.75 0"/><polygon points="1155.65 0 355.65 800 356.3 800 1156.3 0 1155.65 0"/><polygon points="1163.56 0 363.56 800 364.2 800 1164.2 0 1163.56 0"/><polygon points="1171.46 0 371.46 800 372.1 800 1172.1 0 1171.46 0"/><polygon points="1179.37 0 379.37 800 380.01 800 1180.01 0 1179.37 0"/><polygon points="1187.27 0 387.27 800 387.91 800 1187.91 0 1187.27 0"/><polygon points="1195.17 0 395.17 800 395.81 800 1195.82 0 1195.17 0"/><polygon points="1203.08 0 403.07 800 403.72 800 1203.72 0 1203.08 0"/><polygon points="1210.98 0 410.98 800 411.62 800 1211.62 0 1210.98 0"/><polygon points="1218.88 0 418.88 800 419.52 800 1219.53 0 1218.88 0"/><polygon points="1226.79 0 426.79 800 427.43 800 1227.43 0 1226.79 0"/><polygon points="1234.69 0 434.69 800 435.33 800 1235.33 0 1234.69 0"/><polygon points="1242.59 0 442.59 800 443.24 800 1243.23 0 1242.59 0"/><polygon points="1250.5 0 450.5 800 451.14 800 1251.14 0 1250.5 0"/><polygon points="1258.4 0 458.4 800 459.04 800 1259.04 0 1258.4 0"/><polygon points="1266.3 0 466.3 800 466.94 800 1266.94 0 1266.3 0"/><polygon points="1274.21 0 474.21 800 474.85 800 1274.85 0 1274.21 0"/><polygon points="1282.11 0 482.11 800 482.75 800 1282.75 0 1282.11 0"/><polygon points="1290.01 0 490.01 800 490.66 800 1290.66 0 1290.01 0"/><polygon points="1297.92 0 497.92 800 498.56 800 1298.56 0 1297.92 0"/><polygon points="1305.82 0 505.82 800 506.46 800 1306.46 0 1305.82 0"/><polygon points="1313.72 0 513.72 800 514.37 800 1314.37 0 1313.72 0"/><polygon points="1321.63 0 521.63 800 522.27 800 1322.27 0 1321.63 0"/><polygon points="1329.53 0 529.53 800 530.17 800 1330.17 0 1329.53 0"/><polygon points="1337.43 0 537.43 800 538.08 800 1338.08 0 1337.43 0"/><polygon points="1345.34 0 545.34 800 545.98 800 1345.98 0 1345.34 0"/><polygon points="1353.24 0 553.24 800 553.88 800 1353.88 0 1353.24 0"/><polygon points="1361.14 0 561.14 800 561.79 800 1361.79 0 1361.14 0"/><polygon points="1369.05 0 569.05 800 569.69 800 1369.69 0 1369.05 0"/><polygon points="1376.95 0 576.95 800 577.59 800 1377.59 0 1376.95 0"/><polygon points="1384.85 0 584.85 800 585.5 800 1385.5 0 1384.85 0"/><polygon points="1392.76 0 592.76 800 593.4 800 1393.4 0 1392.76 0"/><polygon points="1400.66 0 600.66 800 601.3 800 1401.3 0 1400.66 0"/><polygon points="1408.57 0 608.57 800 609.21 800 1409.21 0 1408.57 0"/><polygon points="1416.47 0 616.47 800 617.11 800 1417.11 0 1416.47 0"/><polygon points="1424.37 0 624.37 800 625.01 800 1425.01 0 1424.37 0"/><polygon points="1432.28 0 632.27 800 632.92 800 1432.92 0 1432.28 0"/><polygon points="1440.18 0 640.18 800 640.82 800 1440.82 0 1440.18 0"/><polygon points="1448.08 0 648.08 800 648.73 800 1448.72 0 1448.08 0"/><polygon points="1455.98 0 655.99 800 656.63 800 1456.63 0 1455.98 0"/><polygon points="1463.89 0 663.89 800 664.53 800 1464.53 0 1463.89 0"/><polygon points="1471.79 0 671.79 800 672.43 800 1472.43 0 1471.79 0"/><polygon points="1479.7 0 679.7 800 680.34 800 1480.34 0 1479.7 0"/><polygon points="1487.6 0 687.6 800 688.24 800 1488.24 0 1487.6 0"/><polygon points="1495.5 0 695.5 800 696.14 800 1496.14 0 1495.5 0"/><polygon points="1503.41 0 703.41 800 704.05 800 1504.05 0 1503.41 0"/><polygon points="1511.31 0 711.31 800 711.95 800 1511.95 0 1511.31 0"/><polygon points="1519.21 0 719.21 800 719.86 800 1519.86 0 1519.21 0"/><polygon points="1527.12 0 727.12 800 727.76 800 1527.76 0 1527.12 0"/><polygon points="1535.02 0 735.02 800 735.66 800 1535.66 0 1535.02 0"/><polygon points="1542.92 0 742.92 800 743.57 800 1543.57 0 1542.92 0"/><polygon points="1550.83 0 750.83 800 751.47 800 1551.47 0 1550.83 0"/><polygon points="1558.73 0 758.73 800 759.37 800 1559.37 0 1558.73 0"/><polygon points="1566.63 0 766.63 800 767.28 800 1567.28 0 1566.63 0"/><polygon points="1574.54 0 774.54 800 775.18 800 1575.18 0 1574.54 0"/><polygon points="1582.44 0 782.44 800 783.08 800 1583.08 0 1582.44 0"/><polygon points="1590.34 0 790.34 800 790.99 800 1590.99 0 1590.34 0"/><polygon points="1598.25 0 798.25 800 798.89 800 1598.89 0 1598.25 0"/><polygon points="1606.15 0 806.15 800 806.79 800 1606.79 0 1606.15 0"/><polygon points="1614.05 0 814.05 800 814.7 800 1614.7 0 1614.05 0"/><polygon points="1621.96 0 821.96 800 822.6 800 1622.6 0 1621.96 0"/><polygon points="1629.86 0 829.86 800 830.5 800 1630.5 0 1629.86 0"/><polygon points="1637.76 0 837.76 800 838.41 800 1638.41 0 1637.76 0"/><polygon points="1645.67 0 845.67 800 846.31 800 1646.31 0 1645.67 0"/><polygon points="1653.57 0 853.57 800 854.21 800 1654.21 0 1653.57 0"/><polygon points="1661.47 0 861.48 800 862.12 800 1662.12 0 1661.47 0"/><polygon points="1669.38 0 869.38 800 870.02 800 1670.02 0 1669.38 0"/><polygon points="1677.28 0 877.28 800 877.92 800 1677.92 0 1677.28 0"/><polygon points="1685.18 0 885.18 800 885.83 800 1685.83 0 1685.18 0"/><polygon points="1693.09 0 893.09 800 893.73 800 1693.73 0 1693.09 0"/><polygon points="1748.41 0 948.41 800 949.05 800 1749.06 0 1748.41 0"/><polygon points="1700.99 0 900.99 800 901.63 800 1701.63 0 1700.99 0"/><polygon points="1708.89 0 908.89 800 909.54 800 1709.54 0 1708.89 0"/><polygon points="1716.8 0 916.8 800 917.44 800 1717.44 0 1716.8 0"/><polygon points="1724.7 0 924.7 800 925.35 800 1725.35 0 1724.7 0"/><polygon points="1732.61 0 932.61 800 933.25 800 1733.25 0 1732.61 0"/><polygon points="1740.51 0 940.51 800 941.15 800 1741.15 0 1740.51 0"/><polygon points="1938.1 0 1138.1 800 1138.74 800 1938.74 0 1938.1 0"/><polygon points="1946 0 1146 800 1146.64 800 1946.64 0 1946 0"/><polygon points="2009.23 0 1209.23 800 1209.87 800 2009.87 0 2009.23 0"/><polygon points="1953.9 0 1153.9 800 1154.55 800 1954.55 0 1953.9 0"/><polygon points="1961.81 0 1161.81 800 1162.45 800 1962.45 0 1961.81 0"/><polygon points="1977.61 0 1177.61 800 1178.26 800 1978.26 0 1977.61 0"/><polygon points="1985.52 0 1185.52 800 1186.16 800 1986.16 0 1985.52 0"/><polygon points="1993.42 0 1193.42 800 1194.06 800 1994.06 0 1993.42 0"/><polygon points="2001.32 0 1201.32 800 1201.96 800 2001.96 0 2001.32 0"/><polygon points="1756.32 0 956.32 800 956.96 800 1756.96 0 1756.32 0"/><polygon points="1764.22 0 964.22 800 964.86 800 1764.86 0 1764.22 0"/><polygon points="1772.12 0 972.12 800 972.76 800 1772.77 0 1772.12 0"/><polygon points="1780.03 0 980.03 800 980.67 800 1780.67 0 1780.03 0"/><polygon points="1787.93 0 987.93 800 988.57 800 1788.57 0 1787.93 0"/><polygon points="1795.83 0 995.83 800 996.48 800 1796.48 0 1795.83 0"/><polygon points="1803.74 0 1003.74 800 1004.38 800 1804.38 0 1803.74 0"/><polygon points="1811.64 0 1011.64 800 1012.28 800 1812.28 0 1811.64 0"/><polygon points="1819.54 0 1019.54 800 1020.19 800 1820.19 0 1819.54 0"/><polygon points="1827.45 0 1027.45 800 1028.09 800 1828.09 0 1827.45 0"/><polygon points="1835.35 0 1035.35 800 1035.99 800 1835.99 0 1835.35 0"/><polygon points="1843.25 0 1043.25 800 1043.9 800 1843.9 0 1843.25 0"/><polygon points="1851.16 0 1051.16 800 1051.8 800 1851.8 0 1851.16 0"/><polygon points="1859.06 0 1059.06 800 1059.7 800 1859.7 0 1859.06 0"/><polygon points="1866.96 0 1066.96 800 1067.61 800 1867.61 0 1866.96 0"/><polygon points="1874.87 0 1074.87 800 1075.51 800 1875.51 0 1874.87 0"/><polygon points="1882.77 0 1082.77 800 1083.41 800 1883.41 0 1882.77 0"/><polygon points="1890.67 0 1090.67 800 1091.32 800 1891.32 0 1890.67 0"/><polygon points="1898.58 0 1098.58 800 1099.22 800 1899.22 0 1898.58 0"/><polygon points="1906.48 0 1106.48 800 1107.12 800 1907.12 0 1906.48 0"/><polygon points="1914.38 0 1114.38 800 1115.03 800 1915.03 0 1914.38 0"/><polygon points="1922.29 0 1122.29 800 1122.93 800 1922.93 0 1922.29 0"/><polygon points="1969.71 0 1169.71 800 1170.35 800 1970.35 0 1969.71 0"/><polygon points="1930.19 0 1130.19 800 1130.83 800 1930.83 0 1930.19 0"/><polygon points="2017.13 0 1217.13 800 1217.77 800 2017.77 0 2017.13 0"/><polygon points="2025.03 0 1225.03 800 1225.68 800 2025.68 0 2025.03 0"/><polygon points="2032.94 0 1232.94 800 1233.58 800 2033.58 0 2032.94 0"/><polygon points="2040.84 0 1240.84 800 1241.48 800 2041.48 0 2040.84 0"/><polygon points="2048.74 0 1248.74 800 1249.39 800 2049.39 0 2048.74 0"/><polygon points="2056.65 0 1256.65 800 1257.29 800 2057.29 0 2056.65 0"/><polygon points="2064.55 0 1264.55 800 1265.19 800 2065.19 0 2064.55 0"/><polygon points="2301.65 0 1501.65 800 1502.3 800 2302.3 0 2301.65 0"/><polygon points="2309.56 0 1509.56 800 1510.2 800 2310.2 0 2309.56 0"/><polygon points="2317.46 0 1517.46 800 1518.1 800 2318.1 0 2317.46 0"/><polygon points="2325.36 0 1525.36 800 1526.01 800 2326.01 0 2325.36 0"/><polygon points="2388.59 0 1588.59 800 1589.23 800 2389.23 0 2388.59 0"/><polygon points="2333.27 0 1533.27 800 1533.91 800 2333.91 0 2333.27 0"/><polygon points="2341.17 0 1541.17 800 1541.81 800 2341.81 0 2341.17 0"/><polygon points="2356.98 0 1556.98 800 1557.62 800 2357.62 0 2356.98 0"/><polygon points="2364.88 0 1564.88 800 1565.52 800 2365.52 0 2364.88 0"/><polygon points="2372.78 0 1572.78 800 1573.43 800 2373.43 0 2372.78 0"/><polygon points="2380.69 0 1580.69 800 1581.33 800 2381.33 0 2380.69 0"/><polygon points="2072.45 0 1272.45 800 1273.1 800 2073.1 0 2072.45 0"/><polygon points="2080.36 0 1280.36 800 1281 800 2081 0 2080.36 0"/><polygon points="2088.26 0 1288.26 800 1288.9 800 2088.9 0 2088.26 0"/><polygon points="2096.16 0 1296.16 800 1296.81 800 2096.81 0 2096.16 0"/><polygon points="2104.07 0 1304.07 800 1304.71 800 2104.71 0 2104.07 0"/><polygon points="2111.97 0 1311.97 800 1312.61 800 2112.61 0 2111.97 0"/><polygon points="2119.87 0 1319.87 800 1320.52 800 2120.52 0 2119.87 0"/><polygon points="2127.78 0 1327.78 800 1328.42 800 2128.42 0 2127.78 0"/><polygon points="2135.68 0 1335.68 800 1336.32 800 2136.32 0 2135.68 0"/><polygon points="2143.59 0 1343.59 800 1344.23 800 2144.23 0 2143.59 0"/><polygon points="2151.49 0 1351.49 800 1352.13 800 2152.13 0 2151.49 0"/><polygon points="2159.39 0 1359.39 800 1360.03 800 2160.03 0 2159.39 0"/><polygon points="2167.3 0 1367.3 800 1367.94 800 2167.94 0 2167.3 0"/><polygon points="2175.2 0 1375.2 800 1375.84 800 2175.84 0 2175.2 0"/><polygon points="2183.1 0 1383.1 800 1383.74 800 2183.74 0 2183.1 0"/><polygon points="2191.01 0 1391.01 800 1391.65 800 2191.65 0 2191.01 0"/><polygon points="2198.91 0 1398.91 800 1399.55 800 2199.55 0 2198.91 0"/><polygon points="2206.81 0 1406.81 800 1407.45 800 2207.45 0 2206.81 0"/><polygon points="2214.72 0 1414.71 800 1415.36 800 2215.36 0 2214.72 0"/><polygon points="2222.62 0 1422.62 800 1423.26 800 2223.26 0 2222.62 0"/><polygon points="2230.52 0 1430.52 800 1431.16 800 2231.16 0 2230.52 0"/><polygon points="2238.43 0 1438.43 800 1439.07 800 2239.07 0 2238.43 0"/><polygon points="2246.33 0 1446.33 800 1446.97 800 2246.97 0 2246.33 0"/><polygon points="2349.07 0 1549.07 800 1549.72 800 2349.72 0 2349.07 0"/><polygon points="2254.23 0 1454.23 800 1454.88 800 2254.88 0 2254.23 0"/><polygon points="2262.14 0 1462.14 800 1462.78 800 2262.78 0 2262.14 0"/><polygon points="2270.04 0 1470.04 800 1470.68 800 2270.68 0 2270.04 0"/><polygon points="2277.94 0 1477.94 800 1478.59 800 2278.59 0 2277.94 0"/><polygon points="2285.85 0 1485.85 800 1486.49 800 2286.49 0 2285.85 0"/><polygon points="2293.75 0 1493.75 800 1494.39 800 2294.39 0 2293.75 0"/><polygon points="2396.49 0 1596.49 800 1597.14 800 2397.14 0 2396.49 0"/><polygon points="2404.4 0 1604.4 800 1605.04 800 2405.04 0 2404.4 0"/><polygon points="2412.3 0 1612.3 800 1612.94 800 2412.94 0 2412.3 0"/></svg>