<svg xmlns="http://www.w3.org/2000/svg" width="564.12" height="167.86" viewBox="0 0 564.12 167.86"><path d="M0,119.15l12.3-4.64V59.73l-12-5.59V48.87l33.06-7.18V62.61L52.55,42.48c5.75,0,13.41,1.28,18,3.84L64.36,70.11A24.56,24.56,0,0,0,51,66a24.89,24.89,0,0,0-14.69,4.79v45.68l12.29,2.08v8.14H0Z"/><path d="M110.2,127c-2.71,1.12-7.5,1.6-11,1.6-16.29,0-24.59-10.86-24.59-23.32C74.59,92,84.17,83.85,98.86,80L122,74V64.36c0-8.46-5.75-12.29-11.66-12.29-7,0-14.53,5.75-14.53,16.45A17.32,17.32,0,0,0,96,71.23H85.45L78.1,52.39c9.74-6.55,23.64-10.7,36.42-10.7,16.77,0,30.82,7.18,30.82,26v37.21c0,5.43,2.56,7.67,5.91,7.67a6.54,6.54,0,0,0,5.59-2.88l2.88,8.15a18,18,0,0,1-16.62,10.7c-7.5,0-16.13-4.31-16.29-16.77ZM122,82.41l-12.3,3.68c-9.26,2.71-14,8.78-14,14.85,0,5.27,3.67,10.38,11.5,10.38a19.19,19.19,0,0,0,14.85-7Z"/><path d="M235.9,54.3c5.27,6.07,8.15,13.58,8.15,20.29,0,16.77-17.57,27.15-36.26,27.15a52.15,52.15,0,0,1-15.33-2.4,8,8,0,0,0-5.59,7.67c0,4,3,7.82,8.78,7.82h34.66c16.77,0,25.56,10.39,25.56,22.52,0,20.93-25.88,30.51-51.11,30.51-24.12,0-39.45-8.79-39.45-19.81a14.9,14.9,0,0,1,1.28-5.74l18.52-11.5c-10.06-2.88-14.85-10.39-14.85-17.73,0-7.51,5.27-15,15.65-16.93-8.62-5.11-14.37-13.42-14.37-24.44,0-17.41,14.21-30,34.34-30A47.37,47.37,0,0,1,218,43.28h37.86V55.74ZM186.39,145c0,6.39,5.43,12.94,21.24,12.94,14.38,0,26.68-5.43,26.68-14.54,0-5.59-4.64-9.58-13.74-9.58H191.82C188.63,136.87,186.39,141,186.39,145Zm34.18-72c0-11.5-3.67-22.68-13.42-22.68-9.42,0-12.13,10.38-12.13,19.8,0,11.5,4,22.36,13.73,22.36C218.17,92.47,220.57,82.41,220.57,73Z"/><path d="M259.86,119.15l12.3-4.64V60.37l-12-5.59V49.51l35.94-7.82v74.74l12.3,2.08v8.14H259.86Zm6.87-103.5c0-9.42,6.55-15.65,16-15.65s16,6.23,16,15.65-6.55,15.65-16,15.65S266.73,25.07,266.73,15.65Z"/><path d="M402.65,84.65c0,24.59-16,43.92-43.29,43.92-27.47,0-42.16-19.65-42.16-43.28,0-24.44,15.81-43.6,43.28-43.6C387.79,41.69,402.65,60.85,402.65,84.65ZM375.5,87.52c0-22.52-5.59-37.21-16.61-37.21-9.75,0-14.54,11.5-14.54,32.26,0,22.52,5.59,37.37,16.61,37.37C370.7,119.94,375.5,108.29,375.5,87.52Z"/><path d="M409.84,119.15l12.29-4.64V59.73l-12-5.59V48.87l33.07-7.18v18.2l18.2-16.61a36.21,36.21,0,0,1,10.38-1.59c12.78,0,25.88,7.66,25.88,28.1v46.64l12.3,2.08v8.14H463.5v-8.3l10.22-3.84V75.23c0-10.87-5-15.5-11.18-15.5-5.27,0-11.34,3.2-16.45,8.47v48.23l10.22,1.76v8.46H409.84Z"/><path d="M515.57,119.15l12.3-4.64V60.37l-12-5.59V49.51l35.93-7.82v74.74l12.3,2.08v8.14H515.57Zm6.87-103.5C522.44,6.23,529,0,538.41,0s16,6.23,16,15.65-6.55,15.65-16,15.65S522.44,25.07,522.44,15.65Z"/></svg>