<svg xmlns="http://www.w3.org/2000/svg" width="639.68" height="121.92" viewBox="0 0 639.68 121.92"><path d="M0,112.48l14.72-5.6v-96L0,8.16V0H65.44c23.52,0,35.2,14.88,35.2,29.92,0,12.8-8.48,26.88-25.44,33l41.12,49.6V120H87.68L45.6,65.92H41.92v43.2l14.72,2.72V120H0ZM47.2,54.4c11.68,0,22.24-7.84,22.24-22.72,0-13-8.16-22.56-19.84-22.56H41.92V54.4Z"/><path d="M194.72,95.2c-5.44,18.08-20,26.72-34.88,26.72-19.52,0-39.52-14.88-39.52-43,0-29.28,20.8-44,40.16-44,17,0,33.6,11.36,33.6,35.68a51.15,51.15,0,0,1-.64,8.32h-53c1.92,16.64,13.28,23.68,25.12,23.68,9,0,18.24-4.64,24.64-14.24ZM171.84,67.36c1.76-15.52-5.12-22.08-13-22.08-8,0-17,6.08-18.4,22.08Z"/><path d="M240.8,120.32c-2.72,1.12-7.52,1.6-11,1.6-16.32,0-24.64-10.88-24.64-23.36,0-13.28,9.6-21.44,24.32-25.28l23.2-6.08V57.6c0-8.48-5.76-12.32-11.68-12.32-7,0-14.56,5.76-14.56,16.48a17.44,17.44,0,0,0,.16,2.72H216L208.64,45.6c9.76-6.56,23.68-10.72,36.48-10.72,16.8,0,30.88,7.2,30.88,26.08V98.24c0,5.44,2.56,7.68,5.92,7.68a6.56,6.56,0,0,0,5.6-2.88l2.88,8.16a18,18,0,0,1-16.64,10.72c-7.52,0-16.16-4.32-16.32-16.8Zm11.84-44.64-12.32,3.68c-9.28,2.72-14.08,8.8-14.08,14.88,0,5.28,3.68,10.4,11.52,10.4a19.26,19.26,0,0,0,14.88-7Z"/><path d="M299.68,91.2h10.24a21.19,21.19,0,0,0,20.8,21c6.24,0,11-4.16,11-10.4,0-8.16-9.28-10.88-19.2-14.56-11.68-4.32-24.16-9.6-24.16-25.92,0-18.4,15.68-26.4,32.32-26.4,9.6,0,20,2.56,27.68,7.2L354.56,59.2H345c-1.6-10.08-8.16-14.08-14.56-14.08-5.12,0-10.4,3.2-10.4,9.76,0,7.84,7.52,10.88,16.48,13.92,12.32,4.16,27.2,8.48,27.2,25.92,0,18.24-16.32,27.2-34.88,27.2-10.88,0-22.56-2.72-31.2-7.68Z"/><path d="M458.88,77.92c0,24.64-16,44-43.36,44-27.52,0-42.24-19.68-42.24-43.36,0-24.48,15.84-43.68,43.36-43.68C444,34.88,458.88,54.08,458.88,77.92Zm-27.2,2.88c0-22.56-5.6-37.28-16.64-37.28-9.76,0-14.56,11.52-14.56,32.32,0,22.56,5.6,37.44,16.64,37.44C426.88,113.28,431.68,101.6,431.68,80.8Z"/><path d="M466.08,112.48l12.32-4.64V53l-12-5.6V42.08l33.12-7.2V53.12l18.24-16.64a36.29,36.29,0,0,1,10.4-1.6c12.8,0,25.92,7.68,25.92,28.16v46.72l12.32,2.08V120H519.84v-8.32l10.24-3.84V68.48c0-10.88-5-15.52-11.2-15.52-5.28,0-11.36,3.2-16.48,8.48v48.32l10.24,1.76V120H466.08Z"/><path d="M575.68,91.2h10.24a21.19,21.19,0,0,0,20.8,21c6.24,0,11-4.16,11-10.4,0-8.16-9.28-10.88-19.2-14.56-11.68-4.32-24.16-9.6-24.16-25.92,0-18.4,15.68-26.4,32.32-26.4,9.6,0,20,2.56,27.68,7.2L630.56,59.2H621c-1.6-10.08-8.16-14.08-14.56-14.08-5.12,0-10.4,3.2-10.4,9.76,0,7.84,7.52,10.88,16.48,13.92,12.32,4.16,27.2,8.48,27.2,25.92,0,18.24-16.32,27.2-34.88,27.2-10.88,0-22.56-2.72-31.2-7.68Z"/></svg>