<svg xmlns="http://www.w3.org/2000/svg" width="41.1" height="45.35" viewBox="0 0 41.1 45.35"><path d="M41.1,45.35c-1.1-3-3.36-14.65-7.47-17.89a8.35,8.35,0,0,0-5.57-1.95c-2,0-13,0-15,0a8.35,8.35,0,0,0-5.57,1.95C3.36,30.7,1.1,42.32,0,45.35Z" fill="#77c5d5"/><polygon points="19.99 35.12 25.1 25.58 22.79 23.79 24.7 22.72 27.64 12.69 27.35 6.78 16.26 5.98 13.68 11.39 13.46 16.39 14.99 22.24 16.35 23.55 15.01 26.06 19.99 35.12" fill="#f0efdd"/><polygon points="12.34 18.05 9.52 11.55 12.61 3.46 17.41 0 24.19 2.39 25.86 2.05 29.41 6.75 30.34 12.29 28.46 19.71 29.47 24.8 25.26 25.58 22.79 23.81 24.8 22.59 27.59 12.5 27.22 7.81 22.14 6.78 20.19 9.49 14.29 11.27 13.99 16.14 14.74 19.36 16.38 23.53 15.34 25.54 10.21 24.8 12.34 18.05"/></svg>