<svg xmlns="http://www.w3.org/2000/svg" width="227.07" height="151.97" viewBox="0 0 227.07 151.97"><path d="M187.72,64.05a2.8,2.8,0,0,1-.72.11,17.35,17.35,0,0,0-2.64.14,16,16,0,0,0-2.79,1.42,34,34,0,0,0-3.4,2.24c-.34.26-1.32,1.22-1.52.8s-.33-.73,0-.8.38-.26.78-.37.89,0,1-.31-.27-.56.2-.87.64-.29.64-.46-.09,0-.53,0-1.93-.16-1.82-.54.86,0,.86-.57v0a.92.92,0,0,1,.62-1,4.54,4.54,0,0,0,1.47-1.33c.53-.66,1.32-1.13.95-1.57a3.72,3.72,0,0,0-1.09-1c-.33-.16-.51-.23-.51-.47s.14-.51-.22-.24-.15.33-1,.26a2.13,2.13,0,0,0-2.5,1c-1,1.33-1.17,1.7-2.7,2.35s-2.41.62-2.84,1.88a3.76,3.76,0,0,1-1.83,2.43c-.69.23-.78,0-1.44.31s-.84.07-1.29-.26-1-.75-1.39,0a7.29,7.29,0,0,0-.75,2,1,1,0,0,0,.19.81,4.25,4.25,0,0,0,2.28,1.42c.87.09.69,0,1,.31s.8.24.62-.14.4-.59,1,0a1.56,1.56,0,0,1,.49,1.91c-.31.71-.58,1.48-.12,1.61s1.11.4,1.64.6,1.53-.62,2.22-1.17.68-.62.68-.89.16-.26.62-.4.55-.86,2,.08,2.19,1.26,2.73,1.18.46-.25.78-.11.5-.19.56-.37.2.06.6.3a1.71,1.71,0,0,0,1.08.24c.46,0,1.11,0,.73.41s-1.3,1.25-1,1.31.53-.23.39.17a.77.77,0,0,1-.92.52c-.34-.13-.12-.86-.57-.64s-2.43.85-3.12,1.2-.66.42-1.17.34-.7-.14-.82,0,.15.24.34.24.67.15.24.47-1,.32-.92.72.2.64-.32.87-.82.24-.76-.1-.07-.79-.58-.59-.63.44-.38.6.79.34.43.63-.68.78-1.05,1.15-.59.21-1,.46a2.23,2.23,0,0,0-.91,1.26,1.51,1.51,0,0,1-.55.9.84.84,0,0,0-.37.76c0,.35,0,.85.31.64s.41-.25.92.22.78,1.15,1.53,1.16a1.49,1.49,0,0,1,1.58,1.24c.26.94,1.07,2.47,1.44,3.41a4.19,4.19,0,0,1,.52,1.89c0,.7-.26,1,.54,1.24s1.2.29,1.25,1,.46.77,1,1,.75.44.85.82.2.59-.18.46a5.57,5.57,0,0,0-1.38-.39c-.42,0-1.4.31-1.82-.12s-.9-1-1.33-.9a1.75,1.75,0,0,0-.9.32c-.36.22-.75.53-1,0s-1.21-1.6-1.43-1.44-.28,0-.11.25-.43.25.11.62.77.5,1.14.74a1.05,1.05,0,0,0,1.05.21,6.83,6.83,0,0,1,1.11-.36c.47-.06.56,0,.63.36a.8.8,0,0,0,.84.77c.55,0,.66.19,1,.55a4.77,4.77,0,0,0,1,.84c.5.3.75.25,1,.89s.62.89.15,1.11a10.38,10.38,0,0,0-2.45,1.13,4,4,0,0,1-1.43,1.1c-.3,0-.66-.06-1-.06a.94.94,0,0,0-.61.11,1.67,1.67,0,0,0-.64.46c-.1.13.47.16.65-.05s.25-.41.49-.41.3.14.39.46.41.45.81.39a2,2,0,0,0,.94-.48.87.87,0,0,1,1.29.16c.55.59.83,1.13,1.6,1.2s1.25,0,.74.37a14.41,14.41,0,0,1-1.69,1.09c-.32.13-.49.15-.51.32s.29.16.54,0,.23-.13.49-.06.48-.07.38-.16-.22-.19,0-.31.51-.19.57.07-.1.31-.13.61,0,.45-.13.55-.05,0-.23-.08-.32-.12-.32.08,0,.31-.11.34-.29-.38-.42-.38a.32.32,0,0,0-.31.17c-.09.13-.4.39-.39.55s.06.13.34.08.23-.06.42.29.26.38,0,.38-.43-.16-.43,0,.16.23.3.32.34.09,0,.32a1.22,1.22,0,0,1-1.08.13,1.51,1.51,0,0,0-.33-.27c-.12-.06-.48-.2-.25,0a1.2,1.2,0,0,0,.69.41c.31,0,.53.11.58.39s0,.57.22.79.22.32,0,.37a.9.9,0,0,0-.58.34c-.12.19-.22.39-.31.16a1,1,0,0,0-.36-.53c-.18-.11-.31-.13-.44,0s-.21.16-.11.26-.1.19-.27.35-.34.54-.69.59-.42.15-.57,0-.27-.1-.35-.26-.11.25.06.28a3.53,3.53,0,0,1,.44.14c.23.06.52.23.39.44a4,4,0,0,0-.62,1.4c-.09.58-.13.84-.49,1.09s-.57.35-.68.15-.1-.35-.31-.28-.3.24-.09.28.36,0,.45.12.26.18,0,.3-.45.14-.45.49,0,.35-.27.5-.22,0-.32.16-.23.18-.42.18-.51.12-.61,0a.31.31,0,0,0-.38-.13,2.18,2.18,0,0,1-.37.2c-.17.08-.2.24-.18.43a.35.35,0,0,0,.32.37c.23,0,.37,0,.37.13s-.16.06-.27.12-.42.22-.2.46.31.4.38.32.13,0,.2-.22.22-.21.33-.12.12.17,0,.22-.06.16-.28.2a.76.76,0,0,0-.51.25c-.12.16-.36.28-.45.52s-.1.35-.38.34-.4,0-.58-.17-.54-.46-.56-.25.53.7.75.63.51,0,.85-.09.54-.1.54.07a1,1,0,0,1-.36.69c-.2.15-.42.28-.34.52a1.38,1.38,0,0,0,.3.62c.15.11.09.16.17.31s0,.21-.15.28-.32-.17-.36-.36-.21-.31-.32-.43-.38-.16-.45.05-.21.24-.35.42a.65.65,0,0,0,0,.59c0,.13.06.24.21.08s.33-.11.34.05-.14.27-.36.27a1.61,1.61,0,0,1-.71,0c-.31-.1-.51-.19-.54,0s-.06.07.12.46,0,.24.16.54,0,.41-.15.33-.24,0-.53.08-.56.12-.49.3a.24.24,0,0,0,.3.19c.13,0,.07.2-.14.43s-.39.31-.51.12-.13-.37-.33-.33-.11,0-.24.18-.25.23-.48.07-.35-.22-.54,0-.42.49-.68.54-.77-.08-.56.14a.77.77,0,0,0,.7.29c.28,0,.68.25.2.71a12.41,12.41,0,0,0-1.36,1.38c-.26.41-.37.39-.37.2s0-.29-.21-.42-.45-.35-.33-.06,0,.45-.28.68-.44.33-.72.52-.3.08-.4-.05a.34.34,0,0,0-.32-.14c-.14,0-.37,0-.41.34a.68.68,0,0,1-.45.67c-.22.05-.33.11-.52,0s-.43.06-.24.19a.91.91,0,0,0,.55.16.3.3,0,0,1,.31.3c0,.13,0,0-.21-.07a.49.49,0,0,0-.48-.08c-.12.07-.27.19-.21.59s-.07.76-.64.76a4.25,4.25,0,0,1-1.08,0c-.24-.09-.23-.05-.34.16s-.43.69-.77.43-.44-.43-.25-.51.22-.27-.11-.23-.93,0-.79.2.1.23.2.26.12,0,.09.21-.12.23.05.3.11.32-.06.19a1.87,1.87,0,0,0-.65-.37c-.26-.07-.41-.12-.23-.23s.19-.11.16-.23-.17-.1-.37.08-.58.28-.77.57-.46.72-.61.65-.69-.59-.45-.67.37-.15.29-.28-.22-.2-.42,0-.93.23-.68.55.46.43.25.6-.41.2-.52,0-.24-.52-.45-.37a1.83,1.83,0,0,1-.94.39c-.47,0-.8.27-.88-.23s.11-.59-.32-.72-.34-.49-.54-.71-.42-.48,0-.56.45,0,.51-.16,0,0-.15,0a1.46,1.46,0,0,1-.51.09c-.22,0-1.37,0-1,.77s1,1.88.83,2.43a1,1,0,0,1-1.13.72c-.57-.07-.7-.07-.72.26s-.15.63-.35.44a.67.67,0,0,0-.82-.21c-.39.18-1.14.44-1,.29s.27-.23,0-.29-.14,0-.17-.18-.19-.15-.19.13-.09.23-.11.47-.2.61-.27.42,0-.39-.32-.36-.46,0-.51-.09-.38-.1-.37-.22-.12,0-.09.21.12.28.22.32,0,.14-.15.19-.25.11-.41,0-.39-.25-.36-.14.24.21.21.44,0,.38-.27.28a4.34,4.34,0,0,0-1.85.28c-.74.23-1.57.72-2.07.9s-.84.28-.77.17.28-.22.12-.31-.23-.13-.26-.28-.06-.23-.1,0a.72.72,0,0,0,.05.43c0,.06,0,.17-.13.34s-.66.41-.69.64-.1.72.12.72.52-.08.6.07a.67.67,0,0,1,.1.35c0,.12-.22-.25-.22,0s-.26.3,0,.44.77.24.67.76-.66.64-1,.75-1.21.28-1.24-.37a2.4,2.4,0,0,0-.51-1.37,2.93,2.93,0,0,1-.24-1.47c0-.32,0-.21.24-.43s-.08-.5.26-.63.53-.26.37-.45-.39-.21-.47-.34-.15-.1-.19.05-.13.2-.13,0a.38.38,0,0,0-.25-.38c-.2-.09-.24-.18-.21-.29s-.19-.21-.19,0-.33.12-.15.27.36.25.14.51a1.72,1.72,0,0,1-.84.37c-.28.09-.57.14-.57,0s-.13-.63-.41-.64-.45,0-.44-.21-.07-.51-.17-.32,0,.41-.17.4-.08-.27-.35-.35-.19-.25-.37-.32,0-.32-.15-.41-.47-.24-.51,0-.09.63.14.78.42.19.24.25,0,.39-.26.17-.38-.41-.53-.4-.18.08-.14.27.07.3-.06.39-.21,0-.16-.1,0-.35-.23-.28-.38-.12-.64.17a.88.88,0,0,0-.16.23,2.29,2.29,0,0,0-1.27-.4c-.88,0-1,.32-1.21-.22s-.76-.84-2-1.06-.51-1-.58-1.64-.11-.51.33-1,.32-.77-.95-.81a5,5,0,0,1-3.32-1.42c-1.17-.95-1.1-.62-1.75-.22s-.62,1-1.61,1.86-1.5-.25-2,.59-.15,1.38-1.31,0-.66.51-1.39-.22-.44.36-.8.91-.62.25-1.54-.8-1.24,0-1.75.69a2.33,2.33,0,0,1-.54.48c-.91-.3-1.58-.26-1.85.12s-.5.43-.08,1.31a2.64,2.64,0,0,1,.46,1.69c0,.81.43,1,.08,1.46s-.42,0-.88,0-.54.46-.85.12a10.36,10.36,0,0,1-.8-2l-3.39,1-.69-1.19.08-1L95,136.73a10.68,10.68,0,0,1,1-2.58c.46-.57.69-.53.65-.92s-1.26-.34-1.57-.34a1.23,1.23,0,0,1-1.08-1c-.23-.73-.73-2-.42-2.42s.61-1.08-.08-.81a16.39,16.39,0,0,1-2.76.46c-.77.12-1.27,1.27-1.46.69s1-.92.15-1.8-.58-1,0-1.58.23-.73.38-1.34.62-1,.85-1,.27-1,1.11-1,1.92-.43,1.54-1.27-.92-1-.35-1.77.54-1.23.43-2.65-.49-2.8-1.12-2.88-.3,0-.86-.86-.56-1.46-1.16-1.79-1.08-.64-1.42-.52-.3-.12-.37.82a2.6,2.6,0,0,0,0,.57c-.54-.72-1.1-.51-1.63-.71a5.57,5.57,0,0,0-2.3-.44c-1.14,0,.68-.89.89-1.5a.71.71,0,0,0-1.18-.69c-.56.57-.36-.44.13-1.33s-1.1-.45-1.91.12-.64.81-1.69.85a3,3,0,0,1-2.19-.44c-1.09-.57-1-.33-1.82.48A3.87,3.87,0,0,1,74,110.68c-1.67.27-1.31,1.08-2.16,1.53s-.5.22-1,1.35-.54.49-1.4.54a5,5,0,0,0-2.48.58c-.14-.33.14-.79-.1-1.13s-.87-.36-1.37-.19-.53.28-1.17,0-.45-.16-1.37-.11-.59-.47-1.23-1-1.42.37-2.21.87A4.54,4.54,0,0,0,58,115a10.68,10.68,0,0,1-1.5,1.64c-.11-.45.2-.85.2-1.19a3.42,3.42,0,0,0-.09-2c-.41-.85-1.44-.18-2.43.36s-1,.23-1.75.32a6,6,0,0,1-2.48-.27c-.85-.27-1.35-.72-2.06-.32s-1-.76-1.35-.36-.54.9-1-.18-.9-.72-2.12-.85-1.21-.9-1.61-.86-1.26-.67-1.71-1.84-1.13-.94-2-.63-.67.18-1.48-.85-.68-.81-1.62-1a2.65,2.65,0,0,1-1.89-1.3c-.59-.72-1.08-.63-1.35-1.21s-.45-.5-1.62-.72-1.48.45-1.84,1.3-.72.18-1.13-.58-.67-.49-1.45-.88-.76-.25-.93-1.06-1-.76-1.78-1-1.18-.17-1.68-1-.76-1-1.09-.84-.59.42-1-.11-.12-.61,0-1.79S18.54,97.18,18,96s.13-1.09.48-1.19.64.16,1.67.68,1-.55,1.47-1.06.23-.48.07-1.22-.26-.73-.81-1a2.79,2.79,0,0,1-1.47-1.5,3.1,3.1,0,0,1-.13-1.73A14.51,14.51,0,0,1,21,88.67c.54-.07.54-.1,1-.71A4.37,4.37,0,0,1,23,86.74a6.43,6.43,0,0,0,1.82-2.33c.58-1.22.07-1.7-.38-1.6s-.8-.2-1.38-.9-.8-.61-1.53-1A2.47,2.47,0,0,0,19,81a6.86,6.86,0,0,1-2.44,1.44l-.16.06a19.26,19.26,0,0,0-2.59.06c-1.27.13-1.34-.07-2-.7s-.73-.76-1.33-.4-.6.17-1.34-.66S8.9,79.88,9,78.92s-.2-1-.87-1.47-.4-.93-2.36-1.1a6.13,6.13,0,0,1-1.94-.45,1,1,0,0,0,.07-.15,5.51,5.51,0,0,0,.21-.65,1.73,1.73,0,0,0,1,.14l.72-.44a5.63,5.63,0,0,1-.72-2.37c-.16-1.53-.12-2.22-.93-2.74s-1-.81-2-.57-1.45.65-1.69.12-.56-.76-.08-1,.64-.45.24-.85-.11.29-.36-.72c-.09-.35-.2-.68-.31-1H0c.77-.2,1.25-.07,1.25-1A2.7,2.7,0,0,1,1.91,63,20.55,20.55,0,0,0,4.6,61.85c.2-.23-.5-.84.81-.7s2-1,2.23-.24.23,1.52,1.28,1,1.85-.23,2.12-.77a4.45,4.45,0,0,1,.74-1.49,2.6,2.6,0,0,1,2.26-1c1.31-.1,3-.19,3.37-.73a6.19,6.19,0,0,1,3-2c1.55-.45,2.17-1,3.21-1.29S24.83,54,24.83,54h0c0-.08-.06-1.32-.13-1.79s-.57-1.12.07-1.39.75-.33.77-.79.46-.4.88-.66.84.19-.19-2.24-1.24-3.14-1-4.1.25-1.31-.34-1.24-1.84-.59-.55-1.06,4.61-1.11,5.46-1.34.52.23,1.05.47.48,0,1.51,0,1.68-.36,1.24-.88-1.54,0-.89-1.84,2-6,2.46-6.44,1,0,2,.47,1,.7,2.22.47,1.43-.21,2.11.18,1.29.07,2.48-.6,1-.5.82-2-.66-2.13-.09-3.12.25-1,1.54-1.31,2.36-.51,2.69-1.73.14-1.38,1.24-1.48a1.81,1.81,0,0,0,1-.25,2.18,2.18,0,0,0,.89,0l.93-.1c0,.26,0,.52,0,.73,0,1-.45.37.23,1.14s0,1,1.28,1.55,1.27.45,1.91,1.41a1.69,1.69,0,0,0,2.09.78c.41-.28.91-.32,1.51.45s1.23-.27,2.23,1.23,1.45,2.28,2.14,3.42A3.29,3.29,0,0,1,65,34.54a5.08,5.08,0,0,1-.5,2.6c-.59,1-1.23.68-.73,2s1,1.32,3.1,1.51,3.92.32,6.11.58,2.54.35,4,1.45,2.15,1.58,3.11,1.53.88-.22.92.57,1.23.4,1.32,1.67a3.93,3.93,0,0,0,1.14,3c1.14,1.53.87,1.71,2.15,1.57a13.82,13.82,0,0,1,4.38.14,15,15,0,0,0,4.82.48c1.93-.18,1.88-.75,3.94-.35s3.86,1,5.22,1.18,1,.92,2.32,1.27,2.74.31,3.49.84a2.72,2.72,0,0,0,2.4.75c1.45-.08,1.74-.58,2.32.17s1.36,2.27,2.65.82a11.38,11.38,0,0,1,6.71-3.06c2.82-.37,5.22-.37,7.29-.54a6.65,6.65,0,0,0,3.69-1,12.34,12.34,0,0,0,2.9-2c1.07-1.16.7-1,2.19-1.66S143.44,46.78,142,46a2.27,2.27,0,0,1-1.35-2.8,4,4,0,0,1,1.54-2.3,3,3,0,0,1,3-.08,5.84,5.84,0,0,0,4.18.86c1.48-.39,2.19-2.11,3.08-2.45s2.94-.29,3.78-.57,2.27,0,2.32-1.23.16-3.29,3-3,2.63-.13,3.86-.63.7-.62,3-.58,3.47.22,3.51-.22,1-.54-1.58-2.81-2.45-2.84-3.74-2.9-2.67-.24-3.25.35-.42,1.32-1.31.78a2.74,2.74,0,0,0-2.57-.6c-1.16.34-1.54,1-2.53.42s-1.78-1.41-1-2S156.58,24.7,157,24c.28-.49,1.92-3.72,2.94-5.75,1.74.6,4.55,1.29,4.55,1.29a4.5,4.5,0,0,1,3.16-1.74c1.79,0,2.22-.85,2.31-1.37s-.89-2.65,1.51-5.2,3.5-3,3.64-4.3-.28-1-.19-1.79-2.31.24-2.31-1,.68-1.2,1.78-2.16,2.55-.78,4.47-1.19,3.65-.13,4.65-.5a4.83,4.83,0,0,1,4,.5,5.56,5.56,0,0,0,3.19.78,5.44,5.44,0,0,1,2.88,1.28c1,.73,1.37.54,1.18,1.41s-.22,1,.73,1.41.87.73.83,1.51a6.26,6.26,0,0,0,.86,2.74c.37.59.46,1.09.78,1.23s0,.23.45,1.5a9.58,9.58,0,0,0,1.56,3.15c.73,1,.36.69.27,1.6s.27,2.1,1.73,2.05a6.26,6.26,0,0,1,3.29.55c1.32.55,1.59-.78,2.74.68s1.64,2,2.64,2,1.19.32,1.14,1-.45.82.41,1.32-.59,1.05.05,2,.41,1.23,2.46,1.46,3.93.22,4.34-.5-.23-1.15,1.41-1.24a7.23,7.23,0,0,0,2.65-.64c1.14-.32,2.05-1.41,3.05-.86s.78.68.55,1.27-.68.46.09,1.42-.08,1.13-.81,1.53A2,2,0,0,0,224.86,31c-.2.76-.69,1.94-.85,2.78a3.57,3.57,0,0,1-.64,2.07,8.07,8.07,0,0,0-1.1,1.82c-.28.64-.12.56-.72,1.13s.08,1.61-.85,1.86S219.08,40.2,218,40s-1.62-1-2-.36-.24.93-1.13,1.21S213,41,213.3,42.18a15.85,15.85,0,0,1,.69,4c.08,1.78,1,3.24-.32,3.94s-2.5-.07-2.15.88a2.25,2.25,0,0,1,.11.45,2.6,2.6,0,0,1-.48-.33c-1.09-.94-2.19-2.24-2.6-.47s-.42,1.51-1.21,1.83a2.49,2.49,0,0,0-1.46,1.25c-.41.68.21.68-2.29.73s-1.36.89-1,1.57,1.09,1.61-.16,1.35-2.19-.05-3-.67-1.83-2-2.4-.94-.31,1.87-1.88,2.87-1.88,1.25-2.61,1.77-1,1.31-1.93,1.72a6.81,6.81,0,0,0-2.87,2Zm-22.28,63.6c.08,0,.23,0,.25,0,.09-.37-.17-.18-.2-.34s-.16-.05-.17,0,0,.37.12.39Zm.71.18a.22.22,0,0,1,.11,0c.08,0,.25.08.3,0s.36-.28-.05-.41-.19.09-.46.13c-.08,0-.09.26.1.26Zm-29.46,13.33c.12,0,.14,0,.25.12s.19.1.21,0,0-.12-.14-.21,0-.08-.09-.21-.07.09-.19.11a.55.55,0,0,0-.36.13c-.12.12,0,.13.1.06s.07,0,.22,0Zm.25-.54c0,.15.29,0,.27-.07s.1-.16-.15-.19-.14,0-.23,0,.08.1.11.22Zm-2.1,10.43c.38.12.78-.44,1.19-.86s.71-.05.78-.26.15-.17.32-.42a10.71,10.71,0,0,0,.3-1.51c.15-.59.42-.62.67-1s.22-.45.33-.33.15-.1.42-.29.1-.4,0-.78-.17-.49-.47-.66-.32-.13-.53-.4-.26.07-.34.5-.69.05-1.19-.18-.5-.19-.62.17-.5.35-1.26,0-.59-.07-.82.22-.37.3-.72.15-.14.15-.2.57-1.34,1.07-2.12,1.54-.3,1.33-.21,2.21-.22,1,.5,1.3a14.25,14.25,0,0,0,2.57.92c.92.13.75-.2.87-.54s.28-.35.58-.35Zm36.5-27.37c-.09,0,.14.15.28-.06,0,0,.08-.18.08-.18.28-.23-.08-.27-.08-.37s-.19,0-.19,0c0,.4-.16.14-.09.59Zm1.24-5.37c0,.19-.06.13-.07.21s.36.48.33.13c0-.08-.16-.07-.16-.34,0,0-.1,0-.1,0ZM180,106.6c.17.25.27-.06.16-.11s0-.23-.15-.18-.06.12,0,.29Zm.73-.87c.09.14.15-.07.15-.32s-.18-.38-.46-.46a2.05,2.05,0,0,0-.7-.13c-.2,0,0,.17.3.32A1.87,1.87,0,0,1,180.74,105.73Z" transform="translate(0 0)" fill="#f0ede4" fill-rule="evenodd"/></svg>