<svg xmlns="http://www.w3.org/2000/svg" width="58.87" height="39.25" viewBox="0 0 58.87 39.25"><rect width="58.87" height="39.25" fill="#fff"/><path d="M0,36.23H58.87v3H0v-3ZM0,0H58.87V3H0V0ZM0,6H58.87v3H0V6Zm0,6H58.87v3H0v-3Zm0,6H58.87v3H0v-3Zm0,6H58.87v3H0v-3Zm0,6H58.87v3H0Z" fill="#f30004"/><rect width="29.83" height="21.13" fill="#0132bf"/><path d="M27.55,6l-.27-.83L27,6h-.88l.71.52-.27.84.71-.52.71.52-.27-.84L28.43,6ZM3,2.23l.71-.51H2.82L2.55.88l-.27.84H1.4l.71.51-.27.84.71-.52.71.52L3,2.23Zm5,0,.71-.51H7.77L7.5.88l-.28.84H6.35l.71.51-.27.84.71-.52.71.52-.27-.84Zm4.94,0,.71-.51h-.88L12.44.88l-.27.84h-.88l.71.51-.27.84.71-.52.71.52-.27-.84Zm4.95,0,.71-.51h-.88L17.39.88l-.28.84h-.87l.71.51-.27.84.71-.52.71.52-.27-.84ZM5.59,17l.72-.52H5.43l-.27-.84-.28.84H4l.71.52-.28.83.72-.51.71.51L5.59,17Zm-.43-.15Zm.34-4,.71-.52H5.33l-.27-.83-.27.83H3.91l.71.52-.27.83.71-.51.71.51-.27-.83Zm0-4.1.71-.51H5.35L5.08,7.4l-.27.84H3.93l.71.51-.27.84.71-.52.71.52-.27-.84ZM22.77,2.23l.71-.51H22.6L22.33.88l-.27.84h-.88l.71.51-.27.84.71-.52.71.52-.27-.84Zm4.95,0,.71-.51h-.88L27.28.88,27,1.72h-.88l.71.51-.27.84.71-.52.71.52-.27-.84ZM10.47,8.75l.71-.51H10.3L10,7.4l-.27.84H8.88l.71.51-.27.84L10,9.07l.71.52-.27-.84Zm0,4.1.71-.52h-.88L10,11.5l-.27.83H8.85l.71.52-.27.83.71-.51.71.51-.27-.83Zm.1,4.12.71-.52h-.88l-.27-.84-.27.84H9l.71.52-.27.83.71-.51.71.51L10.54,17Zm-.44-.15Zm5.38.15.72-.52h-.88l-.27-.84-.28.84H13.9l.71.52-.27.83.71-.51.71.51L15.48,17Zm-.09-4.12.71-.52h-.88L15,11.5l-.27.83H13.8l.71.52-.27.83.71-.51.71.51-.27-.83Zm0-4.1.71-.51h-.88L15,7.4l-.27.84h-.88l.71.51-.27.84L15,9.07l.71.52-.27-.84ZM5.46,4.35l.71-.52H5.29L5,3l-.27.83H3.87l.71.52-.27.84L5,4.67l.71.52-.27-.84Zm5,0,.71-.52h-.88L10,3l-.27.83H8.82l.71.52-.27.84L10,4.67l.71.52-.27-.84Zm10,4.4.71-.51h-.88l-.27-.84-.27.84h-.88l.71.51-.27.84.71-.52.71.52-.27-.84Zm0,4.1.71-.52h-.88l-.27-.83-.27.83h-.88l.71.52-.27.83.71-.51.71.51-.27-.83Zm.1,4.12.71-.52h-.88L20,15.61l-.27.84h-.88l.71.52-.27.83.71-.51.71.51L20.43,17Zm4.95,0,.71-.52h-.88l-.27-.84-.28.84h-.87l.71.52-.27.83.71-.51.71.51L25.38,17Zm-.44-.15Zm.34-4,.71-.52h-.88l-.27-.83-.27.83h-.88l.71.52-.27.83.71-.51.71.51-.27-.83Zm0-4.1L26,8.24h-.88l-.27-.84-.27.84h-.88l.71.51-.27.84.71-.52.71.52-.27-.84Zm-10-4.4.71-.52h-.87L14.91,3l-.27.83h-.88l.71.52-.27.84.71-.52.71.52-.27-.84Zm5,0L21,3.83h-.88L19.86,3l-.27.83h-.88l.71.52-.27.84.71-.52.71.52-.27-.84Zm4.94,0L26,3.83h-.87L24.8,3l-.27.83h-.88l.71.52-.27.84.71-.52.71.52-.27-.84ZM3.12,19.09l.71-.52H3l-.27-.84-.27.84H1.53l.71.52L2,19.92l.71-.52.71.52-.27-.83ZM3,15l.71-.52H2.86l-.27-.83-.28.83H1.44l.71.52-.28.83.72-.51.71.51L3,15Zm0-4.1.71-.51H2.88l-.27-.84-.27.84H1.46l.71.51-.27.84.71-.52.71.52-.27-.84Zm4.94,0,.72-.51H7.83l-.27-.84-.28.84H6.41l.71.51-.27.84.71-.52.71.52L8,10.87ZM8,15l.71-.52H7.8l-.27-.83-.27.83H6.38l.71.52-.27.83.71-.51.71.51L8,15Zm.1,4.12.71-.52H7.9l-.27-.84-.27.84H6.48l.71.52-.27.83.71-.52.71.52-.27-.83Zm4.94,0,.71-.52h-.88l-.27-.84-.27.84h-.88l.71.52-.27.83.71-.52.71.52L13,19.09ZM12.91,15l.72-.52h-.88l-.27-.83-.28.83h-.87L12,15l-.27.83.71-.51.71.51L12.91,15Zm0-4.1.71-.51h-.88l-.27-.84-.27.84h-.88l.71.51-.27.84.71-.52.71.52-.27-.84ZM3,6.47,3.7,6H2.82l-.27-.83L2.28,6H1.4l.71.52-.27.84.71-.52.71.52L3,6.47Zm5,0L8.65,6H7.77L7.5,5.12,7.22,6H6.35l.71.52-.27.84.71-.52.71.52-.27-.84Zm10,4.4.71-.51h-.88l-.27-.84-.28.84H16.3l.71.51-.27.84.71-.52.71.52-.27-.84Zm0,4.1.71-.52h-.88l-.27-.83-.27.83h-.88L17,15l-.27.83.71-.51.71.51L17.86,15Zm.1,4.12.71-.52h-.88l-.27-.84-.27.84h-.88l.71.52-.27.83.71-.52.71.52L18,19.09Zm4.94,0,.71-.52h-.87l-.28-.84-.27.84h-.88l.71.52-.27.83.71-.52.71.52-.27-.83Zm5,0,.71-.52h-.88l-.27-.84-.27.84h-.88l.71.52-.27.83.71-.52.71.52-.27-.83ZM22.8,15l.71-.52h-.87l-.27-.83-.28.83h-.87l.71.52-.27.83.71-.51.71.51L22.8,15Zm4.95,0,.71-.52h-.88l-.27-.83-.27.83h-.88l.71.52-.27.83.71-.51.71.51L27.75,15Zm-4.92-4.1.71-.51h-.88l-.27-.84-.27.84h-.88l.71.51-.27.84.71-.52.71.52-.27-.84Zm5,0,.71-.51h-.88l-.27-.84-.28.84h-.87l.71.51-.27.84.71-.52.71.52-.27-.84Zm-14.9-4.4L13.59,6h-.88l-.27-.83L12.17,6h-.88l.71.52-.27.84.71-.52.71.52-.27-.84Zm4.95,0L18.54,6h-.88l-.27-.83L17.11,6h-.87l.71.52-.27.84.71-.52.71.52-.27-.84Zm4.94,0L23.48,6H22.6l-.27-.83L22.06,6h-.88l.71.52-.27.84.71-.52.71.52Z" fill="#fff"/></svg>