<svg xmlns="http://www.w3.org/2000/svg" width="57.18" height="38.12" viewBox="0 0 57.18 38.12"><rect width="57.18" height="38.12" fill="#f30004"/><path d="M9.53,3.81l1.3,4h4.23l-3.43,2.48,1.32,4L9.53,11.84,6.11,14.33l1.32-4L4,7.83H8.23l1.3-4ZM21,17.16l-1.35.45,0,1.42-.85-1.14-1.35.46.82-1.16-.85-1.13,1.36.42.81-1.16,0,1.42,1.36.42Zm3.74-4.39-1.17.82L24,14.94l-1.13-.85-1.17.81.47-1.34L21,12.71l1.42,0,.46-1.34.42,1.36,1.42,0ZM24.4,6.45l-.82,1.16.85,1.14-1.35-.42-.82,1.16,0-1.42-1.35-.42,1.34-.45,0-1.42.85,1.14,1.34-.47ZM19.72,2l0,1.42,1.35.45-1.36.42V5.69l-.82-1.16L17.51,5l.85-1.14-.83-1.16,1.35.46Z" fill="#ffdb00" fill-rule="evenodd"/></svg>