<svg xmlns="http://www.w3.org/2000/svg" width="41.1" height="42.52" viewBox="0 0 41.1 42.52"><path d="M41.1,42.52c-1.1-3-3.36-14.66-7.47-17.89a8.35,8.35,0,0,0-5.57-1.95c-2,.05-13,.05-15,0a8.35,8.35,0,0,0-5.57,1.95C3.36,27.86,1.1,39.48,0,42.52Z" fill="#00a499"/><polygon points="20 32.29 25.1 22.75 22.79 20.95 24.7 19.89 27.64 9.86 25.6 5.42 16.13 4.9 13.68 8.56 13.46 13.56 14.99 19.41 16.35 20.72 15.01 23.22 20 32.29" fill="#f0efdd"/><polygon points="13.95 15.39 13.24 15.37 11.73 9.19 12.77 7.04 12.82 5.36 14.74 1.18 16.73 1.49 22.06 0 28.73 3.93 27.47 15.39 25.99 15.39 26.56 11.54 25.6 9.94 26.19 7.76 17.09 5.87 14.47 9.38 13.95 15.39"/></svg>