<svg xmlns="http://www.w3.org/2000/svg" width="214.06" height="106.6" viewBox="0 0 214.06 106.6"><path d="M214.06,21.08a1.64,1.64,0,0,1-.33.6c-.35.42,0,.5-.64.36s-.65-.21-1,.06-.87.1-1,.37-.05.65-.19.66-.12-.29-.26-.26-.2.2-.28.37-.07.1-.23-.15a.78.78,0,0,0-.7-.42c-.37,0-.64-.14-.77.36s0,.74-.14.83,0-.25-.53-.2-.6-.08-.4-.31.33-.31.12-.31-.22-.1-.05-.24.17-.35,0-.4-.3.34-.43.58a10,10,0,0,1-.6.93c-.25.34-.37.29-.26.55a.4.4,0,0,1-.2.58c-.22.08-.52.16-.61,0s-.31-.27-.38-.08a.58.58,0,0,1-.4.36c-.24.09,0,.36-.26.48s-.05-.47-.16-.55-.12.16-.19.34-.06.45-.16.47-.12-.14-.09-.39.07-.52,0-.56-.11.23-.11.44.07.42,0,.46-.08-.09-.24-.19a.77.77,0,0,0-1.05.57,3.13,3.13,0,0,1-1.13,1.71,2.59,2.59,0,0,0-1.22,2c-.05,1,0,1.29.42,1s.43-.21.31.05-.26.2-.56.34-.35.36-.71.64-.63.28-.37.59a.64.64,0,0,0,.66.3c.21,0,.53.14.79.87s0,1.45.92,1.47,1.14,0,1.23-.3.12-.41-.09-.73-.12-.33-.4-.45.15-.28.4.07a1.68,1.68,0,0,1,.4.87c.11.49.21.79-.4.82a6.77,6.77,0,0,1-1.35-.09c-.45,0-.62,0-.71-.14a.36.36,0,0,0-.47,0c-.23.12-.32.26-.75.51s-.67.63-.74.19,0-.59.06-.72,0-.24-.23-.12-.12.11-.37,0-.35-.28-.4.35,0,1.47-.77,1.48-2.3,0-3.46.1a6.62,6.62,0,0,0-2.52.61,7.92,7.92,0,0,0-1.91.94c-.34.33-.44.64,0,.61s.21-.48.78-.52a4.41,4.41,0,0,0,1.94-.09,11.35,11.35,0,0,0,2-.66c.49-.31.74-.36.84-.27s-1,1-.2.69a2.75,2.75,0,0,1,1.5-.17c.32,0,.13.1-.5.4a25.54,25.54,0,0,1-2.94.84,14.1,14.1,0,0,1-2.84.58c-.63,0-.42-.09-1.12-.12s-.89-.08-1.1.27-1.15.68-.17.77,1,.35.78,1.16-.61,1.37-.54,1.77,0,.57-.17.75-.5.44-.71.66.12.09-.21.38-.59.26-.62.51-.41.34-.43.6a1.24,1.24,0,0,1-.38.65c-.16.21-.35.18-.23-.25s.16-.53,0-.63a1.46,1.46,0,0,0-.61-.18c-.28,0-.42-.27-.81-.56a1.87,1.87,0,0,1-.81-1,1,1,0,0,1,.47-1.09,7.11,7.11,0,0,0,.86-.57,1.53,1.53,0,0,0,.43-.46,10,10,0,0,1-1,.71,3.18,3.18,0,0,0-1,.74c-.14.24-.5.35-.06,1a3.78,3.78,0,0,1,.55,1.22,3.6,3.6,0,0,0,.71,1.25c.35.4.5.32.5.58s-.2.43-.28.61,0,.24.31.21.27.49.22.71a16.49,16.49,0,0,1-.71,1.7c-.24.5-.4.59-.53.66s.12-.31.28-.63.42-.63.54-.93a2,2,0,0,0,.27-.82c0-.18-.14-.1-.34.24a11.35,11.35,0,0,0-.89,1.6c-.34.77-.55,1.13-.69,1.54s-.05.39-.43.7-.51.15-.53.69-.8,1.13-.53-.24a4.17,4.17,0,0,1,1-2.09c.25-.42.37-.47,0-.43s-.6.21-.64-.07.57-.34.29-.54-.37-.27-.22-.53a.72.72,0,0,0,.1-.65c-.08-.2-.39,0-.38.33s-.34-.34-.35,0-.13.17-.31-.14-.31-.47-.39-.28-.38-.26-.39-.34.05-.06.26-.16.48-.42.23-.28-.26,0-.21-.12.2-.21.4-.07.41.29.51.14.29,0-.19-.22-.82-.22-.65-.4.61-.12.43-.33-.3-.71-.52-.56-.26.18-.32.11,0-.55.16-.47.52.1.61-.12.38-.51,0-.43-.4,0-.35-.22a.81.81,0,0,1,.28-.59.77.77,0,0,1,.49-.13c.24,0,.38-.06.23-.15s-.27-.29,0-.38.42-.12.42-.28,0-.25-.38-.07a3.41,3.41,0,0,1-.84.39,1,1,0,0,0-.55.3A2.07,2.07,0,0,1,179,46c-.22.11-.43.08-.44.29s-.09.2.15.43.42.45.32.53-.35-.11-.18.21.25.38.12.75a1.29,1.29,0,0,0-.13.85,1.18,1.18,0,0,0,.31.66c.25.25.32.25.14.27a.83.83,0,0,1-.76-.42c-.13-.31-.11-.59-.26-.47s.24.59.33.86a.66.66,0,0,0,.59.41c.23,0,.15.2.31.57s.14.55-.08.47-.75-.69-.92-.81-.74-.6-.89-.44-.32.24-.44,0-.18-.45-.33-.4-.32.12-.37.25-.17.07-.29,0,.22-.33.36-.57a.63.63,0,0,0,.07-.57c0-.18-.09.16-.23.38a2.39,2.39,0,0,0-.48.9c0,.24.31.13.53,0a.43.43,0,0,1,.57.3c.09.28.6.52,1,.61s.87.49,1.26.65.68.41.55.75-.22.81-.47.65-.39-.21-.41-.07.3.34.6.55.46.5.32.75-.11.3-.33.37-.23,0-.12.35a1.44,1.44,0,0,1,.1.81c-.07.24-.34.13-.48-.08a1.42,1.42,0,0,0-.5-.46,3.56,3.56,0,0,0-1.14-.61,2.57,2.57,0,0,0-.75-.13c-.39,0-.38,0-.51.09s.59-.1,1.36.27,1,.35,1.26.9-.1.72.31.76a.64.64,0,0,0,.62-.23c.09-.09.19-.22.48,0s.59-.13.73.1a7.22,7.22,0,0,1,.49,1.3c.09.35.11.38,0,.51s-.08-.19-.11-.33-.1-.49-.22-.58-.1.15-.18.34-.31.06-.19.32l.45.94a4,4,0,0,1,.36.8c0,.13,0,.12-.1,0s-.48-.89-.47-.67,0,.24,0,.36-.07.08-.26,0-.46-.51-.58-.38.14.28.31.47.07.22-.18.13-.38-.13-.42-.07.28.21.08.25a.53.53,0,0,1-.47-.15c-.07-.09-.28-.2-.29-.1s.41.26.27.39a1.46,1.46,0,0,1-.77.28c-.24,0-.33-.15-.44-.35s-.06-.29,0-.46.06-.22,0-.37-.13.35-.13.5a1.9,1.9,0,0,0,0,.75c.1.26,0,.29.41.27s.52-.1.83,0,.33,0,.55-.07.44-.32.63-.16.21.13.1.44a1.06,1.06,0,0,0-.07.73c.08.22.26.1.24-.19s-.17-.52.32-.61.84.19.73.58-.15.86-1.2,1.25-1.16.45-1.34.26-.52,0-.56-.25.13-.34-.09-.37-.16.11-.08.32,0,.32-.28.22-.58,0-.83-.17-.41-.14-.57-.26.06.19.36.32a3,3,0,0,0,.77.27c.32.06.75.22.83.47s.12.33-.28.58a1.45,1.45,0,0,1-1,.32c-.33,0-.35-.11-.43-.26s-.17-.17-.24,0,.18.32.28.55.2.27.44.37a.41.41,0,0,0,.52-.1.42.42,0,0,1,.5,0c.11.06.18,0,.28-.15s.36-.09.32,0,.19,0,.3,0,.22,0,.23.1-.12,0-.28.23a.9.9,0,0,1-.67.29,1.27,1.27,0,0,0-.64.17c-.17.1-.38.06-.58.17s-.49.21-.22.18.55-.07.58,0-.2.08-.36.08a1,1,0,0,0-.51.09c-.16.08-.16-.09-.06-.12s.09-.09-.14-.09-.14-.18-.38-.18a.86.86,0,0,0-.45.13c-.17.07-.23.1-.37,0s-.21.11-.13.19.12.14,0,.28.2.25-.07.47a5.86,5.86,0,0,0-1.43,1.37c-.26.51-.44-.09-.55.43s0,.67-.41.69-1.65-.13-2.18.25a6.14,6.14,0,0,0-1.69,1.63c-.22.52-.16.63-.29.8s-.09-.12-.15-.28-.06-.25-.18-.12-.27.31,0,.47.33.2.17.43-.52.17-.73.47-.62.38-.71.53a1.16,1.16,0,0,1-.51.41c-.21.06-.24.12-.37,0s-.34-.28-.36-.08-.1.6-.29.67-.7,0-.9.19-.42.19-.52.31-.21.13-.28,0a.31.31,0,0,0-.29-.11c-.14,0-.38,0-.33.1a.25.25,0,0,0,.29.17.32.32,0,0,1,.42.22c.1.26.15.32,0,.34s-.55.13-.59-.07,0-.41-.21-.34-.27,0-.29-.12,0-.27-.19-.26-.13.21.06.53,0,.47.27.63.28.2.11.37a9.74,9.74,0,0,0-.85.83c-.37.43-.4.87-.68.92s-.51-.34-.53.06.11.27,0,.49-.2.39,0,.41,0,.14-.24.32-.23.32-.1.49.33.18.25.35-.66-.07-.77.56a9.84,9.84,0,0,0,.73,4.67,25.62,25.62,0,0,0,2.21,4.77c.54.78.64,1.13.55,1.64s-.35.52-.28.25.21-.88-.06-1-.31,0-.38-.29a.65.65,0,0,0-.29-.47c-.15-.12,0,.4.2,1s.5,1.39.72,1.93,1,2.26,1.2,2.85.55.58.62,1.88.17,4.1-.6,5.36-.89.9-1.33,1.16-.31.11-.79.12a1.52,1.52,0,0,0-.69.09c-.29.1-.35-.19-.28-.41s.31-.08.42,0,.48.16,0-.4-1.68-1.75-2-2-.21-.29-.48-.3-.39.1-.38-.52a2.08,2.08,0,0,0-.31-1.31c-.2-.26-.54-.4-.31-.56a1.6,1.6,0,0,0,.38-.55c.09-.13-.14.07-.37.28s-.2.3-.37.29-.16-.13-.14-.38,0-.75,0-.89,0-.27.22-.34,0-.23-.11-.23a.8.8,0,0,0-.38.24c-.12.13-.11.26-.18.4s-.17,0-.3-.23a7.35,7.35,0,0,1-1-1.53c-.16-.48-.42-.65-.29-.9s.54-.78.68-1a.58.58,0,0,0,0-.6c-.08-.14-.1.13-.26.24s-.2.16-.34,0-.21-.29-.26-.23,0,.11.13.32a.37.37,0,0,1-.2.55c-.23.08-.37-.22-.52-.51s-.14-.42,0-.61-.07-.55.34-1.32.59-2.62-.16-3.25a11,11,0,0,1-2.25-1.86c-.44-.7-1.67-2.34-2.82-2S147.41,86,147,86.16s-.44.09-.76-.44-.66-.49-.9-.76-.3-.21-.27-.4.64.49.8.33-.47-.44-.71-.58-.35-.09-.24-.22.33.11.33-.18-.41-.15-.72,0-.32.17,0,.26.43.33-.06.23-.43-.18-1.13-.62-.75-.42-.63-.55.54.38.61.08,0-.23-.48-.23a5.81,5.81,0,0,0-1,.09,5,5,0,0,0-1.17.19c-.41.14-.44,0-.75.2s-.72.28-.78.17,0-.22.4-.29a2,2,0,0,0,.69-.18c.33-.15.11-.29,0-.47s-.19-.26-.33-.07-.27.25-.35.09-.23-.17-.2,0,.06.38-.11.53a1.86,1.86,0,0,1-.5.36c-.19.1-.22.18-.41,0s.05-.23,0-.48-.14.11-.28.31-.21.3-.39.37-.35.35-.46-.23-.12-.42-.5-.56-.2-.22-.06-.47-.1-.3-.21-.47-.37.09-.37.39.2,1-.42,1-1.88-.24-2.59-.3a2.81,2.81,0,0,0-1.81.42c-.49.33-.57.65-1.38.3a2.6,2.6,0,0,0-2.08,0c-.39.22-.76.65-.16.7a9.13,9.13,0,0,0,1.89,0c.4-.06.4-.12.43,0s-.59.21-.34.42.36.64.67.12.61-.53.72-.26.54.81.13.81-.71.11-.72.27a.33.33,0,0,0,.25.32c.14,0,0,0-.4.11s-.35.22-.13.4a4.74,4.74,0,0,1,.59.48c.18.22.08.08.49.18s.53,0,.76.28.44.18.49.55-.23.42-.4.67-.57,0-.78.16-.14-.36.06-.44.55-.36.18-.37-.46.18-.58-.16-.25-.12-.72-.55a5.81,5.81,0,0,0-.7-.64c-.36-.25-.29-.14-.75-.28s-.61-.17-.53,0,.33.31.44.51-.13,0-.15.43.23.38,0,.63-.47.52-.49.11.14-.48-.24-.66-.44-.35-.74-.08,0,.59-.71.67a1.34,1.34,0,0,1-1.33-.49c-.42-.38-.75-.62-.74-.89s.1-.35,0-.53.19.76-.28.49-1-.33-1.08-.77-.16-.4-.56-.51-.59.06-1.11.16-.55.24-.24.5.5.26,0,.35a2.24,2.24,0,0,1-1.73-.34c-.9-.44-.72-.29-1.35-.58s-.74-.26-.9-.49-.26-.33-.29-.54-.24-.17-.19.11.09.3-.1.41-.33.25-.19.35.41.19,0,.23a3.46,3.46,0,0,0-1.09.18c-.37.15-.49.22-.43,0a4.71,4.71,0,0,1,.16-.55c.1-.23,0-.64-.12-.32a2.17,2.17,0,0,0-.28.8c0,.14.14.26-.27.29a3.42,3.42,0,0,0-1.69.54c-.75.47-.86.52-1.08.68s-.31,0-.16-.14.06-.16.33-.24.6-.24.34-.24-.79,0-.7-.22.41-.56.23-.73-.42,0-.62.25-.25.2-.37.06-.12-.19-.26,0,.23.1.13.43.18.25.29.39-.14.26.08.41.37.11.1.27-.37.39-.83.48-.45.35-.74.78a2.13,2.13,0,0,1-1.41,1c-.6,0-.83.1-.83.25s.61.06.31.18a2.9,2.9,0,0,0-.73.36c-.31.23-.31.2-.49.23s0-.28.25-.28.34,0,.24-.13-.22,0-.49,0-.3,0-.23-.26-.09-.25-.22,0-.24.35-.31,0-.14-.41-.28-.36.06.2.06.33,0,.36-.22.24-.16-.53-.46-.43-.08.44.1.55.79.43.52.58-.66.6-.84.42-.41-.68-.57-.54a.88.88,0,0,0-.38.68c0,.37-.12.33-.25.5s-.18.15-.18,0,0,0-.2,0-.2.22-.09.27.29,0,.25.14a4.54,4.54,0,0,1-.49.88c-.14.17-.14.21-.18.07s-.13-.2-.31-.2-.73-.12-.74,0,0,0,.3.23.47.24.53.56,0,.25-.16.62-.21.81-.63.84-.51,0-.66-.26-.25-.43-.44-.33.12.37.15.58.21.3.5.29.64-.22.62.25-.44.63-.43,1.18a4.32,4.32,0,0,0,.42,1.66c.26.61.27,1.14.59,2.23l0,.13a1.74,1.74,0,0,1-1.11-.35c-.87-.63-.67-.26-1.75-.26s-1.6-.74-3.08-1.31-1-.64-1.64-2a4.66,4.66,0,0,1-.74-2.42c0-.8-.5-.63-1.58-1.94a27.84,27.84,0,0,1-2.71-4.46c-.87-1.61-1.29-1.35-2.17-2.48s-1.54-.27-2.89-.81-1.1.22-2.13.61S80.84,88,80,88.79s-1.89-.29-3.35-1a3.83,3.83,0,0,1-2.52-3.05,5.44,5.44,0,0,0-2.29-3.29,23.82,23.82,0,0,0-2.77-2,5,5,0,0,1-1.72-1.57s-4.1-.1-5.32-.08-1,.14-1.07.74a2.45,2.45,0,0,1-.25,1s-2,0-6.72.06-4.4-.5-5.86-.82S40,75.51,38,75.12s-1.14-1.19-1.14-1.19-6,.55-8.71.78c-.23-.54-.43-1.06-.59-1.5-.59-1.65-.65-1.7-1.5-2.36a5.82,5.82,0,0,0-2-1.28c-.61-.13-.77-.12-1-.59a1.14,1.14,0,0,0-1.17-.61c-.42.07-.89-.25-1.49-.76a2.21,2.21,0,0,0-1.77-.77,6.94,6.94,0,0,1-2.43-.3c-.92-.32-1.11-.17-1.11-1s.23-1,0-1.32-.77-.54-.87-1-2-2.17-2.62-3a4.87,4.87,0,0,1-1.09-1.75c-.2-.69-.52-.9-.16-1s.58-.24.52-.67-.13-.55-.6-.74S9,55.66,8.76,54.9s-.39-.45-.5-1.28-.14-.84.1-1.13.27.1.27.46.08.28.42.64.47.5.69.38,0-.35-.32-.79A2.17,2.17,0,0,1,8.75,52c0-.45-.09-.42.6-.4s.54-.27,1-.15a1.11,1.11,0,0,0,.87,0c.25-.12.29-.14.61,0s.52,0,.3,0a1,1,0,0,0-.82-.15c-.43.1-.41.17-.76,0s-.49-.3-.66-.1-.29.25-.71.07-.55-.24-.7-.09-.17-.12-.16.42.17,1-.22.73A10.78,10.78,0,0,1,6.3,50.86c-.54-.59-2-2.5-2.36-3s.09-.76-.33-1.37-.34-.69-.14-1.26-.15-1.47-1.09-2.69-1.49-1.9-.68-2.66.68-.85.47-.71S1.81,39.56,2,39A28.25,28.25,0,0,0,2,35c0-1-.06-.5-.54-1.36a2.65,2.65,0,0,1-.33-2c.09-.73-.8-.7-.36-1.65a8.08,8.08,0,0,1,.94-1.8c.23-.19.37-.08.3-.32s-.1-.35-.22-.17-.35.35-.19,0A14.5,14.5,0,0,0,2.38,23a4.43,4.43,0,0,1,.31-2.53,3,3,0,0,0,.15-1.8c-.12-.87.13-1-.06-1.85s.23-.94.06-1.41-.12-.53.29-.25.82.11,1.26.08.38-.14.75-.13.82,0,.34-.14a4.43,4.43,0,0,0-1.29-.19,10.2,10.2,0,0,0-1-.11c-.63,0-.78.16-.71-.16s-.09-1.21,0-1.41.06,0,.07.29,0,.59.14.67S3,13.91,3,13.6A1.48,1.48,0,0,0,3,13c0-.22.09-.24.25-.3s.17-.37-.17-.33-.46.12-.67,0-.3-.37-.15-.53.21.16.31,0,.18-.29.38-.27.31,0,.34-.15-.08,0-.29-.08-.31-.26-.51-.23-.14,0-.33.23-.2,0-.14-.39-.13-.55-.43-1.11S1.5,9.24,1,8.25,0,6.75,0,5.68c0-.55.12-1,.13-1.35.5.17,1.07.36,1.73.54a9.08,9.08,0,0,0,3.19.43c.3.22.64.16.88.5s.46.68.81.69.16,0,.26-.21.31-.27.29,0a.45.45,0,0,0,.25.51c.22.16.42.25.14.45s-.48.68-.62.59.21-.33,0-.42-.28,0-.28.3a.8.8,0,0,1-.4.68c-.28.21-.66.77-.48,1.1s.27.15.48.07.33-.07.34-.2-.13-.2-.21-.07a.23.23,0,0,1-.35.07c-.14-.08-.15-.3.13-.5s.42-.64.73-.73.16-.3.49-.49S7.91,7,8.07,7s.08.11.18.38.14.35-.08.39-.41-.07-.43.15.06.16.16.46.33.4.2.76-.19.59-.38.61.06-.33-.07-.36-.12.14-.23.28a.65.65,0,0,0-.15.5c0,.18-.27.14-.24-.14a1.42,1.42,0,0,1,.11-.52c.07-.24,0-.19-.14,0s-.23.2-.37.44a2.44,2.44,0,0,1-.3.46c-.12.16-.13.15-.07.27s.18-.11.23.06-.26.37.34.13A4.26,4.26,0,0,0,8,10.36,1.88,1.88,0,0,0,8.85,9c0-.34-.14-.14-.2-.43s.15.09.06-.38-.16-.49.06-.9.11-.45.42-.56.12-.36,0-.4a.6.6,0,0,1-.4-.62c0-.39,0-.57-.21-.75A2,2,0,0,0,8,4.66c-.13-.06,0-.06.13-.24s.08-.26.24-.5,0-.24-.07-.53S8.17,3,7.93,3s-.33-.12-.48-.35-.27-.41-.51-.75h102.6L109.65,0s1.06,0,1.24.88.66,2.09,1.29,2.24,1.17.91,2.49.84,1-.81,2.46-.33,2.38.44,2.56,1.06.37.92.77.55a.94.94,0,0,1,1.47.22c.51.63,1.28,1.29,2.34.59s1.29-.62,1.87,0,1.76.4,3,.48c.44,0,.86,0,1.25,0a23.86,23.86,0,0,1-3.17,1.19c-1.4.44-5.35,3.87-6,4.42s.68.41,1.37.38,2-.85,2.79-1,.51.4.22.71.53.66,1.12.87.42.11,1.45-.35,1.64-.76,2.27-1,2.34-1.14,2.84-1.38.51-.2.62.08a4.16,4.16,0,0,0,.5.7c.2.29.07.82,0,1.19s.43-.33.79-.65.41-.11,1.23-.07,1.25.69,1.69,1.27.87.52,1.46.52.76.33,1.39.36.65-.09,1.09-.43a3.36,3.36,0,0,1,1.93-.54,18.38,18.38,0,0,0,3-.41c.39-.15.29.14.33.52s.45.28.91.31h0c.09.33.3.57.85.42,1.07-.28,1.31-.77,1.4.28s-.28,1.43.79,1.47c.59,0,.59-.06.57-.16a2.61,2.61,0,0,0,1,.35.73.73,0,0,1,.57.9c-.1.35-.31.26-.78-.19s-.56-.06-1-.24a2.08,2.08,0,0,0-1.23-.08,2.37,2.37,0,0,1-1.46-.29c-.52-.26-.64.43-.73.75s-.31.25-.63-.14a2.64,2.64,0,0,0-1.56-.83,1.86,1.86,0,0,0-1.12.42c-.3.26-.49.07-.86.23s-.48-.08-1.1-.06-.73.73-1,.82a.69.69,0,0,0-.47.36c-.16.23-.5.65-.59.35s.13-.42.35-.59.29-.23.29-.44-.32-.18-.55-.06-.34,0-.49.26a1.15,1.15,0,0,1-.49.51c-.24.15-.1-.25-.08-.61s-.1-.26-.25.09a2.73,2.73,0,0,1-.44.69,5.94,5.94,0,0,0-.51.76c-.27.5-.77,1.25-1.21,1.88s-.75.52-.82.82-.07.29-.4.67-.33,1,0,1,.56-.43.86-.83a1.12,1.12,0,0,1,.89-.52c.39-.05.23-.23.33-.58s.14-.22.42-.58a4.2,4.2,0,0,0,.56-.73c.19-.35.18,0,.14.54a1.86,1.86,0,0,1-.86,1.39c-.45.22-.07.24-.44,1.09s-1.34,4.29-1.66,5.54.22,2.47.25,4.19.18,1.48.85,2.86,1.69.9,2.38.44a8.77,8.77,0,0,0,2.36-3.29,6.47,6.47,0,0,0,.14-3.34c0-.56-.44-.29-.66-1.14-.19-.5.08-1.62-.09-2.19a1.77,1.77,0,0,1,.1-1.34,8.28,8.28,0,0,1,.51-1.84c.38-.78.44-.38.63-.8s.52-.5.63-.69.13-.15.46,0,.29-.5.59-.93.36-.16.25.27a3.52,3.52,0,0,0-.16,1c0,.44.24.25.34-.12s.14-.53.36-.26.14-.16.21-1,.33-.63.73-.74.71-.08.95-.27-.22-.34-.35-.8a.66.66,0,0,1,.32-.84c.27-.19.6-.06,1.15.15s.64.28,1,.39a2,2,0,0,1,.95.45,5,5,0,0,0,1.79.74c.86.25,1,.13,1,.43a1.93,1.93,0,0,0,.17.68c.11.35.35.4.06.52s-.31-.28-.44.08.36.54.51,1.32.14,1.66-.54,2-.23.91-.77,1.11a1.7,1.7,0,0,0-1,.7c-.26.35-.49.93.06,1s1.48-.64,2.49-1.28,1.48-.46,2,.27a7.9,7.9,0,0,1,.62,3.41,2.46,2.46,0,0,1-1,2.32.94.94,0,0,0-.34.87,2.41,2.41,0,0,0-.75.66,1.58,1.58,0,0,0-.23,1.34,1.55,1.55,0,0,0-1,.86c-.34.61.08.39.44.51a8.87,8.87,0,0,1,1.88.54c.57.15.13.35-.57.38s-.07.21.64.34a4.72,4.72,0,0,0,1.44,0c.44,0,.94-.3,1.77-.33a2.14,2.14,0,0,0,1.63-.68,5.39,5.39,0,0,1,2.3-1.19,24.71,24.71,0,0,0,3.4-1.31c.94-.47,2-1.24,2.84-1.78s.69-.91.62-1.38c0,0,0,0,0,0a1,1,0,0,0,0-.47c-.14-.45-.29-.82-.4-1.14a25.8,25.8,0,0,1,3.9-.58c1.23,0,1.2.32,1.93.47a6.52,6.52,0,0,0,1.58.05,4.87,4.87,0,0,0,.89,0,2.64,2.64,0,0,0,1.27-.7c.38-.3.37-.43.81-.46s.39.09.45-.17a1.46,1.46,0,0,0-.1-.9c-.16-.33-.28-.1-.13-.4s.51-.24.51-.51-.21-.09-.23-.3a3.33,3.33,0,0,1,.13-.94.51.51,0,0,0,0-.21A21,21,0,0,1,182.66,22c2.24-1.41,1.32-1.57,6-1.49s8.42.58,8.8-.17-.46-1.24,1.62-1,2-.79,2.4-1.62a22.24,22.24,0,0,1,1.38-3.41c.87-1.54,2.78-6.11,3.39-5.14s.79,1.42,2,.91,1.85-.73,2.43.82a9.39,9.39,0,0,1,.48,4c0,1.61-.51,2,.27,2.34s.85,0,1.07,1,.27,1.67.75,1.82.42.19.8,1Zm-68.85-3.41c.13-.23.09-.23.26-.35s.27-.46.05-.33-.72.78-.31.68Zm-10.54-6.39a12.4,12.4,0,0,1,1.42-1.3c.37-.31.37-.55.72-.57s.71-.13.27-.21a2.3,2.3,0,0,0-1.35-.15c-.48.19-1.41.64-1.5,1s-.32.41,0,.54.34.07.34.32-.05.43.09.41ZM131.88,7c-.19.55,1.74-.82,2.09-1s.48-.23.45-.42-.2-.24-.4,0a4.76,4.76,0,0,1-1,.63c-.39.23-.83.57-1.16.79Zm-114.69,62c.29-.08.27-.38.07-.37a1.27,1.27,0,0,1-.52-.09c-.22-.07-.2.13.05.27s.28.28.4.19Zm-1.1-.53c.09-.08-.05-.19-.18-.14s0,.16.18.14Zm2.37.36c.27,0,.36-.12.62-.2s.32-.31,0-.25-.34-.07-.75-.11-.47.12-.28.28.2.25.46.28Zm5,2.68c.37,0,.43-.19.24-.19s-.29-.2-.44-.28-.37.09-.09.25,0,.12.29.22Zm-.16,2c.37,0,.35-.16.14-.24s-.15-.19-.34-.44-.22.21-.06.44,0,.17.26.24ZM200.82,37c.35,0,.23-.09.26-.28s-.21-.23-.61,0,0,.24.35.26Zm2.08.47c.15,0,.1-.24.09-.45s-.08-.24-.14-.06-.09.15-.34.32.16.2.39.19Zm-24,28.5c0,.27.29-.12.43-.34s.28-.49.49-.54.11-.36-.06-.24-.23.3-.48.57a2.85,2.85,0,0,0-.38.55Zm2-1.92c.29-.17.8-.27.8-.41s-.21.07-.48.09-.32.32-.32.32Zm1.07-.47c.3.13.42,0,.63-.28s.13-.15.15-.35a5.43,5.43,0,0,0,.08-.61c0-.29.1-.33,0-.63s-.18-.4-.16-.16a13,13,0,0,1,0,1.4c0,.24-.12.1-.33.27a2.66,2.66,0,0,0-.35.36ZM134,84.21c.31.13.31,0,.22-.13a.56.56,0,0,0-.5,0c-.18,0,.1.12.28.18Zm-11.93,2.65c.32,0,0-.17-.09-.28s-.41,0-.55.1.28.15.64.18Zm2.34,1.35c.24,0-.07-.2-.22-.32s-.38,0-.21.1a1.93,1.93,0,0,0,.43.22Zm33.76,11.25c.29.08.21-.25,0-.24s-.33-.18-.31,0,.16.2.33.25ZM147.4,86.67c.38,0,1.21-.51,1.13-.62s-.23,0-.53.17a3.31,3.31,0,0,1-.84.28c-.39.07,0,.19.24.17Zm-6-3.15c.29-.15-.62-.09-.81,0s-.31.13-.21.13a2,2,0,0,0,.37-.09,2,2,0,0,1,.65,0Zm-37.85,9.26a1.76,1.76,0,0,0,.61-.42c.23-.22.56-.36.74-.52s.29-.38,0-.28-.51.35-.75.46-.87.46-.63.76Zm-2.07,3c0,.16.47-.56.59-.89s.34-.64.45-.88-.09-.19-.26.09a3.31,3.31,0,0,0-.44.94,2.58,2.58,0,0,1-.34.74Zm1.12-2.16c.08.11.37-.24.44-.39a1,1,0,0,1,.27-.35c.14-.1,0-.26-.14-.15a.84.84,0,0,0-.29.44,1.81,1.81,0,0,1-.28.45Zm-.78,5.59a1.06,1.06,0,0,1,.12.44c0,.24.07.17.07.51s0,.43,0,.62.13.42.13.1,0-.78,0-1,0-.33-.08-.47-.16-.33-.21-.21Zm8.07-10.57c.39-.18.75-.5,1-.64s.12-.32-.07-.21a3.18,3.18,0,0,0-.66.51c-.23.25-.46.34-.29.34Zm99.59-64.92c.68-.61-.19-.79-.61-.33s.33.4.61.33Zm-45.68,81.52a7.52,7.52,0,0,0,1.2-1.54c.08-.18-.33.17-.52.46a2.83,2.83,0,0,1-.73.79c-.42.35-.2.24.05.29Zm-3,1.29c-.05-.14-.17-.21-.2-.32s.11-.1.23,0,.07.38,0,.3Z" transform="translate(0)" fill="#f0ede4" fill-rule="evenodd"/></svg>