<svg xmlns="http://www.w3.org/2000/svg" width="1386.2" height="107.52" viewBox="0 0 1386.2 107.52"><polygon points="1313.93 24.91 1285.03 14.47 1256.15 24.91 1256.15 30.76 1209.52 30.76 1209.52 36.11 1213.98 36.11 1213.98 94.27 1356.1 94.27 1356.1 36.11 1360.57 36.11 1360.57 30.76 1313.93 30.76 1313.93 24.91" fill="#fff"/><path d="M1344.18,454.27l-28.9-10.44-28.88,10.44v5.85h-46.63v5.35h4.46v58.16h64V498.35h14.19v25.28h64V465.47h4.47v-5.35h-46.64Zm-83.49,57h-10.3v-11.8h10.3Zm0-26.17h-10.3v-11.8h10.3Zm17.61,26.17H1268v-11.8h10.3Zm0-26.17H1268v-11.8h10.3Zm24.53,26.17h-10.3V498.35h10.3Zm0-26.17h-10.3v-11.8h10.3Zm17.61,0h-10.3v-11.8h10.3Zm49.46-11.8h10.29v11.8H1369.9Zm0,26.17h10.29v11.8H1369.9Zm-17.62-26.17h10.3v11.8h-10.3Zm0,26.17h10.3v11.8h-10.3Zm-14.23,11.8h-10.3V498.35h10.3Zm0-26.17h-10.3v-11.8h10.3Z" transform="translate(-30.25 -429.36)"/><polygon points="76.06 36.19 68.71 36.19 68.71 42.45 55.03 28.77 18.77 65.03 23.72 69.98 28.21 65.49 28.21 94.27 81.85 94.27 81.85 65.49 86.34 69.98 91.28 65.03 76.06 49.8 76.06 36.19" fill="#fff"/><path d="M58.46,499.1v24.53H78.69V500.15H91.87v23.48H112.1V499.1L85.28,472.28Zm15.25,13H64.15v-12h9.56Zm23.14-12h9.56v12H96.85Z" transform="translate(-30.25 -429.36)"/><polygon points="76.06 36.19 68.71 36.19 68.71 42.45 55.03 28.77 18.77 65.03 23.72 69.98 55.03 38.67 86.34 69.98 91.28 65.03 76.06 49.8 76.06 36.19"/><polygon points="610.63 36.4 603.3 36.4 603.3 42.64 589.67 29.01 553.55 65.13 558.48 70.06 562.95 65.59 562.95 94.27 616.4 94.27 616.4 65.59 620.87 70.06 625.8 65.13 610.63 49.96 610.63 36.4" fill="#fff"/><path d="M593.2,499.18v24.45h20.16V500.24h13.13v23.39h20.16V499.18l-26.73-26.72Zm15.19,13h-9.52V500.24h9.52Zm23.06-11.91H641v11.91h-9.53Z" transform="translate(-30.25 -429.36)"/><polygon points="610.63 36.4 603.3 36.4 603.3 42.64 589.67 29.01 553.55 65.13 558.48 70.06 589.67 38.87 620.87 70.06 625.8 65.13 610.63 49.96 610.63 36.4"/><polygon points="172.54 43.54 172.54 30 164.56 30 164.56 37.91 149.81 27.49 109.82 55.3 112.4 59.01 113.29 60.29 115.14 59.01 116.95 57.75 116.95 94.27 215.07 94.27 215.07 58.71 218.94 58.71 218.94 51.94 184.44 51.94 172.54 43.54" fill="#fff"/><path d="M180,468.2,147.2,491v32.6h25.58V497.84h14.48v25.79h58.06V491.3H212.75ZM166.4,511H155.9V497.84h10.5Zm6.16-20.69a7.53,7.53,0,0,1,15.05,0ZM204.14,511H193.63V497.84h10.51Zm23.26-13.13h10.51V511H227.4ZM221,511h-10.5V497.84H221Z" transform="translate(-30.25 -429.36)"/><polygon points="172.54 43.54 172.54 30 164.56 30 164.56 37.91 149.81 27.49 109.82 55.3 112.4 59.01 113.29 60.29 115.14 59.01 149.8 34.9 164.56 45.32 167.41 47.33 183.53 58.71 218.94 58.71 218.94 51.94 184.44 51.94 172.54 43.54"/><polygon points="391.48 47.77 395.39 51.02 398.31 47.51 383.99 35.61 383.99 25.09 378.12 25.09 378.12 30.73 366.32 20.92 334.33 47.51 337.25 51.02 340.98 47.92 340.98 94.27 417.17 94.27 417.17 61.93 419.37 61.93 419.37 59.27 391.48 59.27 391.48 47.77" fill="#fff"/><path d="M421.73,480.38l-25.16-20.91-25.34,21.06v43.1H391.1v-20h11.24v20h45.08V491.29h2.2v-2.66H421.73ZM386.14,513.8H378V503.6h8.15Zm0-20H378V483.58h8.15Zm14.66,0h-8.16V483.58h8.16ZM396.72,477a4.41,4.41,0,1,1,4.4-4.41A4.4,4.4,0,0,1,396.72,477Zm18.73,36.8h-8.16V503.6h8.16Zm0-20h-8.16V483.58h8.16Zm26.84-2.48h2.48v6.38h-2.48Zm-.62,22.51h-8.16V503.6h8.16Zm-4.51-22.51h2.47v6.38h-2.47Zm-5.13,0h2.47v6.38H432Zm-5.13,0h2.47v6.38H426.9Zm-5.14,0h2.48v6.38h-2.48Zm6.8,12.31v10.2H420.4V503.6Z" transform="translate(-30.25 -429.36)"/><polygon points="378.12 36.66 378.57 37.04 395.39 51.02 398.31 47.51 383.99 35.61 383.99 25.09 378.12 25.09 378.12 30.73 366.32 20.92 334.33 47.51 337.25 51.02 366.32 26.85 378.12 36.66"/><polygon points="1074.43 43.76 1078.68 47.29 1081.85 43.48 1066.3 30.55 1066.3 19.13 1059.92 19.13 1059.92 25.25 1047.1 14.6 1012.36 43.48 1015.52 47.29 1019.58 43.92 1019.58 94.27 1102.34 94.27 1102.34 59.15 1104.73 59.15 1104.73 56.26 1074.43 56.26 1074.43 43.76" fill="#fff"/><polygon points="1059.92 31.7 1060.41 32.1 1078.68 47.29 1081.85 43.48 1066.3 30.55 1066.3 19.13 1059.92 19.13 1059.92 25.25 1047.1 14.6 1012.36 43.48 1015.52 47.29 1047.1 21.04 1059.92 31.7"/><path d="M1104.68,476.65l-27.33-22.71-27.52,22.88v46.81h21.58V501.88h12.21v21.75h49V488.51H1135v-2.89h-30.3ZM1066,513h-8.86V501.88H1066Zm0-21.75h-8.86V480.12H1066Zm15.91,0h-8.86V480.12h8.86ZM1077.51,473a4.79,4.79,0,1,1,4.79-4.78A4.78,4.78,0,0,1,1077.51,473Zm20.35,40H1089V501.88h8.86Zm0-21.75H1089V480.12h8.86Zm29.16-2.69h2.68v6.92H1127Zm-.68,24.44h-8.86V501.88h8.86Zm-4.9-24.44h2.69v6.92h-2.69Zm-5.57,0h2.69v6.92h-2.69Zm-5.58,0H1113v6.92h-2.69Zm-5.57,0h2.69v6.92h-2.69Zm7.38,13.37V513h-8.86V501.88Z" transform="translate(-30.25 -429.36)"/><polygon points="300.99 43.14 304.85 45.88 307.6 42.01 293.34 31.86 293.34 20.39 287.4 20.39 287.4 27.63 275.45 19.13 243.31 42.01 246.06 45.88 249.91 43.14 249.91 60.87 238.27 68.82 240.84 72.58 243.58 70.71 243.58 94.27 307.32 94.27 307.32 70.71 310.06 72.58 312.63 68.82 300.99 60.87 300.99 43.14" fill="#fff"/><path d="M331.24,475.61,305.7,457.43l-25.54,18.18v14.62l-11.64,7.95,2.57,3.76,2.74-1.87v23.56H300V503.37h11.37v20.26h26.18V500.07l2.74,1.87,2.57-3.76-11.64-7.95Zm-37.43,38.07H280.76V503.37h13.05Zm1.2-26.25h-8.25V477.11H295Zm14.82,0h-8.25V477.11h8.25Zm6.57-10.32h8.25v10.32H316.4Zm15.45,26.26v10.31H317.6V503.37Z" transform="translate(-30.25 -429.36)"/><polygon points="249.91 43.14 268.81 29.7 275.45 24.96 275.54 25.02 300.99 43.14 304.85 45.88 307.6 42.01 293.34 31.86 293.34 20.39 287.4 20.39 287.4 27.63 275.45 19.13 243.31 42.01 246.06 45.88 249.91 43.14"/><polygon points="1179.85 61.2 1179.85 43.65 1183.66 46.36 1186.39 42.52 1172.27 32.48 1172.27 21.12 1166.39 21.12 1166.39 28.29 1154.56 19.87 1122.73 42.52 1125.46 46.36 1129.27 43.65 1129.27 61.2 1117.75 69.07 1120.29 72.8 1123 70.95 1123 94.27 1186.12 94.27 1186.12 70.95 1188.83 72.8 1191.37 69.07 1179.85 61.2" fill="#fff"/><path d="M1210.1,476.08l-25.29-18-25.29,18v14.47L1148,498.43l2.54,3.73,2.71-1.85v23.32h25.93V503.57h11.26v20.06h25.93V500.31l2.71,1.85,2.54-3.73-11.52-7.87ZM1173,513.78h-12.92V503.57H1173Zm1.19-26h-8.17V477.57h8.17Zm14.68,0h-8.17V477.57h8.17Zm6.5-10.22h8.17v10.22h-8.17Zm15.3,26v10.21h-14.11V503.57Z" transform="translate(-30.25 -429.36)"/><polygon points="1129.27 43.65 1147.98 30.33 1154.56 25.65 1154.65 25.71 1179.85 43.65 1183.66 46.36 1186.39 42.52 1172.27 32.48 1172.27 21.12 1166.39 21.12 1166.39 28.29 1154.56 19.87 1122.73 42.52 1125.46 46.36 1129.27 43.65"/><polygon points="484.45 32.72 484.45 22.83 478.4 22.83 478.4 28.65 466.23 18.53 433.25 45.96 436.25 49.58 440.1 46.38 440.1 94.27 537.27 94.27 537.27 58.82 541.26 58.82 519.2 32.72 484.45 32.72" fill="#fff"/><rect x="498.55" y="75.47" width="28.6" height="18.8"/><polygon points="466.23 24.65 490.65 44.95 493.23 47.1 496.21 49.58 499.22 45.96 484.45 33.69 484.45 22.83 478.4 22.83 478.4 28.65 466.23 18.53 433.25 45.96 436.25 49.58 440.1 46.38 466.23 24.65"/><path d="M520.9,477.67l-24.42-20.3-26.13,21.72v44.54h20.49V502.89h11.59v20.74h24.21V502.89h32.93v20.74h7.95V490.76H520.9Zm-35.17,46h-8.41V502.89h8.41Zm0-30.88h-8.41V482.23h8.41Zm15.11,0h-8.41V482.23h8.41Zm-4.2-17.3a4.55,4.55,0,1,1,4.54-4.54A4.55,4.55,0,0,1,496.64,475.45ZM516,523.63h-8.41V502.89H516Zm0-30.88h-8.41V482.23H516Z" transform="translate(-30.25 -429.36)"/><polygon points="487.34 32.72 500.87 43.97 502.86 45.62 501.21 47.61 498.2 51.23 496.55 53.21 494.56 51.56 493.23 50.45 493.23 58.82 541.26 58.82 519.2 32.72 487.34 32.72"/><polygon points="696.21 39.81 700.15 39.81 700.15 34.38 691.52 29.95 645.28 29.95 636.65 34.38 636.65 39.81 640.59 39.81 640.59 94.27 729.23 94.27 729.23 69.94 730.96 69.94 730.96 57.05 728.41 57.05 728.41 48.85 730.96 48.85 730.96 45.76 696.21 45.76 696.21 39.81" fill="#fff"/><path d="M726.46,469.17h3.94v-5.43l-8.63-4.43H675.53l-8.63,4.43v5.43h3.93v54.46h39.82V499.29h13.66v24.34h14.08V499.3h16.35v24.33h4.74V499.3h1.73V486.41h-2.55v-8.2h2.55v-3.09H726.46Zm-39.81,42.51h-9.92V499.29h9.92Zm0-25.2h-9.92V475.12h9.92Zm17,25.2h-9.92V499.29h9.92Zm0-25.2h-9.92V475.12h9.92Zm16.95,0h-9.91V475.12h9.91Zm31.64-8.27h3.37v8.2H752.2Zm-6.45,0h3.37v8.2h-3.37Zm-6.46,0h3.37v8.2h-3.37Zm-6.45,0h3.37v8.2h-3.37Zm-3.09,0v8.2h-3.29v-8.2Z" transform="translate(-30.25 -429.36)"/><polygon points="842.96 34.18 842.96 28.38 840.49 26.31 840.49 17.77 835.69 17.77 835.69 22.27 829.25 16.85 815.41 28.38 815.41 34.18 801.74 34.18 801.74 28.38 788.02 16.85 781.46 22.32 781.46 17.77 776.65 17.77 776.65 26.33 774.18 28.38 774.18 34.18 769.8 34.18 753.71 55.45 756.64 55.45 756.64 94.27 860.5 94.27 860.5 55.45 863.43 55.45 847.35 34.18 842.96 34.18" fill="#fff"/><rect x="803.15" y="76.31" width="10.85" height="17.96"/><path d="M873.21,463.54v-5.8l-2.47-2.07v-8.54h-4.8v4.5l-6.44-5.42-13.84,11.53v5.8H832v-5.8l-13.71-11.53-6.56,5.47v-4.55H806.9v8.56l-2.47,2.05v5.8h-4.38L784,484.81h2.93v38.82h8.81v-17.7h8.17v17.7h7.48v-17.7h8.16v17.7h9.19V496.11a10.33,10.33,0,0,1,20.24,0v27.52h9.19v-17.7h8.17v17.7h7.47v-17.7h8.17v17.7h8.81V484.81h2.93L877.6,463.54Zm-69.34,36.24H795.7V489.1h8.17Zm15.64,0h-8.16V489.1h8.16Zm2.78-29.84h-8.17V459.26h8.17Zm33.07,0V459.26h8.16v10.68Zm10.94,29.84h-8.17V489.1h8.17Zm15.64,0h-8.17V489.1h8.17Z" transform="translate(-30.25 -429.36)"/><polygon points="946.33 20.7 949.23 22.11 951.69 17.09 916.7 0 881.74 17.09 884.2 22.11 887.1 20.7 887.1 94.27 989.56 94.27 989.56 35.95 994.14 35.95 994.14 30.46 946.33 30.46 946.33 20.7" fill="#fff"/><path d="M976.58,450.06l2.9,1.42,2.46-5-35-17.09-35,17.09,2.46,5,2.9-1.42v73.57h22.34V499h14.54v24.61h65.58V465.31h4.58v-5.49H976.58Zm-42.39,62.16H923.63V499h10.56Zm0-26.84H923.63V473.29h10.56Zm0-22.1H923.63V451.19h10.56Zm18.06,22.1H941.69V473.29h10.56Zm0-22.1H941.69V451.19h10.56Zm50.69,10h10.57v12.09h-10.57Zm0,26.84h10.57v12.09h-10.57Zm-18.05-26.84h10.56v12.09H984.89Zm0,26.84h10.56v12.09H984.89ZM970.3,512.22H959.74V499H970.3Zm0-26.84H959.74V473.29H970.3Zm0-22.1H959.74V451.19H970.3Z" transform="translate(-30.25 -429.36)"/><rect y="94.27" width="1386.2" height="13.25" fill="#00a499"/></svg>