<svg xmlns="http://www.w3.org/2000/svg" width="800" height="259.5" viewBox="0 0 800 259.5"><rect x="342.45" y="136.7" width="25.05" height="107.8" fill="#434642"/><rect x="294.9" y="136.7" width="38.4" height="107.8" fill="#ededed"/><rect x="239.3" y="123.1" width="38.4" height="121.4" fill="#ededed"/><rect y="121" width="36" height="123.5" fill="#555854"/><rect x="741.5" y="143.7" width="46.9" height="100.8" fill="#ededed"/><path d="M755.9,153.7H744.4l4.1-9.1H730.6l5,11.2H731v-9.5h-5.8l8.3-11.2H703.9l8.2,11.2h-4.9v16H697l4.9,11.1h-.5v71.2h51.9V161.5h-1Zm-12.4,2.1.3-.7.3.7Z" fill="#e1dcca"/><rect x="453" y="86.2" width="32.7" height="158.4" fill="#535652"/><rect x="496.9" y="86.2" width="32.7" height="158.4" fill="#dadada"/><rect x="544.4" y="66.2" width="32.7" height="178.3" fill="#3d403c"/><rect x="630.3" y="117.8" width="32.7" height="126.7" fill="#e1dcca"/><rect x="402.2" y="130.9" width="40" height="113.6" fill="#676966"/><rect x="698.2" y="96.5" width="30.7" height="148.1" fill="#575a56"/><rect x="750.6" y="63.1" width="30.7" height="181.4" fill="#555854"/><rect x="239.7" y="96.5" width="40" height="148.1" fill="#dadada"/><rect x="108.7" y="96.5" width="40" height="148.1" fill="#555854"/><polygon points="336.4 236.6 336.4 127.9 335.9 126.9 335.4 126 333.5 122.2 333.1 121.2 331.2 117.5 330.7 116.5 328.8 112.8 328.3 111.8 326.5 108.1 326 107.1 324.1 103.3 323.6 102.4 321.7 98.6 321.3 97.7 319.4 93.9 318.9 92.9 317 89.2 316.5 88.2 314.6 84.5 314.2 83.5 312.3 79.8 311.8 78.8 309.9 75 309.5 74.1 307.6 70.3 307.1 69.4 305.2 65.6 304.7 64.7 302.9 60.9 302.4 59.9 300.5 56.2 300 55.2 298.1 51.4 297.6 50.5 295.8 46.7 295.3 45.8 294.8 44.8 294.8 236.6 291.5 236.6 291.5 239.9 291.5 241.2 291.5 244.5 339 244.5 339 241.2 339 239.9 339 236.6 336.4 236.6" fill="#1d1d1b"/><path d="M686.2,209.4l13.9-7s-5.4,1.9-13.9-2.7-9-9.7-9-9.7H643.7s-.4,5.1-9,9.7-13.9,2.7-13.9,2.7l13.9,7h4.5l4.5,3.5h-1V215h1.1v18.8h-1v6.7h-3.2v2h-2.4v2h46.4v-2h-2.4v-2H678v-6.7h-1V215h1.1v-2h-1l4.5-3.5Zm-17.7,24.5h-1v6.7H653.4v-6.7h-1V215.1h16.2ZM646,215.1h4.2v18.8h-1v6.7H647v-6.7h-1Zm28.9,18.8h-1v6.7h-2.2v-6.7h-1V215.1h4.2Z" fill="#1d1d1b"/><polygon points="763.7 124.7 763.7 122.8 763.7 117.7 763.7 116.5 761.9 116.5 761.9 112.3 761.6 112.3 761.6 111.1 758.1 111.1 758.1 106.9 754.4 106.9 754.4 101.7 756.1 101.7 756.1 100 754.4 100 754.4 91.1 754.4 76.2 756.1 76.2 756.1 74.5 754.4 74.5 754.4 64.3 754.4 53.8 755.3 53.8 755.3 52.3 752.9 52.3 752.9 42.9 752.9 36.1 754 36.1 754 35.1 754 34 752.9 34 752.9 24.8 752.9 12.6 752.3 12.6 752.3 0 751.3 0 751.3 12.6 750.7 12.6 750.7 24.8 750.7 34 749.6 34 749.6 35.1 749.6 36.1 750.7 36.1 750.7 42.9 750.7 52.3 748.3 52.3 748.3 53.8 749.1 53.8 749.1 64.3 749.1 74.5 747.5 74.5 747.5 76.2 749.1 76.2 749.1 91.1 749.1 100 747.5 100 747.5 101.7 749.1 101.7 749.1 106.9 745.5 106.9 745.5 111.1 742 111.1 742 112.3 741.7 112.3 741.7 116.5 739.9 116.5 739.9 117.7 739.9 122.8 739.9 124.7 739.9 128.6 737 128.6 737 129.1 737 130.7 737 132 737 135.7 737 137 737 140.7 737 142 737 143.3 737 143.8 737 145.8 745.4 148.3 745.4 207.5 741.9 207.5 741.9 209.4 745.4 209.4 745.4 220.5 741.9 220.5 741.9 222.4 745.4 222.4 745.4 244.5 758.1 244.5 758.1 222.4 761.7 222.4 761.7 220.5 758.1 220.5 758.1 209.4 761.7 209.4 761.7 207.5 758.1 207.5 758.1 148.3 766.6 145.8 766.6 143.8 766.6 143.3 766.6 142 766.6 140.7 766.6 137 766.6 135.7 766.6 132 766.6 130.7 766.6 129.1 766.6 128.6 763.7 128.6 763.7 124.7"/><polygon points="571.5 115.8 550.8 115.8 550.8 124.7 546.2 124.7 546.2 244.5 553.7 244.5 561.2 244.5 568.6 244.5 576.1 244.5 576.1 124.7 571.5 124.7 571.5 115.8" fill="#1d1d1b"/><polygon points="615.7 169.9 614.8 155.5 614.8 155.5 614.7 154.3 612.1 154.3 611.9 149 605.9 149 605.8 154.3 597.2 154.3 597 149 591 149 590.8 154.3 588.2 154.3 588.1 155.5 588.1 155.5 588 157.9 588 157.9 587.9 159.1 587.9 159.1 587.7 161.5 587.7 161.5 587.7 162.1 587.5 165.2 587.5 165.2 587.5 166.2 587.3 168.8 587.3 168.8 587.2 169.9 585.5 169.9 585.5 177.9 585.5 179 585.5 192.8 585.5 194 585.5 207.8 585.5 209 585.5 222.8 585.5 223.9 585.5 237.7 585.5 238.9 585.5 244.5 588.5 244.5 589.4 244.5 590.9 244.5 591.8 244.5 593.3 244.5 594.2 244.5 595.9 244.5 607 244.5 608.7 244.5 609.5 244.5 611.1 244.5 612 244.5 613.5 244.5 614.4 244.5 617.4 244.5 617.4 169.9 615.7 169.9" fill="#56b7cc"/><polygon points="533 60.3 530.1 60.3 529.9 60.3 527.8 60.3 527.8 57.2 527.3 57.2 527.3 54 527.1 54 527.1 50.8 526.9 50.8 526.9 47.6 526.6 47.6 526.6 44.5 525.4 44.5 525.4 47.6 525.1 47.6 525.1 50.8 524.9 50.8 524.9 54 524.7 54 524.7 57.2 524.2 57.2 524.2 60.3 523.9 60.3 523.7 60.3 520.8 60.3 520.6 60.3 517.7 60.3 517.5 60.3 514.6 60.3 514.4 60.3 511.5 60.3 511.3 60.3 508.4 60.3 508.2 60.3 505.3 60.3 505.1 60.3 502.2 60.3 502 60.3 499.1 60.3 498.9 60.3 496 60.3 496 244.5 535.9 244.5 535.9 60.3 533.2 60.3 533 60.3" fill="#1d1d1b"/><polygon points="393.8 101.9 393.8 103 393.8 104.8 393.8 105.9 393.8 107.7 393.8 108.8 393.8 110.6 393.8 111.7 393.8 113.5 393.8 114.6 393.8 115.8 397.1 115.8 397.1 118.4 393.8 118.4 393.8 119.5 393.8 120.6 393.8 122.4 393.8 123.5 393.8 125.3 393.8 126.4 393.8 128.2 393.8 129.3 393.8 131.1 393.8 132.2 393.8 134.1 393.8 135.2 393.8 137 393.8 138.1 393.8 139.9 393.8 141 393.8 142.8 393.8 143.9 393.8 145.7 393.8 146.8 393.8 148 397.1 148 397.1 150.6 393.8 150.6 393.8 151.7 393.8 152.8 393.8 154.6 393.8 155.7 393.8 157.5 393.8 158.6 393.8 160.4 393.8 161.5 393.8 163.3 393.8 164.4 393.8 166.2 393.8 167.3 393.8 169.1 393.8 170.2 393.8 172.1 393.8 173.1 393.8 175 393.8 176.1 393.8 177.9 393.8 179 393.8 180.2 397.1 180.2 397.1 182.8 393.8 182.8 393.8 183.9 393.8 185 393.8 186.8 393.8 187.9 393.8 189.7 393.8 190.8 393.8 192.6 393.8 193.7 393.8 195.5 393.8 196.6 393.8 198.4 393.8 199.5 393.8 201.3 393.8 202.4 393.8 204.2 393.8 205.3 393.8 207.1 393.8 208.2 393.8 210 393.8 211.1 393.8 212.4 397.1 212.4 397.1 214.9 393.8 214.9 393.8 216 393.8 217.1 393.8 218.9 393.8 220 393.8 221.9 393.8 222.9 393.8 224.8 393.8 225.9 393.8 227.7 393.8 228.8 393.8 230.6 393.8 231.7 393.8 233.5 393.8 234.6 393.8 236.4 393.8 237.5 393.8 239.3 393.8 240.4 393.8 242.2 393.8 243.3 393.8 244.5 412.6 244.5 415.3 244.5 434.1 244.5 434.1 243.3 434.1 242.2 434.1 240.4 434.1 239.3 434.1 237.5 434.1 236.4 434.1 234.6 434.1 233.5 434.1 231.7 434.1 230.6 434.1 228.8 434.1 227.7 434.1 225.9 434.1 224.8 434.1 222.9 434.1 221.9 434.1 220 434.1 218.9 434.1 217.1 434.1 216 434.1 214.9 430.8 214.9 430.8 212.4 434.1 212.4 434.1 211.1 434.1 210 434.1 208.2 434.1 207.1 434.1 205.3 434.1 204.2 434.1 202.4 434.1 201.3 434.1 199.5 434.1 198.4 434.1 196.6 434.1 195.5 434.1 193.7 434.1 192.6 434.1 190.8 434.1 189.7 434.1 187.9 434.1 186.8 434.1 185 434.1 183.9 434.1 182.8 430.8 182.8 430.8 180.2 434.1 180.2 434.1 179 434.1 177.9 434.1 176.1 434.1 175 434.1 173.1 434.1 172.1 434.1 170.2 434.1 169.1 434.1 167.3 434.1 166.2 434.1 164.4 434.1 163.3 434.1 161.5 434.1 160.4 434.1 158.6 434.1 157.5 434.1 155.7 434.1 154.6 434.1 152.8 434.1 151.7 434.1 150.6 430.8 150.6 430.8 148 434.1 148 434.1 146.8 434.1 145.7 434.1 143.9 434.1 142.8 434.1 141 434.1 139.9 434.1 138.1 434.1 137 434.1 135.2 434.1 134.1 434.1 132.2 434.1 131.1 434.1 129.3 434.1 128.2 434.1 126.4 434.1 125.3 434.1 123.5 434.1 122.4 434.1 120.6 434.1 119.5 434.1 118.4 430.8 118.4 430.8 115.8 434.1 115.8 434.1 114.6 434.1 113.5 434.1 111.7 434.1 110.6 434.1 108.8 434.1 107.7 434.1 105.9 434.1 104.8 434.1 103 434.1 101.9 434.1 100.5 393.8 100.5 393.8 101.9" fill="#1d1d1b"/><path d="M462.7,231.2H462v-25h-7.8v-.5h-.4v.5h-6.9v-.5h-.4v.5h-6.9v-.5H439v.5h-6.9v-.5h-.4v.5h-7.8v25h-.7v.5h.4v1.1h1.2V244H424v.5h37.8V244h-.6V232.8h1.1v-1.1h.4Zm-12.4,9h0v-3.9h0Zm-14.7,0h0v-3.9h0Zm0-7.4v1.9h0Zm0,11.2v-2.1h0Zm14.7,0v-2.1h0Zm0-9.3h0v-1.9h0Z"/><polygon points="270.6 74.9 241.2 74.9 241.2 78.9 230.6 78.9 230.6 88.6 230.6 89.8 230.6 94.8 230.6 96 230.6 100.9 230.6 102.2 230.6 107.1 230.6 108.3 230.6 113.2 230.6 114.5 230.6 119.4 230.6 120.6 230.6 125.6 230.6 126.8 230.6 131.7 230.6 132.9 230.6 137.9 230.6 139.1 230.6 144 230.6 145.2 230.6 150.2 230.6 151.4 230.6 156.3 230.6 157.5 230.6 162.5 230.6 163.7 230.6 168.6 230.6 169.8 230.6 174.8 230.6 176 230.6 180.9 230.6 182.1 230.6 187.1 230.6 188.3 230.6 193.2 230.6 194.4 230.6 199.4 230.6 200.6 230.6 205.5 230.6 206.8 230.6 211.7 230.6 212.9 230.6 217.9 230.6 219.1 230.6 224 230.6 225.2 230.6 230.2 230.6 231.4 230.6 236.3 230.6 237.5 230.6 242.5 230.6 243.7 230.6 244.5 281.1 244.5 281.1 243.7 281.1 242.5 281.1 237.5 281.1 236.3 281.1 231.4 281.1 230.2 281.1 225.2 281.1 224 281.1 219.1 281.1 217.9 281.1 212.9 281.1 211.7 281.1 206.8 281.1 205.5 281.1 200.6 281.1 199.4 281.1 194.4 281.1 193.2 281.1 188.3 281.1 187.1 281.1 182.1 281.1 180.9 281.1 176 281.1 174.8 281.1 169.8 281.1 168.6 281.1 163.7 281.1 162.5 281.1 157.5 281.1 156.3 281.1 151.4 281.1 150.2 281.1 145.2 281.1 144 281.1 139.1 281.1 137.9 281.1 132.9 281.1 131.7 281.1 126.8 281.1 125.6 281.1 120.6 281.1 119.4 281.1 114.5 281.1 113.2 281.1 108.3 281.1 107.1 281.1 102.2 281.1 100.9 281.1 96 281.1 94.8 281.1 89.8 281.1 88.6 281.1 78.9 270.6 78.9 270.6 74.9" fill="#e1dcca"/><polygon points="183 136.9 187.4 136.9 187.4 148.8 183 148.8 183 149.8 183 155.5 183 158.8 183 164.2 183 167.6 183 173 183 176.3 183 181.7 183 185 183 190.4 183 193.8 183 199.2 183 202.5 183 207.9 183 211.2 183 216.6 183 219.9 183 225.4 183 228.7 183 235.7 183 236.7 183 245.1 219.6 245.1 219.6 236.7 219.6 235.7 219.6 228.7 219.6 225.4 219.6 219.9 219.6 216.6 219.6 211.2 219.6 207.9 219.6 202.5 219.6 199.2 219.6 193.8 219.6 190.4 219.6 185 219.6 181.7 219.6 176.3 219.6 173 219.6 167.6 219.6 164.2 219.6 158.8 219.6 155.5 219.6 149.8 219.6 148.8 214.3 148.8 214.3 136.9 219.6 136.9 219.6 119.9 183 119.9 183 136.9" fill="#56b7cc"/><path d="M150,181.8h3.7v1.4H150v61.3h25V183.2h-3.6v-1.4H175v-5.4H150Zm18.8,1.4H156.3v-1.4h12.5Z"/><polygon points="142.3 133 138.7 133 138.5 133 134.9 133 134.7 133 131.2 133 131.2 126 137 126 137 124.8 131.2 124.8 131.2 121.7 137 121.7 137 120.5 131.2 120.5 131.2 116.1 90.3 116.1 90.3 133 89.3 133 89.1 133 85.5 133 85.3 133 81.7 133 81.5 133 77.9 133 77.7 133 74.1 133 73.9 133 70.3 133 70.1 133 66.5 133 66.3 133 64.4 133 64.4 134.4 64.4 134.6 64.4 139.8 64.4 140 64.4 145.2 64.4 145.4 64.4 150.6 64.4 150.8 64.4 152 64.4 155.9 64.4 156.2 64.4 156.2 64.4 161.3 64.4 161.4 64.4 161.6 64.4 165.6 64.4 166.7 64.4 167 64.4 170.7 64.4 172.1 64.4 172.4 64.4 174.9 64.4 177.5 64.4 177.8 64.4 180.1 64.4 182.9 64.4 183.2 64.4 184.3 64.4 188.3 64.4 188.6 64.4 189.5 64.4 193.7 64.4 193.7 64.4 194 64.4 198.8 64.4 199.1 64.4 199.4 64.4 203.1 64.4 204.5 64.4 204.8 64.4 208.2 64.4 209.9 64.4 210.2 64.4 212.4 64.4 215.3 64.4 215.6 64.4 217.6 64.4 220.7 64.4 221 64.4 221.8 64.4 226.1 64.4 226.4 64.4 226.9 64.4 231.2 64.4 231.5 64.4 231.8 64.4 236.3 64.4 236.9 64.4 237.1 64.4 240.5 64.4 242.3 64.4 242.5 64.4 244.5 66.3 244.5 66.5 244.5 70.1 244.5 70.3 244.5 73.9 244.5 74.1 244.5 77.7 244.5 77.9 244.5 81.5 244.5 81.7 244.5 85.3 244.5 85.5 244.5 89.1 244.5 89.3 244.5 92.9 244.5 93.1 244.5 96.7 244.5 96.9 244.5 100.5 244.5 100.7 244.5 104.3 244.5 104.5 244.5 108.1 244.5 108.3 244.5 111.9 244.5 112.1 244.5 115.7 244.5 115.9 244.5 119.5 244.5 119.7 244.5 123.3 244.5 123.5 244.5 127.1 244.5 127.3 244.5 130.9 244.5 131.1 244.5 134.7 244.5 134.9 244.5 138.5 244.5 138.7 244.5 142.3 244.5 142.5 244.5 144.2 244.5 144.2 242.5 144.2 242.3 144.2 237.1 144.2 236.9 144.2 231.8 144.2 231.5 144.2 226.4 144.2 226.1 144.2 221 144.2 220.7 144.2 215.6 144.2 215.3 144.2 210.2 144.2 209.9 144.2 204.8 144.2 204.5 144.2 199.4 144.2 199.1 144.2 194 144.2 193.7 144.2 188.6 144.2 188.3 144.2 183.2 144.2 182.9 144.2 177.8 144.2 177.5 144.2 172.4 144.2 172.1 144.2 167 144.2 166.7 144.2 161.6 144.2 161.3 144.2 156.2 144.2 155.9 144.2 150.8 144.2 150.6 144.2 145.4 144.2 145.2 144.2 140 144.2 139.8 144.2 134.6 144.2 134.4 144.2 133 142.5 133 142.3 133" fill="#56b7cc"/><polygon points="385 90.2 386.4 90.2 385.1 86.3 385 86.3 353.1 86.3 352.9 86.3 351.8 89.7 351.6 90.2 351.6 90.2 351.6 92.5 351.6 93.7 351.6 97.3 351.6 98.5 351.6 102.1 351.6 103.2 351.6 106.8 351.6 108 351.6 111.6 351.6 112.8 351.6 116.4 351.6 117.6 351.6 121.2 351.6 122.4 351.6 126 351.6 127.2 351.6 130.8 351.6 132 351.6 135.6 351.6 136.8 351.6 140.4 351.6 141.6 351.6 145.1 351.6 146.3 351.6 150.2 351.6 151.4 351.6 155 351.6 156.2 351.6 159.8 351.6 161 351.6 164.6 351.6 165.8 351.6 169.3 351.6 170.5 351.6 174.1 351.6 175.3 351.6 178.9 351.6 180.1 351.6 183.7 351.6 184.9 351.6 188.4 351.6 189.6 351.6 193.2 351.6 194.4 351.6 198 351.6 199.2 351.6 202.8 351.6 203.9 351.6 207.5 351.6 208.7 351.6 209.3 338.9 209.3 338.9 214.9 307.9 214.9 307.9 221.4 307.9 223.9 307.9 237.2 307.9 239.6 307.9 244.5 338.9 244.5 341.4 244.5 345.9 244.5 347.1 244.5 351.6 244.5 351.6 244.5 353.7 244.5 354.2 244.5 354.7 244.5 354.7 244.5 358.8 244.5 360 244.5 364.3 244.5 366.8 244.5 375.8 244.5 375.8 244.5 383.3 244.5 383.3 244.5 383.9 244.5 384.4 244.5 386.4 244.5 386.4 90.2 385 90.2" fill="#56b7cc"/><path d="M50.6,95.7V92.8H47.4V91.7h3.2V82.9H20.7v8.8h3.1v1.2H20.7v5.8H19.6V244.5h32V98.7H50.5Zm-25.2-4H46v1.2H25.4Z" fill="#1d1d1b"/><polygon points="800 126 798.8 127.8 798.4 128.3 796.9 130.7 796.5 131.2 795 133.6 794.6 134.1 793.1 136.5 792.7 137.1 791.2 139.4 790.8 140 789.2 142.3 788.9 142.9 787.3 145.2 786.9 145.8 785.4 148.1 785 148.7 783.5 151 783.1 151.6 781.6 153.9 781.2 154.5 779.7 156.8 779.3 157.4 777.7 159.7 777.4 160.3 775.8 162.6 775.4 163.2 773.9 165.5 773.5 166.1 772 168.4 771.6 169 770.1 171.3 769.7 171.9 768.2 174.2 767.8 174.8 767.4 175.4 767.4 242.3 765.3 242.3 765.3 244.4 765.3 245.1 765.3 247.2 800 247.2 800 126" fill="#56b7cc"/><rect x="484.1" y="244.3" width="3.2" height="0.1" fill="#1d1d1b"/><rect x="484.4" y="244.2" width="2.6" height="0.1" fill="#1d1d1b"/><rect x="484.6" y="244.1" width="2.2" height="0.1" fill="#1d1d1b"/><rect x="484.1" y="240" width="3.2" height="0.1" fill="#1d1d1b"/><rect x="484.4" y="239.9" width="2.6" height="0.1" fill="#1d1d1b"/><rect x="484.6" y="239.7" width="2.2" height="0.1" fill="#1d1d1b"/><path d="M485.7,239.4c1.8.7,1.1,4.6,1.1,4.6l-1,.1h-.1l-1-.1C484.6,244.1,483.9,240.1,485.7,239.4Z" fill="#1d1d1b"/><rect x="485.2" y="224.9" width="0.9" height="15.5" fill="#1d1d1b"/><rect x="484.6" y="224.7" width="2.1" height="0.2" fill="#1d1d1b"/><path d="M484.7,219.1l-1.5,1.6,1.5,4h1.9l1.5-3.9-1.6-1.6a1.12,1.12,0,0,0-.8-.3v-.6c0-.2,0-.1.1-.2-.2,0-.2-.3-.2-.3s-.1.3-.2.3c.1.1.1.1.1.2v.6A.87.87,0,0,0,484.7,219.1Zm1.7,5.5.5-4.1,1.1.3-1.5,3.8Zm-2-4.1.5,4.1h-.2l-1.4-3.8Zm.2,0h2.2l-.5,4.2H485Z" fill="#1d1d1b"/><rect x="723" y="244.3" width="3.2" height="0.1" fill="#1d1d1b"/><rect x="723.3" y="244.2" width="2.6" height="0.1" fill="#1d1d1b"/><rect x="723.5" y="244.1" width="2.2" height="0.1" fill="#1d1d1b"/><rect x="723" y="240" width="3.2" height="0.1" fill="#1d1d1b"/><rect x="723.3" y="239.9" width="2.6" height="0.1" fill="#1d1d1b"/><rect x="723.5" y="239.7" width="2.2" height="0.1" fill="#1d1d1b"/><path d="M724.6,239.4c1.8.7,1.1,4.6,1.1,4.6l-1,.1h-.1l-1-.1C723.6,244.1,722.8,240.1,724.6,239.4Z" fill="#1d1d1b"/><rect x="724.2" y="224.9" width="0.9" height="15.5" fill="#1d1d1b"/><rect x="723.6" y="224.7" width="2.1" height="0.2" fill="#1d1d1b"/><path d="M723.7,219.1l-1.5,1.6,1.5,4h1.9l1.5-3.9-1.6-1.6a1.12,1.12,0,0,0-.8-.3v-.6c0-.2,0-.1.1-.2-.2,0-.2-.3-.2-.3s-.1.3-.2.3c.1.1.1.1.1.2v.6A1.86,1.86,0,0,0,723.7,219.1Zm1.7,5.5.5-4.1,1.1.3Zm-2-4.1.5,4.1h-.2l-1.4-3.8Zm.1,0h2.2l-.5,4.2H724Z" fill="#1d1d1b"/><path d="M461.4,232.8l-.1.1a.09.09,0,0,1,.1-.1Z" fill="#00a499"/><path d="M464.1,237.1a3.27,3.27,0,0,1,2.5.9,22.89,22.89,0,0,0-.2-3.7,2.57,2.57,0,0,0-2-2,4.3,4.3,0,0,0-3.1.5,4.59,4.59,0,0,1,2.2-.6c-2.5-.3-2.9-1.2-2.7-2.3.1.8,0,1.8,2.4,2.1a6.3,6.3,0,0,1,3,1,7.66,7.66,0,0,0-1.1-3c-1.5-2.7-4.8-2.4-5.4-2.2a5.31,5.31,0,0,1,5.8,2.3,12.73,12.73,0,0,1,1.3,3.2,4,4,0,0,1,.8-1.9,5.36,5.36,0,0,1,3-2.1,4.64,4.64,0,0,0-3.4,4.8v1.3a9.65,9.65,0,0,1,.1,1.7v.1a7.87,7.87,0,0,1,2.8-3.2l.3-.2a3.13,3.13,0,0,0,.5-1,2.86,2.86,0,0,0-.2-2.2c.5.4.5,2.4,0,3.1a8.7,8.7,0,0,1,3.6-1,7.39,7.39,0,0,0-6.4,4.7c-.9,2.1.2,7.1.2,7.1h-1.9a35.4,35.4,0,0,0,.4-4.6c0-.7-.2-2.5-2.7-2.5-3.1-.1-4-1.5-5-1.8C459.6,235.8,461.5,237.3,464.1,237.1Z" fill="#00a499"/><path d="M457,230.4a3.12,3.12,0,0,1,1.7-2.7,3.78,3.78,0,0,1-.2-1,2.9,2.9,0,0,1,2.9-2.9h0a3.09,3.09,0,0,1,1.3.3,2.91,2.91,0,0,1,4-1h0l.1.1a2.65,2.65,0,0,1,1.5-.4,16.87,16.87,0,0,1,5.2,5.1v.1a2.91,2.91,0,0,1,.3,5.5v.5a2.9,2.9,0,0,1-2.9,2.9h0a1.66,1.66,0,0,1-.7-.1,3,3,0,0,1-2.2,1,3.78,3.78,0,0,1-1-.2,3.18,3.18,0,0,1-2.2,1,3.09,3.09,0,0,1-2.5-1.4,2.63,2.63,0,0,1-1.9.7,3.06,3.06,0,0,1-3-2.9,2.89,2.89,0,0,1,.9-2.1A3,3,0,0,1,457,230.4Z" fill="#00a499"/><path d="M456.9,229a3,3,0,0,1,2-2.5,3.37,3.37,0,0,1-.1-1,2.91,2.91,0,0,1,3.19-2.6h0a4.24,4.24,0,0,1,1.2.4,2.91,2.91,0,0,1,4.05-.64l.05,0a.09.09,0,0,1,.1.1h0a3.9,3.9,0,0,1,1.5-.3,2.87,2.87,0,0,1,2.6,2.5,2.92,2.92,0,0,1,2.1,3.1v.1a2.9,2.9,0,0,1,1.6,3.79h0a3,3,0,0,1-1.8,1.7v.5a3.07,3.07,0,0,1-3.2,2.7h0a1.94,1.94,0,0,1-.7-.2,2.91,2.91,0,0,1-3.2.5,8,8,0,0,0-6.6-.4,3,3,0,0,1-1.7-5.2A3,3,0,0,1,456.9,229Z" fill="#00a499"/><path d="M369.5,240.6a1.9,1.9,0,0,1,1.4.5,14.77,14.77,0,0,0-.1-2.1,1.39,1.39,0,0,0-1.1-1.1,2.57,2.57,0,0,0-1.8.3c.2-.4,1-.4,1.3-.4-1.4-.2-1.6-.7-1.5-1.3,0,.4,0,1,1.4,1.2a2.69,2.69,0,0,1,1.7.6,4.86,4.86,0,0,0-.6-1.7,2.82,2.82,0,0,0-3-1.2,3,3,0,0,1,3.3,1.3,6.8,6.8,0,0,1,.7,1.8,3.54,3.54,0,0,1,.4-1.1,3,3,0,0,1,1.7-1.2,2.59,2.59,0,0,0-1.9,2.7v.8a3.35,3.35,0,0,1,0,1h0a4,4,0,0,1,1.6-1.8l.2-.1.3-.6a1.61,1.61,0,0,0-.1-1.2c.3.2.3,1.4,0,1.8a4.49,4.49,0,0,1,2-.5,4.15,4.15,0,0,0-3.6,2.6c-.5,1.1.1,4,.1,4h-1a22.58,22.58,0,0,0,.2-2.6c0-.4-.1-1.4-1.5-1.4a4.8,4.8,0,0,1-2.8-1A5.8,5.8,0,0,0,369.5,240.6Z"/><path d="M365.6,236.9a1.65,1.65,0,0,1,1-1.5,1.23,1.23,0,0,1-.1-.6,1.69,1.69,0,0,1,1.68-1.7h0a1.94,1.94,0,0,1,.7.2,1.75,1.75,0,0,1,2.3-.6h.1a2.41,2.41,0,0,1,.8-.2,9.24,9.24,0,0,1,3,2.9v.1a1.64,1.64,0,0,1,.1,3.1v.3a1.69,1.69,0,0,1-1.68,1.7h0a.63.63,0,0,1-.4-.1,2.73,2.73,0,0,1-1.2.6,1.23,1.23,0,0,1-.6-.1,1.62,1.62,0,0,1-2.27.23l0,0c-.1-.1-.3-.3-.3-.4a1.49,1.49,0,0,1-1.1.4,1.67,1.67,0,0,1-1.7-1.6,1.85,1.85,0,0,1,.5-1.2A1.91,1.91,0,0,1,365.6,236.9Z"/><path d="M651.4,232.8l-.1.1A.09.09,0,0,1,651.4,232.8Z" fill="#00a499"/><path d="M654.1,237.1a3.27,3.27,0,0,1,2.5.9c0-1.2-.1-2.5-.2-3.7a2.57,2.57,0,0,0-2-2,4.3,4.3,0,0,0-3.1.5,4.62,4.62,0,0,1,2.3-.6c-2.5-.3-2.9-1.2-2.7-2.3.1.8,0,1.8,2.4,2.1a6.3,6.3,0,0,1,3,1,7.66,7.66,0,0,0-1.1-3c-1.5-2.7-4.8-2.4-5.4-2.2a5.31,5.31,0,0,1,5.8,2.3,12.73,12.73,0,0,1,1.3,3.2,4.52,4.52,0,0,1,.8-1.9,5.36,5.36,0,0,1,3-2.1,4.64,4.64,0,0,0-3.4,4.8v1.3a9.65,9.65,0,0,1,.1,1.7v.1a7.87,7.87,0,0,1,2.8-3.2l.3-.2a3.13,3.13,0,0,0,.5-1,2.86,2.86,0,0,0-.2-2.2c.5.4.5,2.4,0,3.1a8.93,8.93,0,0,1,3.5-1,7.51,7.51,0,0,0-6.4,4.7c-.9,2.1.2,7.1.2,7.1h-1.9a35.4,35.4,0,0,0,.4-4.6c0-.7-.2-2.5-2.7-2.5-3.1-.1-4-1.5-5-1.8C649.6,235.8,651.5,237.3,654.1,237.1Z"/><path d="M647,229a3,3,0,0,1,2-2.5,3.37,3.37,0,0,1-.1-1,2.91,2.91,0,0,1,3.19-2.6h0a2.45,2.45,0,0,1,1.2.4,2.91,2.91,0,0,1,4.05-.64l0,0a.09.09,0,0,1,.1.1,2.88,2.88,0,0,1,3.86,1.31l0,.09.3.9a3,3,0,0,1,2.1,3.1v.1a3,3,0,0,1,1.7,3.8,2.71,2.71,0,0,1-1.9,1.7v.5a2.91,2.91,0,0,1-3.19,2.6h0a1.94,1.94,0,0,1-.7-.2,2.74,2.74,0,0,1-2.3.8,2,2,0,0,1-1-.3,8,8,0,0,0-6.6-.4,3,3,0,0,1-1.7-5.2A3.12,3.12,0,0,1,647,229Z"/><path d="M544.8,237.1a3.27,3.27,0,0,1,2.5.9,22.89,22.89,0,0,0-.2-3.7,2.57,2.57,0,0,0-2-2,4.3,4.3,0,0,0-3.1.5,4.62,4.62,0,0,1,2.3-.6c-2.5-.3-2.9-1.2-2.8-2.3.1.8,0,1.8,2.4,2.1a6.3,6.3,0,0,1,3,1,7.66,7.66,0,0,0-1.1-3c-1.5-2.7-4.8-2.4-5.4-2.2a5.31,5.31,0,0,1,5.8,2.3,12.73,12.73,0,0,1,1.3,3.2,4,4,0,0,1,.8-1.9,5.36,5.36,0,0,1,3-2.1,4.64,4.64,0,0,0-3.4,4.8v1.3a9.65,9.65,0,0,1,.1,1.7v.1a7.87,7.87,0,0,1,2.8-3.2l.3-.2a3.13,3.13,0,0,0,.5-1,2.86,2.86,0,0,0-.2-2.2c.5.4.5,2.4,0,3.1a8.93,8.93,0,0,1,3.5-1,7.51,7.51,0,0,0-6.4,4.7c-.9,2.1.2,7.1.2,7.1h-1.9a35.4,35.4,0,0,0,.4-4.6c0-.7-.2-2.5-2.7-2.5-3.1-.1-4-1.5-5-1.8C540.3,235.8,542.2,237.3,544.8,237.1Z" fill="#00a499"/><path d="M542,232.8l-.1.1Z" fill="#00a499"/><path d="M537.8,230.4a3.12,3.12,0,0,1,1.7-2.7,3.78,3.78,0,0,1-.2-1,6,6,0,0,1,7.56-3.85l.14.05c.2.1.5.2.7.3a2.81,2.81,0,0,1,1.5-.4,16.87,16.87,0,0,1,5.2,5.1v.1a2.79,2.79,0,0,1,2.07,3.36,2.17,2.17,0,0,1-.07.24,2.71,2.71,0,0,1-1.7,1.9v.5a2.9,2.9,0,0,1-2.9,2.9h0a1.66,1.66,0,0,1-.7-.1,17.19,17.19,0,0,0-5.4,1.8,2.93,2.93,0,0,0-4-1.1,1.31,1.31,0,0,0-.4.3,3.06,3.06,0,0,1-3-2.9,2.89,2.89,0,0,1,.9-2.1A2.5,2.5,0,0,1,537.8,230.4Z" fill="#00a499"/><path d="M619.8,237.1a3.27,3.27,0,0,1,2.5.9,22.89,22.89,0,0,0-.2-3.7,2.57,2.57,0,0,0-2-2,4.3,4.3,0,0,0-3.1.5,4.59,4.59,0,0,1,2.2-.6c-2.5-.3-2.9-1.2-2.7-2.3.1.8,0,1.8,2.4,2.1a6.3,6.3,0,0,1,3,1,7.66,7.66,0,0,0-1.1-3c-1.5-2.7-4.8-2.4-5.4-2.2a5.38,5.38,0,0,1,5.8,2.3,12.73,12.73,0,0,1,1.3,3.2,4,4,0,0,1,.8-1.9,5.36,5.36,0,0,1,3-2.1,4.75,4.75,0,0,0-3.4,4.8v1.3a9.65,9.65,0,0,1,.1,1.7v.1a7.87,7.87,0,0,1,2.8-3.2l.3-.2a3.13,3.13,0,0,0,.5-1,2.86,2.86,0,0,0-.2-2.2c.5.4.5,2.4,0,3.1a8.93,8.93,0,0,1,3.5-1,7.39,7.39,0,0,0-6.4,4.7c-.9,2.1.2,7.1.2,7.1h-1.9a35.4,35.4,0,0,0,.4-4.6c0-.7-.2-2.5-2.7-2.5-3.1-.1-4-1.5-5-1.8C615.3,235.8,617.2,237.3,619.8,237.1Z" fill="#00a499"/><path d="M617.1,232.8l-.1.1A.09.09,0,0,1,617.1,232.8Z" fill="#00a499"/><path d="M612.8,230.4a3.12,3.12,0,0,1,1.7-2.7,3.78,3.78,0,0,1-.2-1,2.9,2.9,0,0,1,2.9-2.9h0a3.09,3.09,0,0,1,1.3.3,2.91,2.91,0,0,1,4-1h0l.1.1a2.65,2.65,0,0,1,1.5-.4,16.87,16.87,0,0,1,5.2,5.1v.1a2.79,2.79,0,0,1,2.07,3.36,2.17,2.17,0,0,1-.07.24,2.71,2.71,0,0,1-1.7,1.9v.5a2.9,2.9,0,0,1-2.9,2.9h0a1.66,1.66,0,0,1-.7-.1,17.19,17.19,0,0,0-5.4,1.8,2.93,2.93,0,0,0-4-1.1,1.31,1.31,0,0,0-.4.3,3.06,3.06,0,0,1-3-2.9,2.89,2.89,0,0,1,.9-2.1A2.58,2.58,0,0,1,612.8,230.4Z" fill="#00a499"/><path d="M612.7,229a2.91,2.91,0,0,1,2-2.5,3.37,3.37,0,0,1-.1-1,2.91,2.91,0,0,1,3.19-2.6h0a4.24,4.24,0,0,1,1.2.4,2.91,2.91,0,0,1,4-.64l.05,0a.09.09,0,0,1,.1.1,3.9,3.9,0,0,1,1.5-.3,2.87,2.87,0,0,1,2.6,2.5,2.92,2.92,0,0,1,2.1,3.1v.1A2.9,2.9,0,0,1,631,232h0a3,3,0,0,1-1.8,1.7v.5a3.07,3.07,0,0,1-3.2,2.7h0a1.94,1.94,0,0,1-.7-.2,2.91,2.91,0,0,1-3.2.5,8,8,0,0,0-6.6-.4,2.91,2.91,0,0,1-2.6-3.19h0a3,3,0,0,1,1-2A2.74,2.74,0,0,1,612.7,229Z" fill="#00a499"/><path d="M248.9,235.4l-.1.1Z" fill="#00a499"/><path d="M263.35,239.2a3,3,0,0,1,2.2.8,17.15,17.15,0,0,0-.2-3.2,2.26,2.26,0,0,0-1.8-1.7,3.91,3.91,0,0,0-2.6.4,3.43,3.43,0,0,1,1.9-.5c-2.1-.2-2.5-1-2.4-2,.1.7,0,1.5,2.1,1.8a4.31,4.31,0,0,1,2.6.9,8,8,0,0,0-.9-2.6c-1.3-2.3-4.1-2-4.6-1.9a4.58,4.58,0,0,1,5,2,9.67,9.67,0,0,1,1.1,2.8,4.86,4.86,0,0,1,.6-1.7,4.41,4.41,0,0,1,2.6-1.8,4,4,0,0,0-2.9,4.1v1.1c0,.5.1,1,.1,1.5v.1a6.27,6.27,0,0,1,2.4-2.7l.2-.2a1.52,1.52,0,0,0,.4-.9,2.56,2.56,0,0,0-.2-1.9c.4.3.4,2.1,0,2.7a6.83,6.83,0,0,1,3.1-.8,6.33,6.33,0,0,0-5.5,4c-.8,1.8.2,6.1.2,6.1h-1.7c.2-1.3.3-2.6.4-3.9a2.13,2.13,0,0,0-2-2.21h-.29c-2.7-.1-3.5-1.3-4.3-1.6C259.45,238,261.05,239.4,263.35,239.2Z" fill="#00a499"/><path d="M257.25,233.4a2.53,2.53,0,0,1,1.5-2.3,2.8,2.8,0,0,1-.2-.9,2.48,2.48,0,0,1,2.46-2.5h0a3.81,3.81,0,0,1,1.1.2,2.59,2.59,0,0,1,3.5-.9l.1.1a7.75,7.75,0,0,1,5.8,4.1v.1a2.53,2.53,0,0,1,1.7,3.1,2.61,2.61,0,0,1-1.5,1.6v.4a2.48,2.48,0,0,1-2.46,2.5h0a1.23,1.23,0,0,1-.6-.1,2.53,2.53,0,0,1-2.7.7,2.52,2.52,0,0,1-3.5.3,2.62,2.62,0,0,1-.5-.6,2.55,2.55,0,0,1-3.5-3.7A2.45,2.45,0,0,1,257.25,233.4Z" fill="#00a499"/><rect x="223.6" y="244.3" width="3.2" height="0.1" fill="#3c3c3b"/><rect x="223.9" y="244.2" width="2.6" height="0.1" fill="#3c3c3b"/><rect x="224.1" y="244.1" width="2.2" height="0.1" fill="#3c3c3b"/><rect x="223.6" y="240" width="3.2" height="0.1" fill="#3c3c3b"/><rect x="223.9" y="239.9" width="2.6" height="0.1" fill="#3c3c3b"/><rect x="224.1" y="239.7" width="2.2" height="0.1" fill="#3c3c3b"/><path d="M225.1,239.4c1.8.7,1.1,4.6,1.1,4.6l-1,.1h-.1l-1-.1C224.1,244.1,223.3,240.1,225.1,239.4Z" fill="#3c3c3b"/><rect x="224.7" y="224.9" width="0.9" height="15.5" fill="#3c3c3b"/><rect x="224.1" y="224.7" width="2.1" height="0.2" fill="#3c3c3b"/><path d="M224.2,219.1l-1.6,1.6,1.6,4h1.9l1.6-3.9-1.6-1.6a1.12,1.12,0,0,0-.8-.3v-.6c0-.2.1-.1.1-.2-.2,0-.2-.3-.2-.3s-.1.3-.2.3c.1.1.1.1.1.2v.6A.9.9,0,0,0,224.2,219.1Zm1.7,5.5.5-4.1,1.1.3-1.5,3.8Zm-2-4.1.5,4.1h-.2l-1.4-3.8Zm.1,0h2.2l-.5,4.2h-1.2Z" fill="#3c3c3b"/><path d="M180.7,232.8a.09.09,0,0,0-.1.1h0a.09.09,0,0,1,.1-.1Z" fill="#00a499"/><path d="M183.4,237.1a3.63,3.63,0,0,1,2.6.9,22.89,22.89,0,0,0-.2-3.7,2.57,2.57,0,0,0-2-2,4.3,4.3,0,0,0-3.1.5,4.59,4.59,0,0,1,2.2-.6c-2.5-.3-2.9-1.2-2.7-2.3.1.8,0,1.8,2.4,2.1a6.3,6.3,0,0,1,3,1,7.66,7.66,0,0,0-1.1-3c-1.5-2.7-4.8-2.4-5.4-2.2a5.31,5.31,0,0,1,5.8,2.3,12.73,12.73,0,0,1,1.3,3.2,6.12,6.12,0,0,1,.7-1.9,5.86,5.86,0,0,1,3-2.1,4.64,4.64,0,0,0-3.4,4.8v1.3a9.65,9.65,0,0,1,.1,1.7v.1a7.87,7.87,0,0,1,2.8-3.2l.3-.2a3.13,3.13,0,0,0,.5-1,2.86,2.86,0,0,0-.2-2.2c.5.4.5,2.4.1,3.1a8.7,8.7,0,0,1,3.6-1,7.39,7.39,0,0,0-6.4,4.7c-.9,2.1.2,7.1.2,7.1h-1.9a35.4,35.4,0,0,0,.4-4.6c0-.7-.2-2.5-2.7-2.5-3.1-.1-4-1.5-5-1.8C178.9,235.8,180.8,237.3,183.4,237.1Z"/><path d="M176.4,230.4a3.12,3.12,0,0,1,1.7-2.7,3.78,3.78,0,0,1-.2-1,2.9,2.9,0,0,1,2.9-2.9h0a3.09,3.09,0,0,1,1.3.3,2.91,2.91,0,0,1,4-1h0l.1.1a2.65,2.65,0,0,1,1.5-.4,3,3,0,0,1,2.9,2.3A3,3,0,0,1,193,228v.1a2.91,2.91,0,0,1,.3,5.5.87.87,0,0,0,.1.5,2.9,2.9,0,0,1-2.9,2.9h0a1.66,1.66,0,0,1-.7-.1,2.87,2.87,0,0,1-2.2,1,3.78,3.78,0,0,1-1-.2,3.18,3.18,0,0,1-2.2,1,3.09,3.09,0,0,1-2.5-1.4,2.63,2.63,0,0,1-1.9.7,3.06,3.06,0,0,1-3-2.9,2.89,2.89,0,0,1,.9-2.1A3,3,0,0,1,176.4,230.4Z"/><path d="M11.9,232.8l-.1.1Z" fill="#00a499"/><path d="M14.7,237.1a3.27,3.27,0,0,1,2.5.9c0-1.2-.1-2.5-.2-3.7a2.57,2.57,0,0,0-2-2,4.3,4.3,0,0,0-3.1.5,4.62,4.62,0,0,1,2.3-.6c-2.5-.3-2.9-1.2-2.8-2.3.1.8,0,1.8,2.4,2.1a6.3,6.3,0,0,1,3,1,7.66,7.66,0,0,0-1.1-3c-1.5-2.7-4.8-2.4-5.4-2.2a5.31,5.31,0,0,1,5.8,2.3,12.73,12.73,0,0,1,1.3,3.2,4.52,4.52,0,0,1,.8-1.9,5.36,5.36,0,0,1,3-2.1,4.64,4.64,0,0,0-3.4,4.8v1.3a9.65,9.65,0,0,1,.1,1.7v.1a7.87,7.87,0,0,1,2.8-3.2l.3-.2a3.13,3.13,0,0,0,.5-1,2.86,2.86,0,0,0-.2-2.2c.5.4.5,2.4,0,3.1a8.93,8.93,0,0,1,3.5-1,7.51,7.51,0,0,0-6.4,4.7c-.9,2.1.2,7.1.2,7.1H16.8a35.4,35.4,0,0,0,.4-4.6c0-.7-.2-2.5-2.7-2.5-3.1-.1-4-1.5-5-1.8C10.2,235.8,12,237.3,14.7,237.1Z" fill="#00a499"/><path d="M7.6,230.4a3.12,3.12,0,0,1,1.7-2.7,3.78,3.78,0,0,1-.2-1,2.9,2.9,0,0,1,2.9-2.9h0a3.09,3.09,0,0,1,1.3.3,2.91,2.91,0,0,1,4-1h0l.1.1a2.65,2.65,0,0,1,1.5-.4,3,3,0,0,1,2.9,2.3,3,3,0,0,1,2.4,2.9v.1a2.91,2.91,0,0,1,.3,5.5v.5a3,3,0,0,1-2.9,3h0a1.66,1.66,0,0,1-.7-.1,2.92,2.92,0,0,1-3.2.8,2.87,2.87,0,0,1-4,.35l-.06-.05a1.56,1.56,0,0,1-.6-.8,2.63,2.63,0,0,1-1.9.7,3.06,3.06,0,0,1-3-2.9,3.25,3.25,0,0,1,.8-2.1A3.18,3.18,0,0,1,7.6,230.4Z" fill="#00a499"/><path d="M7.5,229a3,3,0,0,1,2-2.5,3.37,3.37,0,0,1-.1-1,2.91,2.91,0,0,1,3.19-2.6h0a2.45,2.45,0,0,1,1.2.4,2.91,2.91,0,0,1,4.05-.64l0,0a.09.09,0,0,1,.1.1h0a3,3,0,0,1,3.9,1.4,1.86,1.86,0,0,1,.2.8,3,3,0,0,1,2.1,3.1v.1A2.9,2.9,0,0,1,25.8,232h0a2.71,2.71,0,0,1-1.9,1.7v.5a2.91,2.91,0,0,1-3.19,2.6h0a1.94,1.94,0,0,1-.7-.2,2.74,2.74,0,0,1-2.3.8,2,2,0,0,1-1-.3,2.86,2.86,0,0,1-4.06-.06l0,0a2.3,2.3,0,0,1-.5-.8,3,3,0,0,1-4.1-.7,2.83,2.83,0,0,1,.5-3.9A3.07,3.07,0,0,1,7.5,229Z" fill="#00a499"/><path d="M156.5,241.1a2.37,2.37,0,0,1,1.4.5,14.77,14.77,0,0,0-.1-2.1,1.39,1.39,0,0,0-1.1-1.1,2.57,2.57,0,0,0-1.8.3c.2-.3,1-.4,1.3-.4-1.4-.2-1.6-.7-1.5-1.3,0,.4,0,1,1.4,1.2a2.69,2.69,0,0,1,1.7.6,4.86,4.86,0,0,0-.6-1.7,2.69,2.69,0,0,0-3-1.2,3,3,0,0,1,3.3,1.3,6.8,6.8,0,0,1,.7,1.8,3.54,3.54,0,0,1,.4-1.1,3,3,0,0,1,1.7-1.2,2.59,2.59,0,0,0-1.9,2.7v.8c0,.3.1.7.1,1h0a4,4,0,0,1,1.6-1.8l.2-.1.3-.6a1.61,1.61,0,0,0-.1-1.2c.3.2.3,1.4,0,1.8a6.7,6.7,0,0,1,2-.6,4.15,4.15,0,0,0-3.6,2.6c-.5,1.2.1,4,.1,4h-1.1a22.58,22.58,0,0,0,.2-2.6c0-.4-.1-1.4-1.5-1.4a4.8,4.8,0,0,1-2.8-1A4.8,4.8,0,0,0,156.5,241.1Z" fill="#00a499"/><path d="M152.6,237.4a1.65,1.65,0,0,1,1-1.5,1.23,1.23,0,0,1-.1-.6,1.6,1.6,0,0,1,1.6-1.6h.1a1.94,1.94,0,0,1,.7.2,1.59,1.59,0,0,1,1.4-.8,1.4,1.4,0,0,1,.9.3,2.41,2.41,0,0,1,.8-.2,9.24,9.24,0,0,1,3,2.9h0a1.64,1.64,0,0,1,.1,3.1v.3a1.69,1.69,0,0,1-1.68,1.7h0a.63.63,0,0,1-.4-.1,1.57,1.57,0,0,1-1.2.6,1.23,1.23,0,0,1-.6-.1,1.64,1.64,0,0,1-1.3.6,1.59,1.59,0,0,1-1.4-.8,1.49,1.49,0,0,1-1.1.4,1.67,1.67,0,0,1-1.7-1.6,1.85,1.85,0,0,1,.5-1.2A3.59,3.59,0,0,1,152.6,237.4Z" fill="#00a499"/><path d="M272.4,228.9l-.2.2C272.3,229,272.3,228.9,272.4,228.9Z" fill="#00a499"/><path d="M276.1,234.7a4.76,4.76,0,0,1,3.4,1.2c0-1.7-.1-3.3-.2-5a3.58,3.58,0,0,0-2.7-2.6c-1.2-.2-3.3-.1-4.1.6a4.58,4.58,0,0,1,3-.8c-3.3-.4-3.9-1.6-3.7-3,.1,1,0,2.3,3.2,2.8a7.49,7.49,0,0,1,4,1.4,10.63,10.63,0,0,0-1.5-4.1c-2-3.6-6.4-3.2-7.2-2.9,1.1-.4,5.7-.6,7.7,3.1a17.52,17.52,0,0,1,1.7,4.3,6.41,6.41,0,0,1,1-2.6,7.53,7.53,0,0,1,4-2.8c-1.5.6-4.5,1.7-4.5,6.4v1.8a17.63,17.63,0,0,1,.1,2.3v.1a10,10,0,0,1,3.7-4.2,1.31,1.31,0,0,1,.4-.3,3.63,3.63,0,0,0,.6-1.4c.3-1.1.2-2.5-.3-2.9.7.5.7,3.2.1,4.2a13.29,13.29,0,0,1,4.7-1.3,10.25,10.25,0,0,0-8.6,6.2c-1.2,2.7.2,9.5.2,9.5h-2.5c.2-.2.3-3.7.6-6.1,0-.9-.3-3.3-3.6-3.3-4.1-.1-5.4-2-6.6-2.4C270.1,232.9,272.6,234.9,276.1,234.7Z"/><path d="M266.7,225.7a4.09,4.09,0,0,1,2.3-3.6,3.18,3.18,0,0,1-.2-1.4,3.84,3.84,0,0,1,3.78-3.9h.12a3.36,3.36,0,0,1,1.7.4,3.9,3.9,0,0,1,3.4-1.9,3.42,3.42,0,0,1,2.2.7,3.88,3.88,0,0,1,5.3,1.3,5.18,5.18,0,0,1,.5,1.1,4.06,4.06,0,0,1,3.2,3.9v.1a3.9,3.9,0,0,1,2.7,4.8,3.8,3.8,0,0,1-2.3,2.5c0,.2.1.4.1.6a3.84,3.84,0,0,1-3.78,3.9h-.12a3.37,3.37,0,0,1-1-.1,4,4,0,0,1-2.9,1.3,5.68,5.68,0,0,1-1.3-.2,3.84,3.84,0,0,1-6.3-.6,4,4,0,0,1-2.5,1,3.91,3.91,0,0,1-3.9-3.9,3.84,3.84,0,0,1,1.1-2.7A3.33,3.33,0,0,1,266.7,225.7Z"/><path d="M73.88,237.1a3.63,3.63,0,0,1,2.6.9c0-1.2-.1-2.5-.2-3.7a2.57,2.57,0,0,0-2-2,4.3,4.3,0,0,0-3.1.5,4.62,4.62,0,0,1,2.3-.6c-2.5-.3-2.9-1.2-2.8-2.3.1.8,0,1.8,2.4,2.1a6.3,6.3,0,0,1,3,1,7.66,7.66,0,0,0-1.1-3c-1.5-2.7-4.8-2.4-5.4-2.2a5.31,5.31,0,0,1,5.8,2.3,9.69,9.69,0,0,1,1.2,3.2,4.52,4.52,0,0,1,.8-1.9,5.36,5.36,0,0,1,3-2.1,4.64,4.64,0,0,0-3.4,4.8v1.3a9.65,9.65,0,0,1,.1,1.7v.1a7.87,7.87,0,0,1,2.8-3.2l.3-.2a3.35,3.35,0,0,0,.5-1,2.86,2.86,0,0,0-.2-2.2c.5.4.5,2.4,0,3.1a8.7,8.7,0,0,1,3.6-1,7.7,7.7,0,0,0-6.4,4.7c-.9,2.1.2,7.1.2,7.1H76a35.4,35.4,0,0,0,.4-4.6c0-.7-.2-2.5-2.7-2.5-3.1-.1-4-1.5-5-1.8C69.38,235.8,71.28,237.3,73.88,237.1Z"/><path d="M67.5,232.8l-.1.1a.09.09,0,0,0,.1-.1Z" fill="#00a499"/><path d="M69.31,230.4a2.93,2.93,0,0,1,1.8-2.7,3.78,3.78,0,0,1-.2-1,2.9,2.9,0,0,1,2.9-2.9,3.09,3.09,0,0,1,1.3.3,2.92,2.92,0,0,1,4-1h0l.1.1a2.65,2.65,0,0,1,1.5-.4,2.79,2.79,0,0,1,2.8,2.3,3,3,0,0,1,2.4,2.9v.1a2.91,2.91,0,0,1,.3,5.5v.5a3,3,0,0,1-2.9,3h-.1a1.66,1.66,0,0,1-.7-.1,2.92,2.92,0,0,1-3.2.8,2.87,2.87,0,0,1-4,.35l-.06-.05a1.56,1.56,0,0,1-.6-.8,2.61,2.61,0,0,1-1.9.7,3.06,3.06,0,0,1-3-2.9,3.25,3.25,0,0,1,.8-2.1A3.74,3.74,0,0,1,69.31,230.4Z"/><rect y="248.5" width="800" height="11" fill="#00a499"/><path d="M329.6,237.9c-1.4,0-2.9.1-4.3.2a.74.74,0,0,0-.4.8,4.83,4.83,0,0,1-.1,1.2.67.67,0,0,0-.6.7c-.1.6-.5,1.4,1.9,1.6s3.4.3,3.4.3a2.78,2.78,0,0,1,2.8-2.7h0c2.7.1,2.2,3.2,2.2,3.2L347,243l.4-.4v-.2a2.54,2.54,0,0,1,2.5-2.5c2.5,0,2.1,2.8,2.1,2.8h2c.4,0,.9-.8.8-1.2s-.2-.7-.7-.8a3.64,3.64,0,0,0-.4-.9c-.1-.2-.5-.5-2.2-.9s-5-.5-5.4-.6-.3-.1-1.4-.8-1.9-1.6-4.1-1.8a40.05,40.05,0,0,0-6-.1A6.71,6.71,0,0,0,329.6,237.9Z"/><path d="M324.8,240.1h1.3s0-1.5-.4-1.7a1.11,1.11,0,0,0-.8.7C324.9,239.4,324.8,239.7,324.8,240.1Z"/><path d="M338.7,236.1l.4,2.4-4.5-.1c-.8,0-1.1,0-1.1-.2s.5-2.1,1.7-2.1Z"/><path d="M339.4,236.1s.5,1.8.6,2.3c1.8,0,5.5.2,5.5.2a19.27,19.27,0,0,0-2.3-1.6A6.48,6.48,0,0,0,339.4,236.1Z"/><path d="M349.8,240.2a2.15,2.15,0,1,0,2.2,2.1h0A2.19,2.19,0,0,0,349.8,240.2Zm0,3.7a1.6,1.6,0,1,1,1.6-1.6,1.58,1.58,0,0,1-1.56,1.6Z"/><path d="M351.1,242.3a1.3,1.3,0,1,1-1.3-1.3h0A1.4,1.4,0,0,1,351.1,242.3Z"/><circle cx="349.8" cy="242.3" r="1.6"/><path d="M350.7,242.3a.91.91,0,0,1-1.8.2v-.2a1,1,0,0,1,1-.8A1.09,1.09,0,0,1,350.7,242.3Z"/><path d="M350.4,242.3a.56.56,0,0,1-.5.6h0a.61.61,0,1,1,.49-.71A.41.41,0,0,1,350.4,242.3Z"/><path d="M332,240.2a2.1,2.1,0,1,0,2.1,2.1h0a2.05,2.05,0,0,0-2-2.1Zm0,3.6a1.6,1.6,0,1,1,1.6-1.6h0a1.58,1.58,0,0,1-1.56,1.6Z"/><path d="M333.2,242.3a1.2,1.2,0,1,1-1.2-1.2A1.22,1.22,0,0,1,333.2,242.3Z"/><path d="M333.6,242.3a1.6,1.6,0,1,1-1.6-1.6h0a1.58,1.58,0,0,1,1.6,1.56Z"/><path d="M332.9,242.3a.9.9,0,1,1-.9-.9h0A.9.9,0,0,1,332.9,242.3Z"/><path d="M332.5,242.3a.56.56,0,0,1-.5.6.56.56,0,0,1-.6-.5.56.56,0,0,1,.5-.6h0a.47.47,0,0,1,.58.32A.37.37,0,0,1,332.5,242.3Z"/><path d="M692.4,237.9c-1.4,0-2.9.1-4.3.2a.74.74,0,0,0-.4.8,4.83,4.83,0,0,1-.1,1.2.67.67,0,0,0-.6.7c-.1.6-.5,1.4,1.9,1.6s3.4.3,3.4.3a2.78,2.78,0,0,1,2.8-2.7h0c2.7.1,2.2,3.2,2.2,3.2l12.6-.1.4-.4v-.2a2.55,2.55,0,0,1,2.6-2.5c2.5,0,2.1,2.8,2.1,2.8h2a1.31,1.31,0,0,0,.8-1.2.76.76,0,0,0-.7-.8,3.64,3.64,0,0,0-.4-.9c0-.2-.5-.5-2.2-.9s-5-.5-5.4-.6-.3-.1-1.4-.8a7.82,7.82,0,0,0-4.1-1.8,40.05,40.05,0,0,0-6-.1A7.09,7.09,0,0,0,692.4,237.9Z" fill="#1d1d1b"/><path d="M687.6,240.1h1.3s0-1.5-.4-1.7a1.11,1.11,0,0,0-.8.7A3.74,3.74,0,0,1,687.6,240.1Z" fill="#1d1d1b"/><path d="M701.5,236.1l.4,2.4-4.5-.1c-.8,0-1.2,0-1.1-.2s.5-2.1,1.7-2.1Z" fill="#1d1d1b"/><path d="M702.2,236.1s.5,1.8.6,2.3c1.7,0,5.5.2,5.5.2A19.27,19.27,0,0,0,706,237,6.34,6.34,0,0,0,702.2,236.1Z" fill="#1d1d1b"/><path d="M712.6,240.2a2.15,2.15,0,1,0,2.2,2.1h0a2.14,2.14,0,0,0-2.18-2.1Zm0,3.7a1.6,1.6,0,1,1,1.6-1.6h0a1.58,1.58,0,0,1-1.56,1.6Z" fill="#1d1d1b"/><path d="M713.9,242.3a1.3,1.3,0,1,1-1.3-1.3h0A1.4,1.4,0,0,1,713.9,242.3Z" fill="#1d1d1b"/><circle cx="712.6" cy="242.3" r="1.6" fill="#1d1d1b"/><path d="M713.5,242.3a.9.9,0,1,1-.9-.9h0a.9.9,0,0,1,.9.9Z" fill="#1d1d1b"/><path d="M713.2,242.3a.6.6,0,1,1-.6-.6h0A.65.65,0,0,1,713.2,242.3Z" fill="#1d1d1b"/><path d="M694.8,240.2a2.1,2.1,0,1,0,2.1,2.1h0a2.05,2.05,0,0,0-2-2.1Zm0,3.6a1.55,1.55,0,1,1,1.5-1.6h0a1.44,1.44,0,0,1-1.27,1.59Z" fill="#1d1d1b"/><path d="M696,242.3a1.2,1.2,0,1,1-1.2-1.2h0a1.16,1.16,0,0,1,1.2,1.12Z" fill="#1d1d1b"/><path d="M696.4,242.3a1.6,1.6,0,1,1-1.6-1.6h0a1.58,1.58,0,0,1,1.6,1.56Z" fill="#1d1d1b"/><path d="M695.7,242.3a.9.9,0,1,1-.9-.9h0a.9.9,0,0,1,.9.9Z" fill="#1d1d1b"/><path d="M695.4,242.3a.56.56,0,0,1-.5.6.56.56,0,0,1-.6-.5.56.56,0,0,1,.5-.6h0a.5.5,0,0,1,.59.39A.41.41,0,0,1,695.4,242.3Z" fill="#1d1d1b"/><path d="M94.7,237.9c-1.4,0-2.9.1-4.3.2a.74.74,0,0,0-.4.8,4.83,4.83,0,0,1-.1,1.2.67.67,0,0,0-.6.7c-.1.6-.5,1.4,1.9,1.6s3.4.3,3.4.3a2.78,2.78,0,0,1,2.8-2.7h0c2.7.1,2.2,3.2,2.2,3.2l12.6-.1.4-.4v-.2a2.55,2.55,0,0,1,2.6-2.5c2.5,0,2.1,2.8,2.1,2.8h2c.4,0,.9-.8.8-1.2s-.2-.7-.7-.8a3.64,3.64,0,0,0-.4-.9c-.1-.2-.5-.5-2.2-.9s-5-.5-5.4-.6-.3-.1-1.4-.8-1.9-1.6-4.1-1.8a40.05,40.05,0,0,0-6-.1A7.09,7.09,0,0,0,94.7,237.9Z"/><path d="M89.9,240.1h1.3s0-1.5-.4-1.7a1.11,1.11,0,0,0-.8.7A3.74,3.74,0,0,1,89.9,240.1Z"/><path d="M103.8,236.1l.4,2.4-4.5-.1c-.8,0-1.2,0-1.1-.2s.5-2.1,1.7-2.1Z"/><path d="M104.6,236.1s.5,1.8.6,2.3c1.8,0,5.5.2,5.5.2a19.27,19.27,0,0,0-2.3-1.6A6.48,6.48,0,0,0,104.6,236.1Z"/><path d="M115,240.2a2.15,2.15,0,1,0,2.2,2.1h0a2.14,2.14,0,0,0-2.18-2.1Zm0,3.7a1.6,1.6,0,1,1,1.6-1.6,1.58,1.58,0,0,1-1.56,1.6Z"/><path d="M116.2,242.3a1.3,1.3,0,1,1-1.3-1.3h0A1.4,1.4,0,0,1,116.2,242.3Z"/><path d="M116.6,242.3a1.65,1.65,0,1,1-1.7-1.6h0a1.61,1.61,0,0,1,1.7,1.52Z"/><path d="M115.8,242.3a.91.91,0,0,1-1.8.2v-.2a1,1,0,0,1,1-.8C115.5,241.6,115.8,241.9,115.8,242.3Z"/><path d="M115.5,242.3a.56.56,0,0,1-.5.6h0a.6.6,0,0,1,0-1.2.56.56,0,0,1,.5.6Z"/><path d="M97.1,240.2a2.1,2.1,0,1,0,2.1,2.1h0a2.05,2.05,0,0,0-2-2.1Zm0,3.6a1.6,1.6,0,1,1,1.6-1.6h0a1.58,1.58,0,0,1-1.56,1.6Z"/><path d="M98.4,242.3a1.2,1.2,0,1,1-1.2-1.2h0A1.22,1.22,0,0,1,98.4,242.3Z"/><path d="M98.8,242.3a1.6,1.6,0,1,1-1.6-1.6h0A1.72,1.72,0,0,1,98.8,242.3Z"/><path d="M98,242.3a.9.9,0,1,1-.9-.9h0A.9.9,0,0,1,98,242.3Z"/><path d="M97.7,242.3a.56.56,0,0,1-.5.6.56.56,0,0,1-.6-.5.56.56,0,0,1,.5-.6h0a.5.5,0,0,1,.59.39A.41.41,0,0,1,97.7,242.3Z"/><path d="M783,232.8a.09.09,0,0,0-.1.1A.09.09,0,0,1,783,232.8Z" fill="#00a499"/><path d="M785.7,237.1a3.27,3.27,0,0,1,2.5.9,22.89,22.89,0,0,0-.2-3.7,2.57,2.57,0,0,0-2-2,4.3,4.3,0,0,0-3.1.5,4.59,4.59,0,0,1,2.2-.6c-2.5-.3-2.9-1.2-2.7-2.3.1.8,0,1.8,2.4,2.1a6.3,6.3,0,0,1,3,1,7.66,7.66,0,0,0-1.1-3c-1.5-2.7-4.8-2.4-5.4-2.2a5.31,5.31,0,0,1,5.8,2.3,12.73,12.73,0,0,1,1.3,3.2,4.52,4.52,0,0,1,.8-1.9,5.86,5.86,0,0,1,3-2.1,4.64,4.64,0,0,0-3.4,4.8v1.3a9.65,9.65,0,0,1,.1,1.7v.1a7.87,7.87,0,0,1,2.8-3.2l.3-.2a3.13,3.13,0,0,0,.5-1,2.86,2.86,0,0,0-.2-2.2c.5.4.5,2.4,0,3.1a8.7,8.7,0,0,1,3.6-1,7.39,7.39,0,0,0-6.4,4.7c-.9,2.1.2,7.1.2,7.1h-1.9a35.4,35.4,0,0,0,.4-4.6c0-.7-.2-2.5-2.7-2.5-3.1-.1-4-1.5-5-1.8C781.2,235.8,783.1,237.3,785.7,237.1Z"/><path d="M778.5,229a3,3,0,0,1,2-2.5,3.37,3.37,0,0,1-.1-1,3.07,3.07,0,0,1,3.2-2.7h0a4.24,4.24,0,0,1,1.2.4,2.91,2.91,0,0,1,4.05-.64l0,0a.09.09,0,0,1,.1.1,2.88,2.88,0,0,1,3.86,1.31l0,.09.3.9a2.92,2.92,0,0,1,2.1,3.1v.1A3,3,0,0,1,797,232a2.71,2.71,0,0,1-1.9,1.7v.5a2.91,2.91,0,0,1-3.19,2.6h0a1.94,1.94,0,0,1-.7-.2,2.74,2.74,0,0,1-2.3.8,2,2,0,0,1-1-.3,8,8,0,0,0-6.6-.4,3,3,0,0,1-1.7-5.2A3.11,3.11,0,0,1,778.5,229Z"/><path d="M399.6,232.8l-.1.1Z" fill="#00a499"/><path d="M402.3,237.1a3.27,3.27,0,0,1,2.5.9,22.89,22.89,0,0,0-.2-3.7,2.57,2.57,0,0,0-2-2,4.3,4.3,0,0,0-3.1.5,4.59,4.59,0,0,1,2.2-.6c-2.5-.3-2.9-1.2-2.7-2.3.1.8,0,1.8,2.4,2.1a6.3,6.3,0,0,1,3,1,7.66,7.66,0,0,0-1.1-3c-1.5-2.7-4.8-2.4-5.4-2.2a5.31,5.31,0,0,1,5.8,2.3,12.73,12.73,0,0,1,1.3,3.2,4,4,0,0,1,.8-1.9,5.36,5.36,0,0,1,3-2.1,4.75,4.75,0,0,0-3.4,4.8v1.3a9.65,9.65,0,0,1,.1,1.7v.1a7.87,7.87,0,0,1,2.8-3.2l.3-.2a3.13,3.13,0,0,0,.5-1,2.86,2.86,0,0,0-.2-2.2c.5.4.5,2.4,0,3.1a8.93,8.93,0,0,1,3.5-1,7.39,7.39,0,0,0-6.4,4.7c-.9,2.1.2,7.1.2,7.1h-1.9a35.4,35.4,0,0,0,.4-4.6c0-.7-.2-2.5-2.7-2.5-3.1-.1-4-1.5-5-1.8C397.8,235.8,399.7,237.3,402.3,237.1Z" fill="#00a499"/><path d="M395.3,230.4a3.12,3.12,0,0,1,1.7-2.7,3.78,3.78,0,0,1-.2-1,2.9,2.9,0,0,1,2.9-2.9h0a2.9,2.9,0,0,0,3.8-1.1,2.78,2.78,0,0,1,1.6.5,2.65,2.65,0,0,1,1.5-.4,16.87,16.87,0,0,1,5.2,5.1v.1a2.79,2.79,0,0,1,2.07,3.36,2.17,2.17,0,0,1-.07.24,2.71,2.71,0,0,1-1.7,1.9v.5a3,3,0,0,1-2.9,3h-.1a1.66,1.66,0,0,1-.7-.1,17.19,17.19,0,0,0-5.4,1.8,3.09,3.09,0,0,1-2.5-1.4,2.87,2.87,0,0,1-4.06-.15l0-.05a2.93,2.93,0,0,1,.1-4A3.62,3.62,0,0,1,395.3,230.4Z" fill="#00a499"/><path d="M395.2,229a3,3,0,0,1,2-2.5,3.37,3.37,0,0,1-.1-1,2.91,2.91,0,0,1,3.19-2.6h0a2.45,2.45,0,0,1,1.2.4,2.91,2.91,0,0,1,4.05-.64l.05,0a.09.09,0,0,1,.1.1h0a3.9,3.9,0,0,1,1.5-.3,2.87,2.87,0,0,1,2.6,2.5,2.92,2.92,0,0,1,2.1,3.1v.1a2.9,2.9,0,0,1,1.6,3.79h0a3,3,0,0,1-1.8,1.7v.5a3.07,3.07,0,0,1-3.2,2.7h0a1.94,1.94,0,0,1-.7-.2,2.91,2.91,0,0,1-3.2.5,2.86,2.86,0,0,1-4.06-.06l0,0a2.3,2.3,0,0,1-.5-.8,3,3,0,0,1-4.1-.7,2.84,2.84,0,0,1-.5-2,3,3,0,0,1,1-2A2.74,2.74,0,0,1,395.2,229Z" fill="#00a499"/><rect y="244.4" width="800" height="4.4" fill="#3c3c3b"/></svg>