<svg xmlns="http://www.w3.org/2000/svg" width="224.06" height="32.8" viewBox="0 0 224.06 32.8"><path d="M122.87,15.23a29.46,29.46,0,0,0-3.53-1.87s-4.18-1.93-5-2.85a2.91,2.91,0,0,1-.67-3.31A2.07,2.07,0,0,1,115.78,6S118,6.16,118,8v2.6h8V6.77s.62-6.26-9.45-6.53c0,0-7.91-.52-10.18,3.74,0,0-.89.95-.89,4.26v2.39a7.93,7.93,0,0,0,1.32,4.54,10.38,10.38,0,0,0,2.76,2.45s4,2.15,6.38,3.38c0,0,2.42,1.38,2.1,3.57a2.37,2.37,0,0,1-2.53,2.16,2.23,2.23,0,0,1-2.13-2.3v-2.6h-8.55V25.6s-.24,7.2,10.74,7.2c0,0,10.49.22,11-7.39V22.35a8,8,0,0,0-3.7-7.12Z" fill-rule="evenodd"/><polygon points="81.82 1.13 79.13 17.96 78.5 17.96 75.94 1.28 62.55 1.28 61.88 31.75 69.81 31.75 69.9 8.79 70.53 8.79 74.73 31.75 83.07 31.75 87.22 8.8 87.78 8.8 87.97 31.75 95.94 31.75 95.08 1.13 81.82 1.13 81.82 1.13" fill-rule="evenodd"/><polygon points="34.62 1.26 29.34 31.71 37.88 31.71 41 8.1 41.7 8.1 44.83 31.71 53.36 31.71 48.09 1.26 34.62 1.26 34.62 1.26" fill-rule="evenodd"/><path d="M213.74,14.81v4.5h2.18v4.82a2.19,2.19,0,1,1-4.37.16V7.61c0-1.72,2.18-1.81,2.18-1.81a2,2,0,0,1,2.1,2.05v2.53h8c.26-5-.73-6.15-.73-6.15-2-4.47-9.53-4.23-9.53-4.23C202,0,203.3,8.9,203.3,8.9V25c.25,8.34,11.67,7.5,11.86,7.49,5.08-.57,6.62-2.18,6.62-2.18a5,5,0,0,0,1.78-2.5,14.82,14.82,0,0,0,.5-3.54V14.81Z" fill-rule="evenodd"/><polygon points="187.09 19.77 186.75 19.77 178.59 1.14 168.83 1.14 168.83 31.75 176.77 31.75 176.3 13.13 176.65 13.13 185.1 31.75 194.56 31.75 194.56 1.14 186.52 1.14 187.09 19.77 187.09 19.77" fill-rule="evenodd"/><path d="M149.44,24.13s.12,2.51-2.21,2.51a2.3,2.3,0,0,1-2.45-2.45l0-23H136V24s-.89,8.64,11.31,8.64c0,0,10.61.13,10.61-8.25V1.16h-8.52v23Z" fill-rule="evenodd"/><path d="M18,15.23a28.64,28.64,0,0,0-3.53-1.87s-4.17-1.93-5-2.85A2.91,2.91,0,0,1,8.81,7.2,2.07,2.07,0,0,1,10.92,6s2.24.13,2.24,2v2.6h8V6.77S21.78.51,11.72.24a18.62,18.62,0,0,0-1.87,0S3.76.57,1.58,3.91a.43.43,0,0,1,0,.07S.65,4.93.65,8.24v2.39A7.93,7.93,0,0,0,2,15.17a10.38,10.38,0,0,0,2.76,2.45s4,2.15,6.38,3.38c0,0,2.42,1.38,2.1,3.57a2.37,2.37,0,0,1-2.53,2.16,2.23,2.23,0,0,1-2.13-2.3v-2.6H0V25.6s-.24,7.2,10.74,7.2c0,0,10.49.22,11-7.39V22.35A8,8,0,0,0,18,15.23Z" fill-rule="evenodd"/></svg>