<svg xmlns="http://www.w3.org/2000/svg" width="1054.82" height="74.67" viewBox="0 0 1054.82 74.67"><polygon points="74.67 0 0 74.67 0.62 74.67 75.29 0 74.67 0"/><polygon points="81.42 0 6.75 74.67 7.38 74.67 82.04 0 81.42 0"/><polygon points="88.18 0 13.51 74.67 14.13 74.67 88.8 0 88.18 0"/><polygon points="94.93 0 20.27 74.67 20.89 74.67 95.55 0 94.93 0"/><polygon points="101.69 0 27.02 74.67 27.64 74.67 102.31 0 101.69 0"/><polygon points="108.44 0 33.78 74.67 34.4 74.67 109.06 0 108.44 0"/><polygon points="115.2 0 40.53 74.67 41.15 74.67 115.82 0 115.2 0"/><polygon points="121.95 0 47.29 74.67 47.91 74.67 122.58 0 121.95 0"/><polygon points="128.71 0 54.04 74.67 54.66 74.67 129.33 0 128.71 0"/><polygon points="135.47 0 60.8 74.67 61.42 74.67 136.09 0 135.47 0"/><polygon points="142.22 0 67.55 74.67 68.17 74.67 142.84 0 142.22 0"/><polygon points="148.98 0 74.31 74.67 74.93 74.67 149.6 0 148.98 0"/><polygon points="155.73 0 81.06 74.67 81.69 74.67 156.35 0 155.73 0"/><polygon points="162.49 0 87.82 74.67 88.44 74.67 163.11 0 162.49 0"/><polygon points="169.24 0 94.58 74.67 95.19 74.67 169.86 0 169.24 0"/><polygon points="176 0 101.33 74.67 101.95 74.67 176.62 0 176 0"/><polygon points="182.75 0 108.09 74.67 108.71 74.67 183.37 0 182.75 0"/><polygon points="189.51 0 114.84 74.67 115.46 74.67 190.13 0 189.51 0"/><polygon points="196.26 0 121.6 74.67 122.22 74.67 196.88 0 196.26 0"/><polygon points="203.02 0 128.35 74.67 128.97 74.67 203.64 0 203.02 0"/><polygon points="209.78 0 135.11 74.67 135.73 74.67 210.4 0 209.78 0"/><polygon points="216.53 0 141.86 74.67 142.48 74.67 217.15 0 216.53 0"/><polygon points="223.29 0 148.62 74.67 149.24 74.67 223.91 0 223.29 0"/><polygon points="230.04 0 155.37 74.67 155.99 74.67 230.66 0 230.04 0"/><polygon points="236.8 0 162.13 74.67 162.75 74.67 237.42 0 236.8 0"/><polygon points="243.55 0 168.88 74.67 169.5 74.67 244.17 0 243.55 0"/><polygon points="250.31 0 175.64 74.67 176.26 74.67 250.93 0 250.31 0"/><polygon points="257.06 0 182.4 74.67 183.02 74.67 257.68 0 257.06 0"/><polygon points="263.82 0 189.15 74.67 189.77 74.67 264.44 0 263.82 0"/><polygon points="270.57 0 195.91 74.67 196.53 74.67 271.19 0 270.57 0"/><polygon points="284.08 0 209.42 74.67 210.04 74.67 284.7 0 284.08 0"/><polygon points="297.6 0 222.93 74.67 223.55 74.67 298.21 0 297.6 0"/><polygon points="311.11 0 236.44 74.67 237.06 74.67 311.73 0 311.11 0"/><polygon points="324.62 0 249.95 74.67 250.57 74.67 325.24 0 324.62 0"/><polygon points="338.13 0 263.46 74.67 264.08 74.67 338.75 0 338.13 0"/><polygon points="351.64 0 276.97 74.67 277.59 74.67 352.26 0 351.64 0"/><polygon points="365.15 0 290.48 74.67 291.1 74.67 365.77 0 365.15 0"/><polygon points="378.66 0 303.99 74.67 304.61 74.67 379.28 0 378.66 0"/><polygon points="392.17 0 317.5 74.67 318.12 74.67 392.79 0 392.17 0"/><polygon points="405.68 0 331.01 74.67 331.63 74.67 406.3 0 405.68 0"/><polygon points="432.7 0 358.04 74.67 358.66 74.67 433.32 0 432.7 0"/><polygon points="459.73 0 385.06 74.67 385.68 74.67 460.35 0 459.73 0"/><polygon points="486.75 0 412.08 74.67 412.7 74.67 487.37 0 486.75 0"/><polygon points="513.77 0 439.1 74.67 439.72 74.67 514.39 0 513.77 0"/><polygon points="540.79 0 466.12 74.67 466.74 74.67 541.41 0 540.79 0"/><polygon points="567.81 0 493.14 74.67 493.76 74.67 568.43 0 567.81 0"/><polygon points="594.83 0 520.16 74.67 520.78 74.67 595.45 0 594.83 0"/><polygon points="621.85 0 547.19 74.67 547.81 74.67 622.47 0 621.85 0"/><polygon points="635.37 0 560.7 74.67 561.32 74.67 635.99 0 635.37 0"/><polygon points="648.88 0 574.21 74.67 574.83 74.67 649.5 0 648.88 0"/><polygon points="662.39 0 587.72 74.67 588.34 74.67 663.01 0 662.39 0"/><polygon points="277.33 0 202.66 74.67 203.28 74.67 277.95 0 277.33 0"/><polygon points="290.84 0 216.17 74.67 216.79 74.67 291.46 0 290.84 0"/><polygon points="304.35 0 229.68 74.67 230.3 74.67 304.97 0 304.35 0"/><polygon points="317.86 0 243.19 74.67 243.81 74.67 318.48 0 317.86 0"/><polygon points="331.37 0 256.7 74.67 257.32 74.67 331.99 0 331.37 0"/><polygon points="344.88 0 270.22 74.67 270.84 74.67 345.5 0 344.88 0"/><polygon points="358.39 0 283.73 74.67 284.35 74.67 359.01 0 358.39 0"/><polygon points="371.9 0 297.24 74.67 297.86 74.67 372.52 0 371.9 0"/><polygon points="385.42 0 310.75 74.67 311.37 74.67 386.04 0 385.42 0"/><polygon points="398.93 0 324.26 74.67 324.88 74.67 399.55 0 398.93 0"/><polygon points="419.19 0 344.52 74.67 345.14 74.67 419.81 0 419.19 0"/><polygon points="446.21 0 371.55 74.67 372.17 74.67 446.83 0 446.21 0"/><polygon points="473.24 0 398.57 74.67 399.19 74.67 473.86 0 473.24 0"/><polygon points="500.26 0 425.59 74.67 426.21 74.67 500.88 0 500.26 0"/><polygon points="425.95 0 351.28 74.67 351.9 74.67 426.57 0 425.95 0"/><polygon points="452.97 0 378.3 74.67 378.92 74.67 453.59 0 452.97 0"/><polygon points="479.99 0 405.32 74.67 405.94 74.67 480.61 0 479.99 0"/><polygon points="507.01 0 432.35 74.67 432.96 74.67 507.63 0 507.01 0"/><polygon points="534.03 0 459.37 74.67 459.99 74.67 534.65 0 534.03 0"/><polygon points="561.06 0 486.39 74.67 487.01 74.67 561.68 0 561.06 0"/><polygon points="588.08 0 513.41 74.67 514.03 74.67 588.7 0 588.08 0"/><polygon points="615.1 0 540.43 74.67 541.05 74.67 615.72 0 615.1 0"/><polygon points="412.44 0 337.77 74.67 338.39 74.67 413.06 0 412.44 0"/><polygon points="439.46 0 364.79 74.67 365.41 74.67 440.08 0 439.46 0"/><polygon points="466.48 0 391.81 74.67 392.43 74.67 467.1 0 466.48 0"/><polygon points="493.5 0 418.83 74.67 419.45 74.67 494.12 0 493.5 0"/><polygon points="520.52 0 445.86 74.67 446.48 74.67 521.14 0 520.52 0"/><polygon points="554.3 0 479.63 74.67 480.25 74.67 554.92 0 554.3 0"/><polygon points="574.57 0 499.9 74.67 500.52 74.67 575.19 0 574.57 0"/><polygon points="601.59 0 526.92 74.67 527.54 74.67 602.21 0 601.59 0"/><polygon points="527.28 0 452.61 74.67 453.23 74.67 527.9 0 527.28 0"/><polygon points="547.54 0 472.88 74.67 473.5 74.67 548.16 0 547.54 0"/><polygon points="581.32 0 506.65 74.67 507.27 74.67 581.94 0 581.32 0"/><polygon points="608.34 0 533.68 74.67 534.3 74.67 608.96 0 608.34 0"/><polygon points="628.61 0 553.94 74.67 554.56 74.67 629.23 0 628.61 0"/><polygon points="642.12 0 567.45 74.67 568.07 74.67 642.74 0 642.12 0"/><polygon points="675.9 0 601.23 74.67 601.85 74.67 676.52 0 675.9 0"/><polygon points="689.41 0 614.74 74.67 615.36 74.67 690.03 0 689.41 0"/><polygon points="702.92 0 628.25 74.67 628.87 74.67 703.54 0 702.92 0"/><polygon points="716.43 0 641.76 74.67 642.38 74.67 717.05 0 716.43 0"/><polygon points="729.94 0 655.27 74.67 655.89 74.67 730.56 0 729.94 0"/><polygon points="743.45 0 668.78 74.67 669.4 74.67 744.07 0 743.45 0"/><polygon points="756.96 0 682.29 74.67 682.91 74.67 757.58 0 756.96 0"/><polygon points="770.47 0 695.8 74.67 696.42 74.67 771.09 0 770.47 0"/><polygon points="783.98 0 709.32 74.67 709.94 74.67 784.6 0 783.98 0"/><polygon points="797.49 0 722.83 74.67 723.45 74.67 798.11 0 797.49 0"/><polygon points="811 0 736.34 74.67 736.96 74.67 811.63 0 811 0"/><polygon points="824.52 0 749.85 74.67 750.47 74.67 825.14 0 824.52 0"/><polygon points="831.27 0 756.6 74.67 757.22 74.67 831.89 0 831.27 0"/><polygon points="838.03 0 763.36 74.67 763.98 74.67 838.65 0 838.03 0"/><polygon points="844.78 0 770.12 74.67 770.74 74.67 845.4 0 844.78 0"/><polygon points="851.54 0 776.87 74.67 777.49 74.67 852.16 0 851.54 0"/><polygon points="858.29 0 783.63 74.67 784.25 74.67 858.91 0 858.29 0"/><polygon points="865.05 0 790.38 74.67 791 74.67 865.67 0 865.05 0"/><polygon points="655.63 0 580.96 74.67 581.58 74.67 656.25 0 655.63 0"/><polygon points="669.14 0 594.47 74.67 595.09 74.67 669.76 0 669.14 0"/><polygon points="682.65 0 607.99 74.67 608.61 74.67 683.27 0 682.65 0"/><polygon points="696.16 0 621.5 74.67 622.12 74.67 696.78 0 696.16 0"/><polygon points="709.67 0 635.01 74.67 635.63 74.67 710.29 0 709.67 0"/><polygon points="723.18 0 648.52 74.67 649.14 74.67 723.8 0 723.18 0"/><polygon points="736.7 0 662.03 74.67 662.65 74.67 737.32 0 736.7 0"/><polygon points="750.21 0 675.54 74.67 676.16 74.67 750.83 0 750.21 0"/><polygon points="763.72 0 689.05 74.67 689.67 74.67 764.34 0 763.72 0"/><polygon points="777.23 0 702.56 74.67 703.18 74.67 777.85 0 777.23 0"/><polygon points="790.74 0 716.07 74.67 716.69 74.67 791.36 0 790.74 0"/><polygon points="804.25 0 729.58 74.67 730.2 74.67 804.87 0 804.25 0"/><polygon points="817.76 0 743.09 74.67 743.71 74.67 818.38 0 817.76 0"/><polygon points="878.56 0 803.89 74.67 804.51 74.67 879.18 0 878.56 0"/><polygon points="892.07 0 817.4 74.67 818.02 74.67 892.69 0 892.07 0"/><polygon points="898.83 0 824.16 74.67 824.78 74.67 899.45 0 898.83 0"/><polygon points="905.58 0 830.91 74.67 831.53 74.67 906.2 0 905.58 0"/><polygon points="912.34 0 837.67 74.67 838.29 74.67 912.96 0 912.34 0"/><polygon points="919.09 0 844.42 74.67 845.04 74.67 919.71 0 919.09 0"/><polygon points="925.85 0 851.18 74.67 851.8 74.67 926.47 0 925.85 0"/><polygon points="932.6 0 857.93 74.67 858.55 74.67 933.22 0 932.6 0"/><polygon points="871.8 0 797.14 74.67 797.76 74.67 872.42 0 871.8 0"/><polygon points="885.31 0 810.65 74.67 811.27 74.67 885.93 0 885.31 0"/><polygon points="946.11 0 871.45 74.67 872.07 74.67 946.73 0 946.11 0"/><polygon points="952.87 0 878.2 74.67 878.82 74.67 953.49 0 952.87 0"/><polygon points="959.62 0 884.96 74.67 885.58 74.67 960.24 0 959.62 0"/><polygon points="966.38 0 891.71 74.67 892.33 74.67 967 0 966.38 0"/><polygon points="973.13 0 898.47 74.67 899.09 74.67 973.75 0 973.13 0"/><polygon points="979.89 0 905.22 74.67 905.84 74.67 980.51 0 979.89 0"/><polygon points="986.64 0 911.98 74.67 912.6 74.67 987.26 0 986.64 0"/><polygon points="939.36 0 864.69 74.67 865.31 74.67 939.98 0 939.36 0"/><polygon points="1000.16 0 925.49 74.67 926.11 74.67 1000.78 0 1000.16 0"/><polygon points="1013.67 0 939 74.67 939.62 74.67 1014.29 0 1013.67 0"/><polygon points="1020.42 0 945.75 74.67 946.38 74.67 1021.04 0 1020.42 0"/><polygon points="1027.18 0 952.51 74.67 953.13 74.67 1027.8 0 1027.18 0"/><polygon points="1033.93 0 959.27 74.67 959.89 74.67 1034.55 0 1033.93 0"/><polygon points="1040.69 0 966.02 74.67 966.64 74.67 1041.31 0 1040.69 0"/><polygon points="1047.44 0 972.78 74.67 973.4 74.67 1048.06 0 1047.44 0"/><polygon points="1054.2 0 979.53 74.67 980.15 74.67 1054.82 0 1054.2 0"/><polygon points="993.4 0 918.73 74.67 919.35 74.67 994.02 0 993.4 0"/><polygon points="1006.91 0 932.24 74.67 932.86 74.67 1007.53 0 1006.91 0"/></svg>